<svg version="1.1" id="Layer_1" xmlns="http://www.w3.org/2000/svg" xmlns:xlink="http://www.w3.org/1999/xlink" x="0px" y="0px"
	 width="100%" viewBox="0 0 500 500" enable-background="new 0 0 500 500" xml:space="preserve">
<path fill="#000000" opacity="1.000000" stroke="none" 
	d="
M280.000000,501.000000 
	C186.666687,501.000000 93.833374,501.000000 1.000050,501.000000 
	C1.000033,334.333405 1.000033,167.666794 1.000017,1.000139 
	C167.666565,1.000093 334.333130,1.000093 500.999756,1.000046 
	C500.999847,167.666519 500.999847,334.333038 500.999939,500.999786 
	C427.500000,501.000000 354.000000,501.000000 280.000000,501.000000 
M246.025223,359.931976 
	C246.025711,368.950348 246.026184,377.968689 246.001083,387.841064 
	C246.837280,392.263123 247.673477,396.685211 248.501770,401.065491 
	C252.816742,400.871704 256.577362,401.702759 258.602997,396.544586 
	C258.717102,394.740356 258.919098,392.936737 258.931580,391.131805 
	C259.047241,374.436493 259.130219,357.740997 259.966705,340.885376 
	C261.999207,340.596832 264.031738,340.308319 266.485352,340.771698 
	C282.265869,340.823059 298.046387,340.874420 314.773621,340.970642 
	C321.676544,340.981995 328.604065,341.350830 335.473755,340.878754 
	C340.035309,340.565216 344.514191,339.048981 349.039764,338.034668 
	C349.039764,338.034668 349.053314,338.001617 349.741028,337.892944 
	C353.602173,335.414673 351.980316,333.574371 348.976105,331.366058 
	C348.724518,330.918579 348.472931,330.471100 347.681641,329.413330 
	C345.670288,328.919830 343.670990,328.065308 341.645447,327.997833 
	C334.445740,327.758118 327.237091,327.786591 320.015198,326.837158 
	C319.691376,321.846497 319.367584,316.855804 319.786987,311.456848 
	C320.184631,283.723297 320.622559,255.990219 320.960175,228.255936 
	C321.095734,217.118225 321.070007,205.977356 320.977417,194.839081 
	C320.958679,192.590744 320.307190,190.347656 319.969666,187.250168 
	C319.945312,185.830612 319.920959,184.411041 319.928558,182.056885 
	C319.594879,174.369186 319.261169,166.681473 318.972931,158.059311 
	C318.990540,142.033112 319.008148,126.006905 319.001953,109.184113 
	C318.988739,108.121162 318.975525,107.058212 319.000824,105.218102 
	C317.098450,103.815300 315.251465,101.299164 313.284210,101.201363 
	C304.513672,100.765312 295.706543,100.919357 286.918335,101.115593 
	C285.266479,101.152481 283.640656,102.354439 281.339417,103.413765 
	C280.880920,105.599876 280.278259,107.767899 280.000946,109.976753 
	C279.664581,112.656235 278.595306,113.842636 276.223206,111.928070 
	C270.730347,107.494621 265.516174,102.701889 259.877075,98.470596 
	C257.681671,96.823296 253.699982,94.655617 252.161697,95.544708 
	C246.074905,99.062721 240.633682,103.697739 234.933136,107.944908 
	C234.933136,107.944908 234.929520,107.977722 234.359497,108.314034 
	C232.876617,109.863350 231.393738,111.412666 229.274597,113.155655 
	C226.935837,115.210472 224.550842,117.215340 222.266815,119.329285 
	C214.822144,126.219604 207.414368,133.149765 199.542267,140.275604 
	C199.270187,140.474777 199.043198,140.716339 198.493958,141.201477 
	C198.264832,141.373550 198.094498,141.591568 197.423798,142.204514 
	C196.590378,143.134781 195.756958,144.065048 194.535172,145.166840 
	C194.289154,145.317032 194.086929,145.512527 193.253189,145.964432 
	C189.791794,149.210449 187.040787,152.817093 187.107498,158.844711 
	C187.104004,174.242096 187.100510,189.639465 187.053589,205.966614 
	C187.046753,244.080490 187.028549,282.194366 187.073090,320.308167 
	C187.074951,321.894043 187.662918,323.479218 187.989212,325.796661 
	C187.990768,326.528656 187.992310,327.260651 187.060791,327.911591 
	C178.605438,327.959442 170.149231,327.956635 161.695450,328.098083 
	C160.013458,328.126190 158.340714,328.706604 156.403687,329.109894 
	C156.237671,329.193146 156.104004,329.312622 155.532791,329.995789 
	C155.041824,330.965698 154.550858,331.935608 154.015732,333.691925 
	C153.402130,336.993774 155.458252,338.628876 158.421341,340.723541 
	C160.237030,340.800507 162.052658,340.942596 163.868439,340.944702 
	C191.242340,340.976501 218.616272,340.989990 245.989395,341.942505 
	C246.019135,347.626801 246.048889,353.311127 246.025223,359.931976 
M285.787018,80.955452 
	C282.449493,82.842827 280.236511,91.251953 282.450500,94.266129 
	C283.048828,95.080750 284.327362,95.584984 285.387695,95.838455 
	C290.103729,96.965851 293.417114,95.063957 294.003265,91.043510 
	C294.925720,84.716293 292.538422,81.443497 285.787018,80.955452 
M300.500702,89.927422 
	C302.968597,95.413132 308.380829,98.099724 310.955963,94.756737 
	C312.726685,92.458023 314.178497,88.286804 313.239899,85.985703 
	C312.302368,83.687187 308.008362,81.157417 305.554962,81.485916 
	C302.544067,81.889069 299.733948,85.043800 300.500702,89.927422 
z"/>
<path fill="#0B1113" opacity="1.000000" stroke="none" 
	d="
M187.993851,327.992645 
	C187.992310,327.260651 187.990768,326.528656 188.239960,325.095917 
	C188.652359,322.587982 188.946777,320.781342 188.954742,318.973480 
	C189.020676,303.989899 189.033646,289.006134 189.417099,274.152771 
	C190.507156,277.087769 191.242752,279.892365 191.978333,282.696930 
	C193.725861,281.418854 194.294800,279.903107 195.000046,278.453674 
	C195.578949,277.263947 196.319855,276.153046 196.991058,275.475403 
	C196.996048,292.367096 196.984787,308.790588 197.018295,325.214020 
	C197.022873,327.457642 196.484650,330.258270 200.654907,329.709534 
	C201.637604,329.671417 202.298386,329.715515 203.202332,330.015808 
	C204.958389,330.190979 206.471298,330.110016 208.379349,329.976868 
	C209.837219,329.917816 210.899918,329.910950 212.325439,329.895691 
	C212.926041,329.842621 213.163818,329.797943 213.717224,329.681427 
	C214.889282,329.665558 215.745682,329.721558 217.052368,329.811707 
	C217.802429,329.817902 218.102173,329.789948 218.792725,329.671539 
	C222.220673,329.590576 225.257828,329.600067 228.595245,329.706177 
	C229.568634,328.763947 230.695145,327.777893 230.823441,326.675659 
	C231.118546,324.139923 230.928055,321.547638 231.242767,319.025818 
	C232.625839,320.550690 233.700760,322.028015 235.077820,323.920624 
	C235.077820,318.799225 234.483154,314.208099 235.281998,309.873840 
	C235.836197,306.866913 233.769547,302.197479 239.006500,301.463104 
	C239.013855,308.963257 239.019699,315.994232 238.985352,323.362061 
	C238.962143,325.708374 238.979156,327.717773 239.289795,330.039307 
	C248.718521,330.240692 257.853607,330.129913 266.954315,329.998535 
	C266.919952,329.977936 266.907043,329.898804 267.289490,329.796967 
	C268.102814,328.873413 268.899780,328.055511 268.908478,327.229370 
	C269.003601,318.168427 269.036682,309.105255 268.896210,300.045654 
	C268.880554,299.034546 267.689209,298.041626 267.034119,296.618103 
	C266.962036,293.113464 267.638611,289.757904 264.121521,287.648132 
	C266.632935,285.335144 271.082672,286.427338 271.937469,282.137238 
	C271.951111,282.068848 272.550964,282.117279 272.902222,282.442993 
	C272.830048,283.986359 272.732849,285.197937 272.626038,286.529572 
	C273.983917,286.374115 274.950226,286.263458 275.935791,286.610107 
	C275.974701,296.601410 275.919983,306.136658 276.078644,315.668365 
	C276.109344,317.511475 276.973999,319.340729 277.533966,321.449646 
	C277.555115,322.093872 277.496246,322.464844 277.166199,323.038757 
	C277.044617,324.531189 277.194244,325.820709 277.498108,327.088440 
	C277.652283,327.066681 277.962158,327.035309 277.944305,327.374847 
	C278.631744,328.067383 279.337036,328.420380 280.488953,328.851807 
	C283.955170,329.069031 286.974792,329.207825 290.166687,329.672974 
	C294.227844,329.780121 298.116699,329.561005 302.437622,329.229004 
	C304.375793,329.102905 305.881897,329.089691 307.712036,329.068024 
	C308.683746,329.035400 309.331482,329.011230 310.239807,329.229797 
	C311.654053,331.110535 313.778931,332.751465 313.773926,334.385895 
	C313.760529,338.777435 316.091461,339.149506 319.456726,339.020538 
	C329.312164,338.642853 339.171997,338.379364 349.030090,338.071136 
	C344.514191,339.048981 340.035309,340.565216 335.473755,340.878754 
	C328.604065,341.350830 321.676544,340.981995 314.055328,340.616547 
	C297.579437,340.181549 281.821838,340.100677 266.064240,340.019806 
	C264.031738,340.308319 261.999207,340.596832 259.387939,340.705872 
	C258.189026,340.340790 257.568848,340.155243 256.703430,339.743958 
	C251.025635,333.993744 247.780106,334.066895 245.555267,339.830078 
	C216.043854,339.935272 186.996536,339.963898 157.949234,339.992493 
	C155.458252,338.628876 153.402130,336.993774 154.406525,333.228271 
	C155.199112,331.665863 155.600891,330.567078 156.002686,329.468292 
	C156.104004,329.312622 156.237671,329.193146 156.834503,329.159851 
	C157.858948,329.374786 158.452591,329.539795 159.330200,330.014465 
	C168.369400,330.519958 177.124298,330.758179 185.880569,330.831848 
	C186.587311,330.837769 187.303528,329.714111 188.038254,328.834167 
	C188.038727,328.366180 188.016296,328.179413 187.993851,327.992645 
z"/>
<path fill="#0C161E" opacity="1.000000" stroke="none" 
	d="
M309.979187,328.987061 
	C309.331482,329.011230 308.683746,329.035400 307.788269,328.658386 
	C307.671051,317.171936 307.801636,306.086639 308.042145,294.543030 
	C307.970398,286.609528 307.788757,279.134399 307.691528,271.288483 
	C307.822876,265.274170 307.869751,259.630646 307.998199,253.525146 
	C307.957977,242.368561 307.836151,231.673935 307.845612,220.527802 
	C307.945770,209.016037 307.914673,197.955780 308.106140,186.566010 
	C308.331909,177.828293 308.335083,169.420074 308.425171,160.620850 
	C310.207581,154.746048 305.244110,152.486816 303.082703,148.568665 
	C304.553284,145.862885 307.082672,143.565033 303.279938,141.098862 
	C304.485718,140.106186 305.347260,139.396866 306.495270,138.653046 
	C307.136475,137.439331 307.491241,136.260117 307.935394,134.663635 
	C308.119720,132.835434 308.214661,131.424484 308.685242,130.010391 
	C311.703186,129.006088 314.345490,128.004944 316.989960,127.472198 
	C316.994446,136.596436 316.894501,145.254501 317.086243,153.906113 
	C317.124115,155.614761 318.284668,157.298523 318.927490,158.993774 
	C319.261169,166.681473 319.594879,174.369186 319.603241,182.616974 
	C318.847626,184.104004 318.417358,185.030960 317.739441,186.295105 
	C317.347534,200.695480 317.177399,214.758591 317.133728,228.822083 
	C317.131500,229.543304 318.214722,230.267883 318.866608,231.387970 
	C318.895569,232.857162 318.850464,233.929306 318.451721,235.157196 
	C317.727814,237.011414 317.140137,238.695160 317.023865,240.410828 
	C316.435791,249.089966 315.847870,257.773163 315.546997,266.464874 
	C315.470795,268.667114 315.027222,271.766602 318.879761,272.424927 
	C318.895142,274.911652 318.845673,276.962799 318.445709,279.161438 
	C316.530426,285.973755 317.026123,293.473511 309.665924,297.836334 
	C313.898010,301.777039 314.535492,305.690857 312.163239,310.286407 
	C311.019409,312.502258 310.313324,315.105316 310.085205,317.594971 
	C309.739868,321.363953 309.984985,325.186981 309.979187,328.987061 
M314.329742,138.325790 
	C314.433319,136.634735 314.618042,134.939148 314.524475,133.259064 
	C314.514282,133.075699 312.900787,132.981628 312.030945,132.846146 
	C312.341980,134.462723 312.627655,136.085037 312.989899,137.690063 
	C313.047699,137.946182 313.448914,138.124771 314.329742,138.325790 
M312.320618,150.258972 
	C311.891968,149.966278 311.463318,149.673569 311.034668,149.380875 
	C310.914551,149.663422 310.794434,149.945984 310.674316,150.228546 
	C311.106476,150.357101 311.538666,150.485657 312.320618,150.258972 
z"/>
<path fill="#131F24" opacity="1.000000" stroke="none" 
	d="
M200.332993,329.791779 
	C196.484650,330.258270 197.022873,327.457642 197.018295,325.214020 
	C196.984787,308.790588 196.996048,292.367096 196.995544,275.005920 
	C196.997894,246.651474 196.997894,219.234741 196.997894,191.818008 
	C196.530411,191.790466 196.062927,191.762909 195.595444,191.735352 
	C194.710098,192.952576 193.824738,194.169785 192.808640,195.566772 
	C191.911118,193.593750 191.221405,192.077515 190.531677,190.561279 
	C190.012665,190.657272 189.493668,190.753281 188.974670,190.849274 
	C188.974670,195.572571 188.974670,200.295853 188.661209,205.016571 
	C187.930832,205.021606 187.513931,205.029236 187.097015,205.036850 
	C187.100510,189.639465 187.104004,174.242096 187.466339,158.275085 
	C188.611755,156.890961 189.277130,155.564667 190.204590,155.345001 
	C196.242844,153.914856 195.245773,149.932770 193.928497,145.753311 
	C194.086929,145.512527 194.289154,145.317032 195.073456,145.023712 
	C196.402145,143.872238 197.192566,142.863892 197.982971,141.855530 
	C198.094498,141.591568 198.264832,141.373550 198.900146,140.986664 
	C199.583862,140.583450 199.812546,140.347687 199.992386,140.064590 
	C207.414368,133.149765 214.822144,126.219604 222.266815,119.329285 
	C224.550842,117.215340 226.935837,115.210472 229.903534,113.128418 
	C231.354767,113.734322 232.177078,114.367470 233.002838,115.342957 
	C233.266785,116.549370 233.527267,117.413429 233.787766,118.277496 
	C234.197784,118.050110 234.607803,117.822716 235.017838,117.595329 
	C234.345428,116.730064 233.673019,115.864799 233.059570,114.639160 
	C233.722183,112.178436 234.325851,110.078079 234.929520,107.977722 
	C234.929520,107.977722 234.933136,107.944908 235.317963,107.944107 
	C241.111313,104.994591 246.542267,106.616676 251.809784,108.086288 
	C251.371109,108.776108 251.094040,109.243134 250.584503,109.779968 
	C250.352020,109.849785 250.108780,110.269890 249.860413,110.371811 
	C249.380295,110.741501 249.148529,111.009277 248.709167,111.217102 
	C248.501572,111.157150 248.072311,111.087074 247.986862,110.781067 
	C244.442856,109.528297 244.442856,109.528297 241.435318,114.863243 
	C242.101959,114.991531 242.740295,115.114372 243.190048,115.522736 
	C235.996811,122.010384 228.992172,128.212494 221.743073,134.447357 
	C221.233124,134.872696 220.967621,135.265289 220.419601,135.767090 
	C219.707474,136.292297 219.277863,136.708282 218.644836,137.123779 
	C218.149399,137.239227 218.014236,137.453995 217.933044,137.795807 
	C217.830139,137.823975 217.773102,138.029587 217.475784,138.092529 
	C216.068619,139.365891 214.958771,140.576294 213.830078,141.798248 
	C213.811234,141.809830 213.787430,141.847092 213.467606,141.932907 
	C209.041687,145.890259 204.935577,149.761795 200.793579,153.677750 
	C200.757660,153.722168 200.830521,153.810135 200.416718,153.902344 
	C199.546127,155.146164 198.696777,156.297241 198.695236,157.449463 
	C198.683807,165.971985 198.841171,174.494766 198.843018,183.475861 
	C198.835617,197.947952 198.930664,211.961670 198.930084,226.438293 
	C198.879654,236.943893 198.924881,246.986572 198.879608,257.450317 
	C198.845322,259.590149 198.901535,261.308960 198.877228,263.489044 
	C198.747284,284.169250 198.669983,304.388184 198.706161,324.606934 
	C198.708801,326.082886 199.533569,327.557373 200.052719,329.228302 
	C200.129318,329.424042 200.332993,329.791779 200.332993,329.791779 
z"/>
<path fill="#111A1F" opacity="1.000000" stroke="none" 
	d="
M306.208832,138.687546 
	C305.347260,139.396866 304.485718,140.106186 303.279938,141.098862 
	C307.082672,143.565033 304.553284,145.862885 302.783630,148.448318 
	C300.626312,147.162933 298.825836,145.667892 297.004639,144.085388 
	C296.983948,143.997940 296.804291,144.002487 296.700195,143.741119 
	C296.121552,143.209930 295.647064,142.940109 295.021851,142.431824 
	C294.266510,141.762070 293.661926,141.330780 292.953522,140.639297 
	C292.372803,140.114807 291.895874,139.850479 291.386597,139.650238 
	C291.354248,139.714310 291.358063,139.570816 291.271729,139.311737 
	C290.881012,138.871033 290.576599,138.689407 290.174316,138.332703 
	C290.076447,138.157623 289.714600,137.984421 289.633667,137.730286 
	C289.091461,137.231155 288.630157,136.986160 288.011414,136.453796 
	C285.778992,134.581238 283.704102,132.996033 281.484558,131.114746 
	C278.893890,128.883102 276.447876,126.947525 273.719971,124.842552 
	C272.344757,123.443817 271.251465,122.214485 270.502930,121.010712 
	C272.216248,121.503647 273.584869,121.971039 276.234314,122.875847 
	C278.091095,119.327927 280.519073,115.764023 281.820251,111.827667 
	C282.701233,109.162460 281.997650,105.973488 282.002808,103.018768 
	C283.640656,102.354439 285.266479,101.152481 286.918335,101.115593 
	C295.706543,100.919357 304.513672,100.765312 313.284210,101.201363 
	C315.251465,101.299164 317.098450,103.815300 318.663239,105.526794 
	C316.577972,104.657280 315.237732,102.231316 312.504120,104.430878 
	C311.868988,104.941925 310.331604,104.442085 309.236084,104.252670 
	C301.974945,102.997162 300.799225,103.689583 297.585144,111.080437 
	C290.713348,111.281822 290.713348,111.281822 290.985443,118.411232 
	C290.381561,122.544357 291.720490,125.214661 294.812744,127.520821 
	C298.723083,130.437103 302.222351,133.904556 305.903931,137.400208 
	C306.008881,138.006592 306.108856,138.347076 306.208832,138.687546 
M288.347931,123.226799 
	C288.137512,123.570953 287.927094,123.915100 287.716644,124.259239 
	C288.009216,124.314339 288.301819,124.369431 288.594391,124.424530 
	C288.656616,124.044090 288.718842,123.663643 288.347931,123.226799 
z"/>
<path fill="#070B0D" opacity="1.000000" stroke="none" 
	d="
M310.239807,329.229797 
	C309.984985,325.186981 309.739868,321.363953 310.085205,317.594971 
	C310.313324,315.105316 311.019409,312.502258 312.163239,310.286407 
	C314.535492,305.690857 313.898010,301.777039 309.665924,297.836334 
	C317.026123,293.473511 316.530426,285.973755 318.507507,279.605225 
	C318.961151,290.556091 319.002441,301.210602 319.043762,311.865143 
	C319.367584,316.855804 319.691376,321.846497 319.757660,327.530640 
	C320.760345,328.790466 322.010529,329.820465 323.282379,329.848022 
	C331.592773,330.027588 339.907806,329.990143 348.221344,330.023621 
	C348.472931,330.471100 348.724518,330.918579 349.124695,331.963165 
	C349.199951,334.374054 349.126648,336.187836 349.053314,338.001617 
	C349.053314,338.001617 349.039764,338.034668 349.034912,338.052917 
	C339.171997,338.379364 329.312164,338.642853 319.456726,339.020538 
	C316.091461,339.149506 313.760529,338.777435 313.773926,334.385895 
	C313.778931,332.751465 311.654053,331.110535 310.239807,329.229797 
z"/>
<path fill="#172024" opacity="1.000000" stroke="none" 
	d="
M281.671112,103.216270 
	C281.997650,105.973488 282.701233,109.162460 281.820251,111.827667 
	C280.519073,115.764023 278.091095,119.327927 276.234314,122.875847 
	C273.584869,121.971039 272.216248,121.503647 270.442627,121.010193 
	C270.037567,120.984123 270.037415,120.863731 269.918213,120.556725 
	C269.279510,119.882874 268.759949,119.516037 267.922363,119.118004 
	C265.723511,117.582016 263.910126,115.981880 261.946747,114.593895 
	C258.672150,112.278946 255.301559,110.099800 251.971375,107.863495 
	C246.542267,106.616676 241.111313,104.994591 235.327942,107.930954 
	C240.633682,103.697739 246.074905,99.062721 252.161697,95.544708 
	C253.699982,94.655617 257.681671,96.823296 259.877075,98.470596 
	C265.516174,102.701889 270.730347,107.494621 276.223206,111.928070 
	C278.595306,113.842636 279.664581,112.656235 280.000946,109.976753 
	C280.278259,107.767899 280.880920,105.599876 281.671112,103.216270 
z"/>
<path fill="#272D2D" opacity="1.000000" stroke="none" 
	d="
M187.075302,205.501740 
	C187.513931,205.029236 187.930832,205.021606 188.664185,205.482849 
	C188.996887,212.296387 189.013153,218.641098 189.018051,225.455048 
	C189.013229,231.619812 189.019760,237.315353 189.021835,243.478821 
	C189.032455,253.971985 189.047546,263.997192 189.062637,274.022400 
	C189.033646,289.006134 189.020676,303.989899 188.954742,318.973480 
	C188.946777,320.781342 188.652359,322.587982 188.234268,324.729950 
	C187.662918,323.479218 187.074951,321.894043 187.073090,320.308167 
	C187.028549,282.194366 187.046753,244.080490 187.075302,205.501740 
z"/>
<path fill="#0C161E" opacity="1.000000" stroke="none" 
	d="
M298.009338,110.995071 
	C300.799225,103.689583 301.974945,102.997162 309.236084,104.252670 
	C310.331604,104.442085 311.868988,104.941925 312.504120,104.430878 
	C315.237732,102.231316 316.577972,104.657280 318.643982,105.915375 
	C318.975525,107.058212 318.988739,108.121162 318.688416,109.804764 
	C317.911682,114.949356 317.448517,119.473305 316.628906,123.985962 
	C313.891449,123.367897 311.791321,123.116875 310.905121,126.309845 
	C310.698944,127.052490 309.199707,127.436218 308.166016,127.548111 
	C308.009186,124.072784 307.981812,121.034431 308.153229,117.682663 
	C309.848663,112.403542 306.796387,111.631073 302.901001,111.312599 
	C302.161743,111.155693 301.512177,111.239296 300.502319,111.399933 
	C299.431152,111.316330 298.720245,111.155701 298.009338,110.995071 
M311.626404,111.606636 
	C311.626404,114.457687 311.626404,117.308746 311.626404,120.246391 
	C314.682159,117.298454 314.719635,116.618416 311.626404,111.606636 
z"/>
<path fill="#8B877D" opacity="1.000000" stroke="none" 
	d="
M319.415344,311.661011 
	C319.002441,301.210602 318.961151,290.556091 318.858032,279.457764 
	C318.845673,276.962799 318.895142,274.911652 318.930634,271.958984 
	C318.879578,259.038818 318.842468,247.020126 318.805359,235.001434 
	C318.850464,233.929306 318.895569,232.857162 318.927277,230.922699 
	C318.960297,216.047302 319.006683,202.034241 319.278870,188.017151 
	C319.504639,188.013138 319.947418,188.102158 319.947418,188.102158 
	C320.307190,190.347656 320.958679,192.590744 320.977417,194.839081 
	C321.070007,205.977356 321.095734,217.118225 320.960175,228.255936 
	C320.622559,255.990219 320.184631,283.723297 319.415344,311.661011 
z"/>
<path fill="#172024" opacity="1.000000" stroke="none" 
	d="
M286.204376,80.939690 
	C292.538422,81.443497 294.925720,84.716293 294.003265,91.043510 
	C293.417114,95.063957 290.103729,96.965851 285.387695,95.838455 
	C284.327362,95.584984 283.048828,95.080750 282.450500,94.266129 
	C280.236511,91.251953 282.449493,82.842827 286.204376,80.939690 
z"/>
<path fill="#172024" opacity="1.000000" stroke="none" 
	d="
M300.566345,89.599220 
	C299.733948,85.043800 302.544067,81.889069 305.554962,81.485916 
	C308.008362,81.157417 312.302368,83.687187 313.239899,85.985703 
	C314.178497,88.286804 312.726685,92.458023 310.955963,94.756737 
	C308.380829,98.099724 302.968597,95.413132 300.566345,89.599220 
z"/>
<path fill="#3E403F" opacity="1.000000" stroke="none" 
	d="
M256.948669,339.969666 
	C257.568848,340.155243 258.189026,340.340790 259.015930,340.785950 
	C259.130219,357.740997 259.047241,374.436493 258.931580,391.131805 
	C258.919098,392.936737 258.717102,394.740356 257.996368,396.855957 
	C257.164337,397.155029 256.938934,397.142670 256.773834,396.649597 
	C256.872314,377.435822 256.910492,358.702728 256.948669,339.969666 
z"/>
<path fill="#111A1B" opacity="1.000000" stroke="none" 
	d="
M316.985352,123.997253 
	C317.448517,119.473305 317.911682,114.949356 318.700317,110.203049 
	C319.008148,126.006905 318.990540,142.033112 318.950195,158.526550 
	C318.284668,157.298523 317.124115,155.614761 317.086243,153.906113 
	C316.894501,145.254501 316.994446,136.596436 316.993195,127.096329 
	C316.991302,125.500435 316.988312,124.748848 316.985352,123.997253 
z"/>
<path fill="#8B877D" opacity="1.000000" stroke="none" 
	d="
M158.185287,340.358032 
	C186.996536,339.963898 216.043854,339.935272 245.671906,340.014221 
	C246.467987,340.333069 246.594681,340.588318 246.458679,340.845917 
	C246.284653,340.804321 245.990189,341.007721 245.990189,341.007721 
	C218.616272,340.989990 191.242340,340.976501 163.868439,340.944702 
	C162.052658,340.942596 160.237030,340.800507 158.185287,340.358032 
z"/>
<path fill="#172024" opacity="1.000000" stroke="none" 
	d="
M246.026672,386.987061 
	C246.026184,377.968689 246.025711,368.950348 246.289795,359.589691 
	C247.033768,359.498138 247.513138,359.748871 248.003784,360.468201 
	C248.012695,369.959167 248.010330,378.981537 247.754669,387.887787 
	C247.009811,387.510101 246.518250,387.248566 246.026672,386.987061 
z"/>
<path fill="#3E403F" opacity="1.000000" stroke="none" 
	d="
M347.951477,329.718445 
	C339.907806,329.990143 331.592773,330.027588 323.282379,329.848022 
	C322.010529,329.820465 320.760345,328.790466 319.765991,327.968811 
	C327.237091,327.786591 334.445740,327.758118 341.645447,327.997833 
	C343.670990,328.065308 345.670288,328.919830 347.951477,329.718445 
z"/>
<path fill="#0B1113" opacity="1.000000" stroke="none" 
	d="
M246.013885,387.414062 
	C246.518250,387.248566 247.009811,387.510101 247.955917,388.135773 
	C248.493607,398.175354 249.445801,399.165100 256.713531,397.130280 
	C256.938934,397.142670 257.164337,397.155029 257.727570,397.193970 
	C256.577362,401.702759 252.816742,400.871704 248.501770,401.065491 
	C247.673477,396.685211 246.837280,392.263123 246.013885,387.414062 
z"/>
<path fill="#272D2D" opacity="1.000000" stroke="none" 
	d="
M193.590851,145.858871 
	C195.245773,149.932770 196.242844,153.914856 190.204590,155.345001 
	C189.277130,155.564667 188.611755,156.890961 187.510040,157.801971 
	C187.040787,152.817093 189.791794,149.210449 193.590851,145.858871 
z"/>
<path fill="#8B877D" opacity="1.000000" stroke="none" 
	d="
M266.274780,340.395752 
	C281.821838,340.100677 297.579437,340.181549 313.581970,340.594116 
	C298.046387,340.874420 282.265869,340.823059 266.274780,340.395752 
z"/>
<path fill="#8B877D" opacity="1.000000" stroke="none" 
	d="
M159.046249,329.704773 
	C158.452591,329.539795 157.858948,329.374786 156.964508,329.121063 
	C158.340714,328.706604 160.013458,328.126190 161.695450,328.098083 
	C170.149231,327.956635 178.605438,327.959442 187.527313,327.952118 
	C188.016296,328.179413 188.038727,328.366180 187.640076,328.909912 
	C177.828064,329.412842 168.437149,329.558807 159.046249,329.704773 
z"/>
<path fill="#272D2D" opacity="1.000000" stroke="none" 
	d="
M247.992493,359.999603 
	C247.513138,359.748871 247.033768,359.498138 246.316513,359.121399 
	C246.048889,353.311127 246.019135,347.626801 245.989792,341.475098 
	C245.990189,341.007721 246.284653,340.804321 246.801758,341.123779 
	C247.543396,347.628693 247.767944,353.814148 247.992493,359.999603 
z"/>
<path fill="#172024" opacity="1.000000" stroke="none" 
	d="
M232.999390,115.000610 
	C232.177078,114.367470 231.354767,113.734322 230.221649,113.031586 
	C231.393738,111.412666 232.876617,109.863350 234.644501,108.145874 
	C234.325851,110.078079 233.722183,112.178436 233.059265,114.639389 
	C233.000000,115.000000 232.999390,115.000610 232.999390,115.000610 
z"/>
<path fill="#0B1113" opacity="1.000000" stroke="none" 
	d="
M349.397156,337.947266 
	C349.126648,336.187836 349.199951,334.374054 349.157776,332.223724 
	C351.980316,333.574371 353.602173,335.414673 349.397156,337.947266 
z"/>
<path fill="#0E1618" opacity="1.000000" stroke="none" 
	d="
M319.958557,187.676163 
	C319.947418,188.102158 319.504639,188.013138 319.054688,187.818130 
	C318.398834,187.068054 318.192932,186.512985 317.987061,185.957901 
	C318.417358,185.030960 318.847626,184.104004 319.587280,183.084274 
	C319.920959,184.411041 319.945312,185.830612 319.958557,187.676163 
z"/>
<path fill="#272D2D" opacity="1.000000" stroke="none" 
	d="
M197.703400,142.030029 
	C197.192566,142.863892 196.402145,143.872238 195.267639,144.937958 
	C195.756958,144.065048 196.590378,143.134781 197.703400,142.030029 
z"/>
<path fill="#3E403F" opacity="1.000000" stroke="none" 
	d="
M155.767731,329.732056 
	C155.600891,330.567078 155.199112,331.665863 154.428589,332.835083 
	C154.550858,331.935608 155.041824,330.965698 155.767731,329.732056 
z"/>
<path fill="#272D2D" opacity="1.000000" stroke="none" 
	d="
M199.767334,140.170105 
	C199.812546,140.347687 199.583862,140.583450 199.083817,140.886078 
	C199.043198,140.716339 199.270187,140.474777 199.767334,140.170105 
z"/>
<path fill="#000000" opacity="1.000000" stroke="none" 
	d="
M263.998108,287.996063 
	C267.638611,289.757904 266.962036,293.113464 267.023193,297.082092 
	C267.013855,308.274506 267.006500,318.580719 266.619659,328.927155 
	C259.822205,328.975800 253.383698,328.672913 246.993042,329.095032 
	C242.215698,329.410553 240.228928,327.837677 240.921997,322.618225 
	C240.950516,314.112122 240.936615,306.078644 240.942429,297.633575 
	C241.004150,295.849426 241.046173,294.476868 241.317352,292.859070 
	C241.798126,291.760437 242.049728,290.907104 242.441193,289.939819 
	C242.752396,289.657013 242.890930,289.464569 243.367935,289.153259 
	C250.348465,285.962463 257.073395,285.073547 263.998108,287.996063 
M254.922302,303.496246 
	C254.484756,304.828094 254.047211,306.159973 253.629990,307.429932 
	C258.676056,312.038910 262.870239,311.864380 264.459015,306.812347 
	C264.945618,305.265015 264.373230,302.370300 263.235962,301.552551 
	C261.288452,300.152130 258.529480,299.822540 256.054108,299.331512 
	C255.870895,299.295166 255.228790,301.572235 254.922302,303.496246 
z"/>
<path fill="#0574C5" opacity="1.000000" stroke="none" 
	d="
M307.932220,295.001373 
	C307.801636,306.086639 307.671051,317.171936 307.464233,328.666840 
	C305.881897,329.089691 304.375793,329.102905 301.993805,329.090271 
	C297.410095,329.158478 293.702271,329.252563 289.994415,329.346649 
	C286.974792,329.207825 283.955170,329.069031 280.399109,328.572571 
	C279.229156,327.821686 278.595642,327.428497 277.962158,327.035309 
	C277.962158,327.035309 277.652283,327.066681 277.643555,326.749695 
	C277.569000,325.233765 277.503204,324.034790 277.437378,322.835846 
	C277.496246,322.464844 277.555115,322.093872 277.697815,321.099304 
	C277.973846,318.664185 278.166077,316.852631 278.621155,314.944946 
	C278.737671,313.886353 278.591339,312.923828 278.353333,311.513031 
	C278.388214,306.377594 278.514740,301.690430 279.115723,297.002716 
	C283.338470,297.334442 287.136383,298.210358 290.823547,297.873474 
	C296.565979,297.348846 302.233154,296.000610 307.932220,295.001373 
z"/>
<path fill="#0E89CF" opacity="1.000000" stroke="none" 
	d="
M200.654907,329.709534 
	C200.332993,329.791779 200.129318,329.424042 200.063217,328.757812 
	C199.996582,324.425598 200.022934,320.759369 199.988281,317.093719 
	C199.950806,313.128662 199.384674,308.831604 205.852158,310.654602 
	C206.739578,310.904755 208.093094,310.062592 209.041733,309.438721 
	C213.544525,306.477142 217.938019,303.348297 222.462189,300.420837 
	C224.496597,299.104431 226.745392,298.119324 228.973541,297.321655 
	C229.016998,298.117615 228.983841,298.575775 228.772690,299.195129 
	C228.726913,299.894897 228.859131,300.433533 229.073608,301.436707 
	C228.868927,311.137360 228.581955,320.373474 228.294983,329.609558 
	C225.257828,329.600067 222.220673,329.590576 218.582123,329.546234 
	C217.521179,329.600098 217.061630,329.688812 216.602081,329.777527 
	C215.745682,329.721558 214.889282,329.665558 213.516983,329.541870 
	C212.699677,329.354706 212.389587,329.265259 211.794220,328.931580 
	C209.009018,328.940369 206.500412,329.223480 203.724091,329.530884 
	C203.290649,329.623291 203.124908,329.691467 202.959167,329.759613 
	C202.298386,329.715515 201.637604,329.671417 200.654907,329.709534 
z"/>
<path fill="#0E1618" opacity="1.000000" stroke="none" 
	d="
M189.417099,274.152771 
	C189.047546,263.997192 189.032455,253.971985 189.439163,243.472656 
	C193.970840,243.411255 195.641281,242.135803 194.275894,237.673874 
	C193.584061,235.413055 193.890091,232.789734 194.026520,230.346039 
	C194.230011,226.700821 192.998001,224.628662 189.029419,224.985794 
	C189.013153,218.641098 188.996887,212.296387 188.977646,205.485413 
	C188.974670,200.295853 188.974670,195.572571 188.974670,190.849274 
	C189.493668,190.753281 190.012665,190.657272 190.531677,190.561279 
	C191.221405,192.077515 191.911118,193.593750 192.808640,195.566772 
	C193.824738,194.169785 194.710098,192.952576 195.595444,191.735352 
	C196.062927,191.762909 196.530411,191.790466 196.997894,191.818008 
	C196.997894,219.234741 196.997894,246.651474 196.993408,274.537720 
	C196.319855,276.153046 195.578949,277.263947 195.000046,278.453674 
	C194.294800,279.903107 193.725861,281.418854 191.978333,282.696930 
	C191.242752,279.892365 190.507156,277.087769 189.417099,274.152771 
M192.658218,212.864151 
	C192.497589,212.147385 192.336975,211.430618 192.176346,210.713852 
	C191.810135,210.866135 191.443909,211.018433 191.077698,211.170715 
	C191.473038,211.862289 191.868393,212.553879 192.658218,212.864151 
z"/>
<path fill="#070B0D" opacity="1.000000" stroke="none" 
	d="
M248.003769,360.468201 
	C247.767944,353.814148 247.543396,347.628693 246.975784,341.165375 
	C246.594681,340.588318 246.467987,340.333069 246.136002,339.937653 
	C247.780106,334.066895 251.025635,333.993744 256.703430,339.743958 
	C256.910492,358.702728 256.872314,377.435822 256.773834,396.649597 
	C249.445801,399.165100 248.493607,398.175354 248.209229,388.251923 
	C248.010330,378.981537 248.012695,369.959167 248.003769,360.468201 
z"/>
<path fill="#172024" opacity="1.000000" stroke="none" 
	d="
M264.121521,287.648132 
	C257.073395,285.073547 250.348465,285.962463 243.393036,288.798767 
	C244.027206,287.352448 245.007584,286.165375 246.368988,284.918457 
	C254.117645,282.908295 254.117065,282.908478 251.998413,275.621094 
	C251.953827,275.467773 251.969055,275.297028 252.412247,275.096313 
	C255.009048,274.928497 257.149994,274.798859 259.706726,274.644592 
	C265.981689,274.251801 270.116913,277.088837 273.191315,281.807129 
	C273.087372,281.909241 272.877228,282.111176 272.877228,282.111176 
	C272.550964,282.117279 271.951111,282.068848 271.937469,282.137238 
	C271.082672,286.427338 266.632935,285.335144 264.121521,287.648132 
z"/>
<path fill="#0E1618" opacity="1.000000" stroke="none" 
	d="
M241.088196,293.104340 
	C241.046173,294.476868 241.004150,295.849426 240.628754,297.715210 
	C239.865234,299.136963 239.435120,300.065430 239.004990,300.993896 
	C233.769547,302.197479 235.836197,306.866913 235.281998,309.873840 
	C234.483154,314.208099 235.077820,318.799225 235.077820,323.920624 
	C233.700760,322.028015 232.625839,320.550690 231.241089,318.633728 
	C230.940186,317.146301 230.949112,316.098511 231.214325,314.716095 
	C231.647690,311.266388 232.464447,308.021881 231.865814,305.063812 
	C230.695709,299.281921 236.216370,296.936340 237.567764,292.534210 
	C237.686874,292.146179 239.073135,292.147217 240.044144,292.187012 
	C240.507690,292.639130 240.797943,292.871735 241.088196,293.104340 
z"/>
<path fill="#272D2D" opacity="1.000000" stroke="none" 
	d="
M230.958038,315.050751 
	C230.949112,316.098511 230.940186,317.146301 230.932938,318.586182 
	C230.928055,321.547638 231.118546,324.139923 230.823441,326.675659 
	C230.695145,327.777893 229.568634,328.763947 228.595245,329.706177 
	C228.581955,320.373474 228.868927,311.137360 229.145508,301.115417 
	C229.073639,299.897705 229.012161,299.465820 228.950684,299.033966 
	C228.983841,298.575775 229.016998,298.117615 229.060333,296.896210 
	C229.586334,293.253937 230.102158,290.374878 230.716064,287.942535 
	C230.863098,289.589386 230.912048,290.789520 230.951950,292.458862 
	C230.947937,300.302307 230.952988,307.676514 230.958038,315.050751 
z"/>
<path fill="#0C161E" opacity="1.000000" stroke="none" 
	d="
M278.358307,315.041046 
	C278.166077,316.852631 277.973846,318.664185 277.617798,320.826080 
	C276.973999,319.340729 276.109344,317.511475 276.078644,315.668365 
	C275.919983,306.136658 275.974701,296.601410 276.007111,286.521729 
	C276.059235,285.976105 276.199738,285.797699 276.414734,286.027985 
	C277.097107,287.169525 277.564545,288.080811 278.013611,289.408234 
	C278.210571,292.217346 278.425934,294.610321 278.641296,297.003265 
	C278.514740,301.690430 278.388214,306.377594 278.204041,311.882324 
	C278.217072,313.480255 278.287689,314.260651 278.358307,315.041046 
z"/>
<path fill="#172024" opacity="1.000000" stroke="none" 
	d="
M266.999146,328.886963 
	C267.006500,318.580719 267.013855,308.274506 267.032166,297.504272 
	C267.689209,298.041626 268.880554,299.034546 268.896210,300.045654 
	C269.036682,309.105255 269.003601,318.168427 268.908478,327.229370 
	C268.899780,328.055511 268.102814,328.873413 267.318878,329.544922 
	C266.976929,329.225464 266.988037,329.056213 266.999146,328.886963 
z"/>
<path fill="#172024" opacity="1.000000" stroke="none" 
	d="
M239.006500,301.463104 
	C239.435120,300.065430 239.865234,299.136963 240.609039,298.126831 
	C240.936615,306.078644 240.950516,314.112122 240.614319,322.592102 
	C239.851334,323.034149 239.438431,323.029663 239.025543,323.025177 
	C239.019699,315.994232 239.013855,308.963257 239.006500,301.463104 
z"/>
<path fill="#000000" opacity="1.000000" stroke="none" 
	d="
M159.330200,330.014404 
	C168.437149,329.558807 177.828064,329.412842 187.617157,329.191101 
	C187.303528,329.714111 186.587311,330.837769 185.880569,330.831848 
	C177.124298,330.758179 168.369400,330.519958 159.330200,330.014404 
z"/>
<path fill="#3E403F" opacity="1.000000" stroke="none" 
	d="
M238.985352,323.362061 
	C239.438431,323.029663 239.851334,323.034149 240.571899,323.064758 
	C240.228928,327.837677 242.215698,329.410553 246.993042,329.095032 
	C253.383698,328.672913 259.822205,328.975800 266.619659,328.927155 
	C266.988037,329.056213 266.976929,329.225464 266.936462,329.646729 
	C266.907043,329.898804 266.919952,329.977936 266.487122,329.993195 
	C257.034882,329.914703 248.015518,329.820923 238.996155,329.727173 
	C238.979156,327.717773 238.962143,325.708374 238.985352,323.362061 
z"/>
<path fill="#000000" opacity="1.000000" stroke="none" 
	d="
M239.289795,330.039307 
	C248.015518,329.820923 257.034882,329.914703 266.521484,330.013794 
	C257.853607,330.129913 248.718521,330.240692 239.289795,330.039307 
z"/>
<path fill="#0C161E" opacity="1.000000" stroke="none" 
	d="
M290.166687,329.672974 
	C293.702271,329.252563 297.410095,329.158478 301.561768,329.203125 
	C298.116699,329.561005 294.227844,329.780121 290.166687,329.672974 
z"/>
<path fill="#168BC2" opacity="1.000000" stroke="none" 
	d="
M203.991806,329.506622 
	C206.500412,329.223480 209.009018,328.940369 211.792572,329.109863 
	C212.067505,329.562469 211.962631,329.904114 211.962631,329.904114 
	C210.899918,329.910950 209.837219,329.917816 207.980835,329.905762 
	C206.122040,329.760132 205.056931,329.633362 203.991806,329.506622 
z"/>
<path fill="#172024" opacity="1.000000" stroke="none" 
	d="
M275.987915,286.064453 
	C274.950226,286.263458 273.983917,286.374115 272.626038,286.529572 
	C272.732849,285.197937 272.830048,283.986359 272.902222,282.442993 
	C272.877228,282.111176 273.087372,281.909241 273.466858,281.917664 
	C274.541992,282.628540 275.237640,283.330933 275.949585,284.331360 
	C276.043854,285.018799 276.121796,285.408264 276.199738,285.797699 
	C276.199738,285.797699 276.059235,285.976105 275.987915,286.064453 
z"/>
<path fill="#0C161E" opacity="1.000000" stroke="none" 
	d="
M277.166199,323.038757 
	C277.503204,324.034790 277.569000,325.233765 277.489380,326.771484 
	C277.194244,325.820709 277.044617,324.531189 277.166199,323.038757 
z"/>
<path fill="#131F24" opacity="1.000000" stroke="none" 
	d="
M203.724091,329.530884 
	C205.056931,329.633362 206.122040,329.760132 207.585678,329.957947 
	C206.471298,330.110016 204.958389,330.190979 203.202332,330.015808 
	C203.124908,329.691467 203.290649,329.623291 203.724091,329.530884 
z"/>
<path fill="#0D6DA8" opacity="1.000000" stroke="none" 
	d="
M277.944305,327.374847 
	C278.595642,327.428497 279.229156,327.821686 279.952515,328.494141 
	C279.337036,328.420380 278.631744,328.067383 277.944305,327.374847 
z"/>
<path fill="#272D2D" opacity="1.000000" stroke="none" 
	d="
M217.052368,329.811676 
	C217.061630,329.688812 217.521179,329.600098 218.191330,329.636688 
	C218.102173,329.789948 217.802429,329.817902 217.052368,329.811676 
z"/>
<path fill="#272D2D" opacity="1.000000" stroke="none" 
	d="
M212.325439,329.895691 
	C211.962631,329.904114 212.067505,329.562469 212.069168,329.384216 
	C212.389587,329.265259 212.699677,329.354706 213.201324,329.613770 
	C213.163818,329.797943 212.926041,329.842621 212.325439,329.895691 
z"/>
<path fill="#128AB8" opacity="1.000000" stroke="none" 
	d="
M307.714355,220.979309 
	C307.836151,231.673935 307.957977,242.368561 307.601410,253.533417 
	C302.815308,254.694458 298.487854,255.286453 294.213013,256.141571 
	C293.062500,256.371735 292.071930,257.401581 290.584106,258.083923 
	C288.402405,258.128052 286.631134,258.046326 284.897675,258.264862 
	C284.541931,258.309723 284.327850,259.478088 284.024811,260.586121 
	C284.018646,265.694153 284.036102,270.344696 283.730103,275.019684 
	C282.976868,275.076965 282.547119,275.109772 282.088135,274.669647 
	C282.039246,271.377441 281.829529,268.543610 282.044189,265.742279 
	C282.374481,261.431641 280.636963,259.851624 276.294800,259.907440 
	C271.197632,259.972992 266.091370,259.334015 260.679321,258.921875 
	C260.245148,257.559509 260.120728,256.275787 260.392883,254.976273 
	C266.095825,253.736740 271.349335,251.893082 276.721100,251.434189 
	C284.827698,250.741684 286.760345,243.724884 291.440063,239.011688 
	C296.678406,239.817352 298.497742,237.868301 298.066772,233.000885 
	C297.686890,228.710632 297.933411,224.364929 298.248047,219.892120 
	C301.881409,218.326706 305.098969,217.435822 307.714355,220.979309 
z"/>
<path fill="#0B7BC2" opacity="1.000000" stroke="none" 
	d="
M279.115723,297.002716 
	C278.425934,294.610321 278.210571,292.217346 278.213867,289.168701 
	C278.282104,287.024109 278.131714,285.535278 278.234619,283.838440 
	C285.120483,284.089264 285.621094,283.493317 284.447144,277.018982 
	C287.789917,277.165924 290.695190,277.588898 293.577728,277.468323 
	C295.136017,277.403107 296.655518,276.409637 298.340332,275.695618 
	C298.386566,275.086273 298.284973,274.616272 298.134094,273.781738 
	C298.087555,272.926666 298.090302,272.436127 298.481567,271.972687 
	C301.782471,271.886292 304.694794,271.772766 307.607117,271.659271 
	C307.788757,279.134399 307.970398,286.609528 308.042145,294.543030 
	C302.233154,296.000610 296.565979,297.348846 290.823547,297.873474 
	C287.136383,298.210358 283.338470,297.334442 279.115723,297.002716 
z"/>
<path fill="#1593B4" opacity="1.000000" stroke="none" 
	d="
M307.845581,220.527802 
	C305.098969,217.435822 301.881409,218.326706 297.794067,219.870422 
	C292.668640,219.948563 288.341949,219.896820 284.027771,219.494965 
	C286.258423,215.345154 288.359131,211.470245 290.729767,207.768188 
	C292.848541,204.459457 292.278198,202.470337 288.734650,200.944870 
	C287.634155,200.471130 286.901520,199.142853 286.446167,198.131683 
	C289.614655,198.101776 292.337524,198.145981 295.069092,198.506622 
	C295.705627,199.279938 296.333435,199.736816 296.961273,200.193695 
	C297.520477,199.089523 298.576385,197.975357 298.554443,196.882858 
	C298.449066,191.631500 298.052551,186.385986 298.142517,180.965942 
	C301.357483,180.544968 304.189301,180.296448 307.030884,180.455017 
	C307.321594,182.873230 307.602600,184.884369 307.883545,186.895508 
	C307.914673,197.955780 307.945770,209.016037 307.845581,220.527802 
z"/>
<path fill="#43EECB" opacity="1.000000" stroke="none" 
	d="
M307.954437,117.996078 
	C307.981812,121.034431 308.009186,124.072784 308.039185,127.879128 
	C308.131042,129.102600 308.220337,129.558060 308.309601,130.013535 
	C308.214661,131.424484 308.119720,132.835434 307.706085,134.830566 
	C306.891235,135.987915 306.395081,136.561096 305.898926,137.134277 
	C302.222351,133.904556 298.723083,130.437103 294.812744,127.520821 
	C291.720490,125.214661 290.381561,122.544357 291.350830,118.470520 
	C297.189789,118.077286 302.572113,118.036682 307.954437,117.996078 
z"/>
<path fill="#0D6DA8" opacity="1.000000" stroke="none" 
	d="
M307.691559,271.288483 
	C304.694794,271.772766 301.782471,271.886292 298.501465,271.594971 
	C300.098175,261.808411 298.091248,258.111145 291.007935,258.064301 
	C292.071930,257.401581 293.062500,256.371735 294.213013,256.141571 
	C298.487854,255.286453 302.815308,254.694458 307.519806,253.995361 
	C307.869751,259.630646 307.822876,265.274170 307.691559,271.288483 
z"/>
<path fill="#070B0D" opacity="1.000000" stroke="none" 
	d="
M317.739441,186.295105 
	C318.192932,186.512985 318.398834,187.068054 318.828918,187.822144 
	C319.006683,202.034241 318.960297,216.047302 318.853241,230.525635 
	C318.214722,230.267883 317.131500,229.543304 317.133728,228.822083 
	C317.177399,214.758591 317.347534,200.695480 317.739441,186.295105 
z"/>
<path fill="#070B0D" opacity="1.000000" stroke="none" 
	d="
M318.451721,235.157196 
	C318.842468,247.020126 318.879578,259.038818 318.865784,271.523468 
	C315.027222,271.766602 315.470795,268.667114 315.546997,266.464874 
	C315.847870,257.773163 316.435791,249.089966 317.023865,240.410828 
	C317.140137,238.695160 317.727814,237.011414 318.451721,235.157196 
z"/>
<path fill="#27A8BA" opacity="1.000000" stroke="none" 
	d="
M297.025330,144.172852 
	C298.825836,145.667892 300.626312,147.162933 302.725891,148.778320 
	C305.244110,152.486816 310.207581,154.746048 308.153442,160.838272 
	C307.538086,166.977814 307.281342,172.508926 306.773712,177.710785 
	C306.339142,173.594803 306.155487,169.808121 305.980652,165.575943 
	C305.980591,162.768860 305.971649,160.407242 305.923889,157.697403 
	C304.275818,155.226318 302.666534,153.103470 300.897736,150.710754 
	C299.840515,149.309006 298.942871,148.177109 297.921997,146.761871 
	C297.540955,145.709976 297.283142,144.941422 297.025330,144.172852 
z"/>
<path fill="#0D6DA8" opacity="1.000000" stroke="none" 
	d="
M307.024628,178.040054 
	C307.281342,172.508926 307.538086,166.977814 308.066559,161.229279 
	C308.335083,169.420074 308.331909,177.828293 308.106140,186.566010 
	C307.602600,184.884369 307.321594,182.873230 307.043732,180.119537 
	C307.039459,178.931335 307.032043,178.485687 307.024628,178.040054 
z"/>
<path fill="#111A1F" opacity="1.000000" stroke="none" 
	d="
M308.685242,130.010391 
	C308.220337,129.558060 308.131042,129.102600 308.168610,128.316116 
	C309.199707,127.436218 310.698944,127.052490 310.905121,126.309845 
	C311.791321,123.116875 313.891449,123.367897 316.628906,123.985962 
	C316.988312,124.748848 316.991302,125.500435 316.991028,126.627907 
	C314.345490,128.004944 311.703186,129.006088 308.685242,130.010391 
z"/>
<path fill="#111A1F" opacity="1.000000" stroke="none" 
	d="
M314.010559,138.332489 
	C313.448914,138.124771 313.047699,137.946182 312.989899,137.690063 
	C312.627655,136.085037 312.341980,134.462723 312.030945,132.846146 
	C312.900787,132.981628 314.514282,133.075699 314.524475,133.259064 
	C314.618042,134.939148 314.433319,136.634735 314.010559,138.332489 
z"/>
<path fill="#33CBBE" opacity="1.000000" stroke="none" 
	d="
M305.903931,137.400208 
	C306.395081,136.561096 306.891235,135.987915 307.616699,135.247818 
	C307.491241,136.260117 307.136475,137.439331 306.495270,138.653046 
	C306.108856,138.347076 306.008881,138.006592 305.903931,137.400208 
z"/>
<path fill="#111A1F" opacity="1.000000" stroke="none" 
	d="
M312.145721,150.436584 
	C311.538666,150.485657 311.106476,150.357101 310.674316,150.228546 
	C310.794434,149.945984 310.914551,149.663422 311.034668,149.380875 
	C311.463318,149.673569 311.891968,149.966278 312.145721,150.436584 
z"/>
<path fill="#168BC2" opacity="1.000000" stroke="none" 
	d="
M230.617966,287.495819 
	C230.102158,290.374878 229.586334,293.253937 228.983704,296.558441 
	C226.745392,298.119324 224.496597,299.104431 222.462189,300.420837 
	C217.938019,303.348297 213.544525,306.477142 209.041733,309.438721 
	C208.093094,310.062592 206.739578,310.904755 205.852158,310.654602 
	C199.384674,308.831604 199.950806,313.128662 199.988281,317.093719 
	C200.022934,320.759369 199.996582,324.425598 199.986618,328.562073 
	C199.533569,327.557373 198.708801,326.082886 198.706161,324.606934 
	C198.669983,304.388184 198.747284,284.169250 199.125427,263.233582 
	C200.849045,261.809082 202.196716,260.654907 203.650253,260.501099 
	C205.689163,260.285309 207.806793,260.813538 209.968842,261.357483 
	C210.072510,262.832092 209.994797,263.986359 210.142578,265.110962 
	C210.632858,268.842407 211.204315,272.563232 211.929535,276.597290 
	C214.602005,277.054382 217.097473,277.122345 219.575684,277.365784 
	C226.117004,278.008392 226.694077,277.552002 227.058411,271.035614 
	C230.543411,271.612610 233.892151,272.191589 237.042450,273.323090 
	C238.051147,273.685394 238.534698,275.509705 239.137268,276.932190 
	C238.351776,277.918274 237.687561,278.637238 236.823364,279.379395 
	C236.355621,279.549561 236.236755,279.775085 236.048737,280.190674 
	C235.534180,280.492798 235.368805,280.763397 235.030792,281.242615 
	C234.175934,282.039642 233.624847,282.708221 232.910599,283.397034 
	C232.525177,283.550262 232.452881,283.740295 232.285645,284.229675 
	C231.566483,285.479889 231.092224,286.487854 230.617966,287.495819 
z"/>
<path fill="#33E0BD" opacity="1.000000" stroke="none" 
	d="
M221.987518,134.414612 
	C228.992172,128.212494 235.996811,122.010384 243.349518,115.586426 
	C243.697571,115.364594 243.999298,115.527626 244.006226,115.907135 
	C242.892059,119.119171 242.293777,122.345398 240.526962,124.691643 
	C237.897980,128.182785 234.191101,130.845184 231.405472,134.239822 
	C228.104462,138.262527 228.628403,141.629181 232.213654,143.425812 
	C232.210617,143.957474 232.161377,144.257172 232.047668,144.975037 
	C232.349884,146.935959 232.665268,148.470322 233.001328,150.409180 
	C233.928741,152.965393 234.541321,155.312943 235.812347,157.222122 
	C237.639709,159.967010 239.946426,162.392776 241.967087,165.317810 
	C240.511124,166.728683 239.174973,168.607468 237.755112,168.673004 
	C232.942078,168.895157 228.099258,168.346909 223.268188,168.353683 
	C220.707672,168.357269 218.127548,168.785645 215.595245,169.239655 
	C214.015182,169.522934 212.031189,171.096512 211.049179,170.567520 
	C206.460846,168.095856 203.227921,170.100784 200.040131,172.580460 
	C200.293961,166.009918 200.562241,159.910034 200.830505,153.810135 
	C200.830521,153.810135 200.757660,153.722168 201.148651,153.734344 
	C207.388962,151.598511 211.501648,147.662994 213.787430,141.847092 
	C213.787430,141.847092 213.811234,141.809830 214.174850,141.811630 
	C215.616669,140.552139 216.694885,139.290863 217.773102,138.029587 
	C217.773102,138.029587 217.830139,137.823975 218.120605,137.771515 
	C218.659149,137.596130 218.804871,137.397858 218.848251,137.124252 
	C219.277863,136.708282 219.707474,136.292297 220.669510,135.742493 
	C221.463806,135.210663 221.725662,134.812637 221.987518,134.414612 
z"/>
<path fill="#1A9CBB" opacity="1.000000" stroke="none" 
	d="
M209.890762,261.023529 
	C207.806793,260.813538 205.689163,260.285309 203.650253,260.501099 
	C202.196716,260.654907 200.849045,261.809082 199.205933,262.772278 
	C198.901535,261.308960 198.845322,259.590149 199.130127,257.132935 
	C199.835724,253.463379 200.200302,250.532257 200.380814,249.081161 
	C204.049271,249.434402 207.027023,249.721146 210.261444,250.246918 
	C211.800369,251.630844 213.258804,253.899490 214.335114,253.730759 
	C219.669296,252.894485 224.971878,251.643982 230.146713,250.079971 
	C233.506149,249.064651 236.908569,247.667648 239.770065,245.687698 
	C242.240372,243.978439 243.974030,241.204529 246.495972,238.921234 
	C251.638260,238.958359 256.317902,238.975525 260.997375,239.430847 
	C260.663544,244.910034 260.329956,249.951050 259.996338,254.992065 
	C260.120728,256.275787 260.245148,257.559509 260.632111,259.216309 
	C260.571472,260.072906 260.248230,260.556488 259.475464,261.022461 
	C247.658829,261.173431 249.102905,259.195068 249.020081,271.432556 
	C249.016754,271.923096 249.124710,272.414398 248.831772,273.046448 
	C247.984482,273.217804 247.486221,273.248047 246.988312,272.809448 
	C247.839920,266.225830 246.138580,261.316467 241.758957,259.040619 
	C238.198257,259.486267 235.971222,259.794006 233.737213,260.037506 
	C230.785889,260.359131 227.829117,260.630402 224.572510,260.671814 
	C221.230331,260.238800 218.190353,260.057281 214.851227,259.675720 
	C212.998322,259.991608 211.444534,260.507568 209.890762,261.023529 
z"/>
<path fill="#43EECB" opacity="1.000000" stroke="none" 
	d="
M232.218781,143.202240 
	C228.628403,141.629181 228.104462,138.262527 231.405472,134.239822 
	C234.191101,130.845184 237.897980,128.182785 240.526962,124.691643 
	C242.293777,122.345398 242.892059,119.119171 244.228989,115.634430 
	C245.695114,113.965591 246.945374,112.948982 248.354431,111.870743 
	C248.714066,111.682098 248.848572,111.504738 248.916763,111.277046 
	C249.148529,111.009277 249.380295,110.741501 249.998962,110.434746 
	C250.724533,110.303879 250.868225,110.075340 250.816956,109.710159 
	C251.094040,109.243134 251.371109,108.776108 251.809784,108.086288 
	C255.301559,110.099800 258.672150,112.278946 261.946747,114.593895 
	C263.910126,115.981880 265.723511,117.582016 268.045776,119.422256 
	C269.003998,120.126373 269.520691,120.495049 270.037415,120.863731 
	C270.037415,120.863731 270.037567,120.984123 270.097870,120.984634 
	C271.251465,122.214485 272.344757,123.443817 273.702667,125.088249 
	C273.967285,125.503349 273.965576,125.995964 273.621094,126.061836 
	C270.620087,127.240875 269.357117,128.786636 271.063599,131.744934 
	C271.654419,132.769180 271.556122,134.190933 271.522369,135.197632 
	C269.814392,134.012558 268.356628,133.060959 266.946991,132.056519 
	C266.995117,132.003662 266.890961,132.101822 266.846436,131.745941 
	C265.651886,130.844376 264.501923,130.298676 263.177277,129.710480 
	C263.002625,129.667969 262.744354,129.417877 262.568298,129.078674 
	C256.908508,126.251083 251.462799,125.479622 245.948120,129.215820 
	C245.781876,129.331711 245.386292,129.419815 245.021759,129.335022 
	C241.620102,130.181290 238.284271,130.760406 237.989166,134.952988 
	C237.995010,134.990936 237.918961,135.001724 237.614532,135.077530 
	C237.073883,135.891571 236.837662,136.629791 236.598175,137.423752 
	C236.594925,137.479477 236.486526,137.506149 236.151093,137.503403 
	C234.616699,139.401184 233.417740,141.301712 232.218781,143.202240 
z"/>
<path fill="#31BFB4" opacity="1.000000" stroke="none" 
	d="
M199.025726,225.975372 
	C198.930664,211.961670 198.835617,197.947952 199.058746,183.329620 
	C199.602692,182.463135 199.828445,182.201279 200.459991,181.956573 
	C204.267029,181.669678 207.668274,181.365662 211.064178,181.406631 
	C211.095673,182.212387 211.132523,182.673157 211.161591,183.099670 
	C211.153824,183.065399 211.148010,183.127167 211.000992,183.188965 
	C210.853973,183.250778 210.795792,183.669250 210.795792,183.669250 
	C210.795792,183.669250 211.168198,183.940979 211.213196,184.175735 
	C211.258209,184.410492 211.250427,184.888489 210.974777,185.103668 
	C211.009918,187.221466 211.320709,189.124069 211.643707,191.426880 
	C211.536285,194.162735 211.416672,196.498413 211.061035,199.063843 
	C211.157013,205.482559 206.750275,209.734970 203.297989,213.485764 
	C200.655411,216.356873 199.949203,218.661194 200.041626,222.309158 
	C199.692612,223.771622 199.359177,224.873505 199.025726,225.975372 
z"/>
<path fill="#27A8BA" opacity="1.000000" stroke="none" 
	d="
M198.930084,226.438293 
	C199.359177,224.873505 199.692612,223.771622 200.398529,222.385849 
	C204.154007,222.392059 207.537018,222.682159 210.954071,223.425720 
	C210.716278,226.993576 210.456360,230.109070 210.168945,233.222015 
	C209.934204,235.764618 209.572205,238.350143 213.018768,239.484406 
	C212.009293,243.256592 211.007034,246.632233 210.004776,250.007889 
	C207.027023,249.721146 204.049271,249.434402 200.380814,249.081161 
	C200.200302,250.532257 199.835724,253.463379 199.220612,256.711884 
	C198.924881,246.986572 198.879654,236.943893 198.930084,226.438293 
z"/>
<path fill="#1AAAB2" opacity="1.000000" stroke="none" 
	d="
M213.467606,141.932907 
	C211.501648,147.662994 207.388962,151.598511 201.184570,153.689941 
	C204.935577,149.761795 209.041687,145.890259 213.467606,141.932907 
z"/>
<path fill="#33CBBE" opacity="1.000000" stroke="none" 
	d="
M200.054214,181.939438 
	C199.828445,182.201279 199.602692,182.463135 199.161209,182.871216 
	C198.841171,174.494766 198.683807,165.971985 198.695236,157.449463 
	C198.696777,156.297241 199.546127,155.146164 200.416702,153.902344 
	C200.562241,159.910034 200.293961,166.009918 200.027725,173.023743 
	C200.037918,176.604919 200.046066,179.272186 200.054214,181.939438 
z"/>
<path fill="#172024" opacity="1.000000" stroke="none" 
	d="
M248.195633,111.932358 
	C246.945374,112.948982 245.695114,113.965591 244.222076,115.254913 
	C243.999298,115.527626 243.697571,115.364594 243.538101,115.300903 
	C242.740295,115.114372 242.101959,114.991531 241.435318,114.863243 
	C244.442856,109.528297 244.442856,109.528297 247.986923,110.997009 
	C248.072433,111.518959 248.195633,111.932358 248.195633,111.932358 
z"/>
<path fill="#1AAAB2" opacity="1.000000" stroke="none" 
	d="
M217.475784,138.092529 
	C216.694885,139.290863 215.616669,140.552139 214.193695,141.800049 
	C214.958771,140.576294 216.068619,139.365891 217.475784,138.092529 
z"/>
<path fill="#172024" opacity="1.000000" stroke="none" 
	d="
M233.000305,114.999771 
	C233.673019,115.864799 234.345428,116.730064 235.017838,117.595329 
	C234.607803,117.822716 234.197784,118.050110 233.787766,118.277496 
	C233.527267,117.413429 233.266785,116.549370 233.002838,115.342957 
	C232.999390,115.000610 233.000000,115.000000 233.000305,114.999771 
z"/>
<path fill="#1AAAB2" opacity="1.000000" stroke="none" 
	d="
M221.743073,134.447357 
	C221.725662,134.812637 221.463806,135.210663 220.952026,135.633270 
	C220.967621,135.265289 221.233124,134.872696 221.743073,134.447357 
z"/>
<path fill="#33E0BD" opacity="1.000000" stroke="none" 
	d="
M250.584488,109.779968 
	C250.868225,110.075340 250.724533,110.303879 250.247314,110.332825 
	C250.108780,110.269890 250.352020,109.849785 250.584488,109.779968 
z"/>
<path fill="#33E0BD" opacity="1.000000" stroke="none" 
	d="
M248.354431,111.870743 
	C248.195633,111.932358 248.072433,111.518959 248.072372,111.303017 
	C248.072311,111.087074 248.501572,111.157150 248.709167,111.217102 
	C248.848572,111.504738 248.714066,111.682098 248.354431,111.870743 
z"/>
<path fill="#1AAAB2" opacity="1.000000" stroke="none" 
	d="
M218.644836,137.123779 
	C218.804871,137.397858 218.659149,137.596130 218.223495,137.743347 
	C218.014236,137.453995 218.149399,137.239227 218.644836,137.123779 
z"/>
<path fill="#33CBBE" opacity="1.000000" stroke="none" 
	d="
M297.004639,144.085388 
	C297.283142,144.941422 297.540955,145.709976 297.593719,146.883026 
	C290.961060,146.489594 284.542664,145.590912 278.095886,145.003448 
	C277.138702,144.916214 276.047791,146.296524 274.802216,147.160492 
	C274.128601,147.882202 273.671570,148.441330 273.125183,148.608566 
	C273.051910,147.149002 273.068024,146.081329 273.291077,144.718109 
	C273.207184,142.056152 272.916412,139.689728 273.001709,137.274231 
	C279.473450,139.144928 281.768097,137.575912 281.144104,131.877380 
	C281.310181,131.726471 281.629181,131.410828 281.629181,131.410828 
	C283.704102,132.996033 285.778992,134.581238 288.105103,136.704514 
	C288.809052,137.489868 289.261841,137.737137 289.714600,137.984421 
	C289.714600,137.984421 290.076447,138.157623 290.256287,138.595963 
	C290.743408,139.213135 291.050751,139.391983 291.358063,139.570816 
	C291.358063,139.570816 291.354248,139.714310 291.452393,139.939026 
	C292.052795,140.408997 292.555054,140.654236 293.057312,140.899475 
	C293.661926,141.330780 294.266510,141.762070 295.122498,142.697693 
	C295.850708,143.468842 296.327484,143.735672 296.804291,144.002487 
	C296.804291,144.002487 296.983948,143.997940 297.004639,144.085388 
z"/>
<path fill="#33CBBE" opacity="1.000000" stroke="none" 
	d="
M308.153229,117.682655 
	C302.572113,118.036682 297.189789,118.077286 291.442078,118.058594 
	C290.713348,111.281822 290.713348,111.281822 297.585144,111.080437 
	C298.720245,111.155701 299.431152,111.316330 300.730164,111.580673 
	C301.875732,111.640625 302.433197,111.596870 302.990692,111.553116 
	C306.796387,111.631073 309.848663,112.403542 308.153229,117.682655 
z"/>
<path fill="#33CBBE" opacity="1.000000" stroke="none" 
	d="
M273.965576,125.995956 
	C273.965576,125.995964 273.967285,125.503349 273.984558,125.257652 
	C276.447876,126.947525 278.893890,128.883102 281.484558,131.114746 
	C281.629181,131.410828 281.310181,131.726471 280.812012,131.809113 
	C278.197723,129.926483 276.081665,127.961220 273.965576,125.995956 
z"/>
<path fill="#172024" opacity="1.000000" stroke="none" 
	d="
M288.564514,123.255005 
	C288.718842,123.663643 288.656616,124.044090 288.594391,124.424530 
	C288.301819,124.369431 288.009216,124.314339 287.716644,124.259247 
	C287.927094,123.915100 288.137512,123.570953 288.564514,123.255005 
z"/>
<path fill="#27A8BA" opacity="1.000000" stroke="none" 
	d="
M289.633667,137.730286 
	C289.261841,137.737137 288.809052,137.489868 288.262573,136.991882 
	C288.630157,136.986160 289.091461,137.231155 289.633667,137.730286 
z"/>
<path fill="#27A8BA" opacity="1.000000" stroke="none" 
	d="
M292.953522,140.639282 
	C292.555054,140.654236 292.052795,140.408997 291.484741,139.874969 
	C291.895874,139.850479 292.372803,140.114807 292.953522,140.639282 
z"/>
<path fill="#27A8BA" opacity="1.000000" stroke="none" 
	d="
M296.700195,143.741119 
	C296.327484,143.735672 295.850708,143.468842 295.273224,142.936157 
	C295.647064,142.940109 296.121552,143.209930 296.700195,143.741119 
z"/>
<path fill="#27A8BA" opacity="1.000000" stroke="none" 
	d="
M291.271729,139.311737 
	C291.050751,139.391983 290.743408,139.213135 290.354156,138.771027 
	C290.576599,138.689407 290.881012,138.871033 291.271729,139.311737 
z"/>
<path fill="#111A1F" opacity="1.000000" stroke="none" 
	d="
M269.918213,120.556725 
	C269.520691,120.495049 269.003998,120.126373 268.363831,119.453445 
	C268.759949,119.516037 269.279510,119.882874 269.918213,120.556725 
z"/>
<path fill="#131F24" opacity="1.000000" stroke="none" 
	d="
M189.018066,225.455048 
	C192.998001,224.628662 194.230011,226.700821 194.026520,230.346039 
	C193.890091,232.789734 193.584061,235.413055 194.275894,237.673874 
	C195.641281,242.135803 193.970840,243.411255 189.443634,243.004715 
	C189.019760,237.315353 189.013229,231.619812 189.018066,225.455048 
z"/>
<path fill="#111A1F" opacity="1.000000" stroke="none" 
	d="
M311.900330,111.776505 
	C314.719635,116.618416 314.682159,117.298454 311.626404,120.246391 
	C311.626404,117.308746 311.626404,114.457687 311.900330,111.776505 
z"/>
<path fill="#111A1F" opacity="1.000000" stroke="none" 
	d="
M302.901001,111.312607 
	C302.433197,111.596870 301.875732,111.640625 301.090424,111.503647 
	C301.512177,111.239296 302.161743,111.155693 302.901001,111.312607 
z"/>
<path fill="#0B1113" opacity="1.000000" stroke="none" 
	d="
M237.023346,279.356232 
	C237.687561,278.637238 238.351776,277.918274 239.467972,276.837646 
	C240.970932,276.058868 242.021942,275.641724 243.188507,275.381165 
	C243.498657,275.714752 243.719513,275.848297 244.108551,276.253693 
	C245.674469,279.197540 242.329056,282.811523 245.987946,284.978271 
	C245.007584,286.165375 244.027206,287.352448 243.021759,288.894043 
	C242.890930,289.464569 242.752396,289.657013 242.089874,289.954895 
	C241.022720,290.711792 240.446793,291.339661 239.870850,291.967529 
	C239.073135,292.147217 237.686874,292.146179 237.567764,292.534210 
	C236.216370,296.936340 230.695709,299.281921 231.865814,305.063812 
	C232.464447,308.021881 231.647690,311.266388 231.214325,314.716095 
	C230.952988,307.676514 230.947937,300.302307 231.345337,292.457886 
	C236.646164,292.565521 235.638153,287.027527 238.485077,285.481140 
	C237.434906,284.025482 236.384750,282.569824 235.334579,281.114166 
	C235.368805,280.763397 235.534180,280.492798 236.208115,280.108490 
	C236.786224,279.771484 236.932175,279.585327 237.023346,279.356232 
z"/>
<path fill="#172024" opacity="1.000000" stroke="none" 
	d="
M254.861176,303.135010 
	C255.228790,301.572235 255.870895,299.295166 256.054108,299.331512 
	C258.529480,299.822540 261.288452,300.152130 263.235962,301.552551 
	C264.373230,302.370300 264.945618,305.265015 264.459015,306.812347 
	C262.870239,311.864380 258.676056,312.038910 253.629990,307.429932 
	C254.047211,306.159973 254.484756,304.828094 254.861176,303.135010 
z"/>
<path fill="#172024" opacity="1.000000" stroke="none" 
	d="
M240.044159,292.187012 
	C240.446793,291.339661 241.022720,290.711792 241.949997,290.068848 
	C242.049728,290.907104 241.798126,291.760437 241.317352,292.859070 
	C240.797943,292.871735 240.507690,292.639130 240.044159,292.187012 
z"/>
<path fill="#0D6DA8" opacity="1.000000" stroke="none" 
	d="
M278.621155,314.944946 
	C278.287689,314.260651 278.217072,313.480255 278.295715,312.330566 
	C278.591339,312.923828 278.737671,313.886353 278.621155,314.944946 
z"/>
<path fill="#168BC2" opacity="1.000000" stroke="none" 
	d="
M228.772690,299.195129 
	C229.012161,299.465820 229.073639,299.897705 229.063232,300.650848 
	C228.859131,300.433533 228.726913,299.894897 228.772690,299.195129 
z"/>
<path fill="#131F24" opacity="1.000000" stroke="none" 
	d="
M192.460983,213.054810 
	C191.868393,212.553879 191.473038,211.862289 191.077698,211.170715 
	C191.443909,211.018433 191.810135,210.866135 192.176346,210.713852 
	C192.336975,211.430618 192.497589,212.147385 192.460983,213.054810 
z"/>
<path fill="#0F84BF" opacity="1.000000" stroke="none" 
	d="
M259.925018,261.040039 
	C260.248230,260.556488 260.571472,260.072906 260.941895,259.294952 
	C266.091370,259.334015 271.197632,259.972992 276.294800,259.907440 
	C280.636963,259.851624 282.374481,261.431641 282.044189,265.742279 
	C281.829529,268.543610 282.039246,271.377441 282.223328,274.901489 
	C282.925262,276.093719 283.462708,276.581177 284.000153,277.068634 
	C285.621094,283.493317 285.120483,284.089264 277.893616,283.825745 
	C276.843994,284.025085 276.388611,284.029236 275.933258,284.033356 
	C275.237640,283.330933 274.541992,282.628540 273.570801,281.815552 
	C270.116913,277.088837 265.981689,274.251801 259.591187,274.343750 
	C258.639404,273.312378 258.218903,272.557281 258.010132,271.491913 
	C258.789551,267.801117 259.357300,264.420593 259.925018,261.040039 
z"/>
<path fill="#0E1618" opacity="1.000000" stroke="none" 
	d="
M246.368988,284.918457 
	C242.329056,282.811523 245.674469,279.197540 244.109131,276.021576 
	C243.967789,275.474121 243.954376,275.008575 244.233627,274.883301 
	C244.911011,274.663361 245.309158,274.568665 246.142426,274.591980 
	C248.370483,274.851471 250.163437,274.992950 251.956390,275.134430 
	C251.969055,275.297028 251.953827,275.467773 251.998413,275.621094 
	C254.117065,282.908478 254.117645,282.908295 246.368988,284.918457 
z"/>
<path fill="#3E403F" opacity="1.000000" stroke="none" 
	d="
M252.412247,275.096313 
	C250.163437,274.992950 248.370483,274.851471 246.250854,274.400330 
	C246.278763,273.819855 246.633377,273.549072 246.987976,273.278259 
	C247.486221,273.248047 247.984482,273.217804 249.244614,273.023010 
	C252.603806,272.506317 255.201111,272.154205 257.798431,271.802124 
	C258.218903,272.557281 258.639404,273.312378 259.175415,274.368347 
	C257.149994,274.798859 255.009048,274.928497 252.412247,275.096313 
z"/>
<path fill="#0E1618" opacity="1.000000" stroke="none" 
	d="
M235.030792,281.242615 
	C236.384750,282.569824 237.434906,284.025482 238.485077,285.481140 
	C235.638153,287.027527 236.646164,292.565521 231.354401,291.988708 
	C230.912048,290.789520 230.863098,289.589386 230.716034,287.942535 
	C231.092224,286.487854 231.566483,285.479889 232.398865,284.151001 
	C232.897186,283.703186 233.002777,283.552094 233.073761,283.376801 
	C233.624847,282.708221 234.175934,282.039642 235.030792,281.242615 
z"/>
<path fill="#0D6DA8" opacity="1.000000" stroke="none" 
	d="
M275.949585,284.331360 
	C276.388611,284.029236 276.843994,284.025085 277.640320,284.033691 
	C278.131714,285.535278 278.282104,287.024109 278.232239,288.752502 
	C277.564545,288.080811 277.097107,287.169525 276.414734,286.027985 
	C276.121796,285.408264 276.043854,285.018799 275.949585,284.331360 
z"/>
<path fill="#1593B4" opacity="1.000000" stroke="none" 
	d="
M260.392883,254.976273 
	C260.329956,249.951050 260.663544,244.910034 261.217926,239.114960 
	C261.240967,235.906754 261.043243,233.452606 260.893738,230.764587 
	C260.941956,230.530716 260.890076,230.055939 261.149353,229.761993 
	C261.573029,227.616074 261.737457,225.764084 261.891846,223.891205 
	C261.881866,223.870300 261.857574,223.829987 262.212128,223.922226 
	C265.974670,226.203522 268.986023,228.411133 273.801147,227.495438 
	C277.978455,226.701019 281.930725,231.652252 282.096802,236.395996 
	C285.119537,237.518951 288.059448,238.272400 290.999390,239.025848 
	C286.760345,243.724884 284.827698,250.741684 276.721100,251.434189 
	C271.349335,251.893082 266.095825,253.736740 260.392883,254.976273 
z"/>
<path fill="#000000" opacity="1.000000" stroke="none" 
	d="
M284.053589,274.995239 
	C284.036102,270.344696 284.018646,265.694153 284.484619,260.527863 
	C288.534576,260.012115 292.101074,260.012115 295.679932,260.012115 
	C295.679932,265.341675 295.679932,270.025909 295.679932,274.995239 
	C291.581390,274.995239 287.817505,274.995239 284.053589,274.995239 
z"/>
<path fill="#509AB6" opacity="1.000000" stroke="none" 
	d="
M291.440063,239.011703 
	C288.059448,238.272400 285.119537,237.518951 282.440552,236.381958 
	C283.159271,235.965927 283.617065,235.933426 284.449829,236.095215 
	C288.447174,236.563828 292.069519,236.838181 295.590698,237.104858 
	C295.590698,231.519623 295.590698,226.836121 295.590698,221.784637 
	C291.443237,222.265244 287.738983,222.694489 283.758942,223.026886 
	C283.660522,221.901718 283.837921,220.873413 284.015289,219.845093 
	C288.341949,219.896820 292.668640,219.948563 297.449310,220.022003 
	C297.933411,224.364929 297.686890,228.710632 298.066772,233.000885 
	C298.497742,237.868301 296.678406,239.817352 291.440063,239.011703 
z"/>
<path fill="#509AB6" opacity="1.000000" stroke="none" 
	d="
M283.730103,275.019684 
	C287.817505,274.995239 291.581390,274.995239 295.679932,274.995239 
	C295.679932,270.025909 295.679932,265.341675 295.679932,260.012115 
	C292.101074,260.012115 288.534576,260.012115 284.508301,260.070374 
	C284.327850,259.478088 284.541931,258.309723 284.897675,258.264862 
	C286.631134,258.046326 288.402405,258.128052 290.584106,258.083923 
	C298.091248,258.111145 300.098175,261.808411 298.112915,271.567871 
	C298.090302,272.436127 298.087555,272.926666 298.113983,274.062256 
	C298.159637,275.083191 298.176086,275.459076 298.192535,275.834961 
	C296.655518,276.409637 295.136017,277.403107 293.577728,277.468323 
	C290.695190,277.588898 287.789917,277.165924 284.447144,277.018982 
	C283.462708,276.581177 282.925262,276.093719 282.252625,275.374390 
	C282.547119,275.109772 282.976868,275.076965 283.730103,275.019684 
z"/>
<path fill="#0D6DA8" opacity="1.000000" stroke="none" 
	d="
M298.340332,275.695648 
	C298.176086,275.459076 298.159637,275.083191 298.163269,274.426758 
	C298.284973,274.616272 298.386566,275.086273 298.340332,275.695648 
z"/>
<path fill="#179FB0" opacity="1.000000" stroke="none" 
	d="
M284.074860,235.900940 
	C283.617065,235.933426 283.159271,235.965927 282.357727,236.012451 
	C281.930725,231.652252 277.978455,226.701019 273.801147,227.495438 
	C268.986023,228.411133 265.974670,226.203522 262.149536,223.631638 
	C261.143677,222.181595 260.555023,221.114365 260.055298,219.713562 
	C263.074188,217.424408 265.823944,215.090958 268.970764,213.590012 
	C276.036835,210.219620 282.613281,206.595764 284.399536,197.956329 
	C285.148163,198.065460 285.574310,198.135620 286.000488,198.205780 
	C286.901520,199.142853 287.634155,200.471130 288.734650,200.944870 
	C292.278198,202.470337 292.848541,204.459457 290.729767,207.768188 
	C288.359131,211.470245 286.258423,215.345154 284.027771,219.494965 
	C283.837921,220.873413 283.660522,221.901718 283.733704,223.477661 
	C284.014435,227.983841 284.044647,231.942383 284.074860,235.900940 
M281.467102,224.495468 
	C281.467102,224.495468 281.514801,224.475555 281.467102,224.495468 
z"/>
<path fill="#1AAAB2" opacity="1.000000" stroke="none" 
	d="
M306.773712,177.710785 
	C307.032043,178.485687 307.039459,178.931335 307.033997,179.712448 
	C304.189301,180.296448 301.357483,180.544968 297.749237,180.943878 
	C295.632233,181.139206 294.291626,181.184128 292.557983,181.180634 
	C289.436951,181.050003 286.708923,180.967804 284.160767,180.608490 
	C291.551025,175.561386 298.761414,170.791412 305.971802,166.021423 
	C306.155487,169.808121 306.339142,173.594803 306.773712,177.710785 
z"/>
<path fill="#000000" opacity="1.000000" stroke="none" 
	d="
M286.446167,198.131683 
	C285.574310,198.135620 285.148163,198.065460 284.373657,197.781174 
	C284.025299,197.567047 283.959808,197.219833 284.348816,196.991623 
	C284.828522,194.317200 285.221649,191.836304 284.945923,189.432114 
	C284.398438,184.658386 285.820618,182.145767 291.047211,182.993240 
	C291.676178,183.095215 292.350677,182.916107 293.434265,182.941345 
	C294.528381,183.313980 295.777466,183.630219 295.769073,183.908447 
	C295.625061,188.671829 295.325623,193.430496 295.060364,198.190186 
	C292.337524,198.145981 289.614655,198.101776 286.446167,198.131683 
z"/>
<path fill="#509AB6" opacity="1.000000" stroke="none" 
	d="
M295.069092,198.506622 
	C295.325623,193.430496 295.625061,188.671829 295.769073,183.908447 
	C295.777466,183.630219 294.528381,183.313980 293.433472,182.666901 
	C292.985352,181.955276 292.968201,181.592148 292.951019,181.229034 
	C294.291626,181.184128 295.632233,181.139206 297.366119,181.116333 
	C298.052551,186.385986 298.449066,191.631500 298.554443,196.882858 
	C298.576385,197.975357 297.520477,199.089523 296.961273,200.193695 
	C296.333435,199.736816 295.705627,199.279938 295.069092,198.506622 
z"/>
<path fill="#22C1B9" opacity="1.000000" stroke="none" 
	d="
M273.214539,149.000458 
	C273.671570,148.441330 274.128601,147.882202 275.033325,147.450226 
	C276.631653,149.830994 274.975006,154.137024 280.156342,153.402756 
	C287.098328,152.419006 294.088043,151.772141 301.057281,150.980621 
	C302.666534,153.103470 304.275818,155.226318 305.490204,157.682495 
	C294.438873,157.608261 286.965759,163.444336 281.664520,171.588409 
	C278.828217,175.945679 275.452911,178.286285 270.989899,179.739365 
	C267.998932,180.713226 264.879364,181.292297 261.456116,181.880005 
	C258.175232,181.488174 255.257477,181.106461 252.335587,181.071854 
	C245.180267,180.987122 245.179504,181.051605 244.613098,188.012482 
	C238.378906,186.673782 232.588364,185.337433 226.681427,183.742676 
	C226.040955,182.690170 225.516876,181.896057 225.312561,180.834656 
	C227.085098,180.378860 228.574692,179.883347 229.984680,180.052216 
	C238.420914,181.062576 245.872696,179.656631 251.060074,172.112274 
	C252.015457,170.722809 253.026108,169.371323 254.343811,167.854004 
	C256.854462,166.656647 259.032562,165.607574 261.319153,164.613449 
	C261.427612,164.668396 261.320801,164.886871 261.657532,164.736694 
	C262.308716,164.216324 262.623138,163.846115 263.135498,163.227753 
	C268.919006,159.939926 271.415070,154.716385 273.214539,149.000458 
z"/>
<path fill="#1DB5B5" opacity="1.000000" stroke="none" 
	d="
M261.817352,182.048019 
	C264.879364,181.292297 267.998932,180.713226 270.989899,179.739365 
	C275.452911,178.286285 278.828217,175.945679 281.664520,171.588409 
	C286.965759,163.444336 294.438873,157.608261 305.529022,158.030731 
	C305.971649,160.407242 305.980591,162.768860 305.980652,165.575943 
	C298.761414,170.791412 291.551025,175.561386 283.910736,180.915771 
	C283.219513,183.333603 282.958160,185.167023 282.390961,187.106369 
	C280.376831,187.298798 278.598938,187.724579 276.976807,187.391571 
	C274.592865,186.902145 272.344727,185.787567 269.993469,185.092438 
	C267.360199,184.313904 264.676392,183.706131 261.962891,182.780518 
	C261.911224,182.537003 261.817352,182.048019 261.817352,182.048019 
z"/>
<path fill="#27D0BA" opacity="1.000000" stroke="none" 
	d="
M300.897736,150.710754 
	C294.088043,151.772141 287.098328,152.419006 280.156342,153.402756 
	C274.975006,154.137024 276.631653,149.830994 275.249878,147.287643 
	C276.047791,146.296524 277.138702,144.916214 278.095886,145.003448 
	C284.542664,145.590912 290.961060,146.489594 297.716949,147.166351 
	C298.942871,148.177109 299.840515,149.309006 300.897736,150.710754 
z"/>
<path fill="#1593B4" opacity="1.000000" stroke="none" 
	d="
M246.988312,272.809448 
	C246.633377,273.549072 246.278763,273.819855 245.815735,274.282288 
	C245.309158,274.568665 244.911011,274.663361 243.998108,274.874176 
	C243.483322,274.990295 243.072937,275.224579 243.072937,275.224579 
	C242.021942,275.641724 240.970932,276.058868 239.589233,276.570557 
	C238.534698,275.509705 238.051147,273.685394 237.042450,273.323090 
	C233.892151,272.191589 230.543411,271.612610 226.742218,270.982971 
	C225.565506,271.111176 224.918182,271.075806 224.194366,270.593445 
	C224.096924,267.443512 224.075974,264.740601 224.125092,261.808167 
	C224.341278,261.276855 224.567795,261.058411 224.874680,260.923340 
	C227.829117,260.630402 230.785889,260.359131 233.737213,260.037506 
	C235.971222,259.794006 238.198257,259.486267 241.758957,259.040619 
	C246.138580,261.316467 247.839920,266.225830 246.988312,272.809448 
z"/>
<path fill="#509AB6" opacity="1.000000" stroke="none" 
	d="
M224.270874,271.040466 
	C224.918182,271.075806 225.565506,271.111176 226.529007,271.199158 
	C226.694077,277.552002 226.117004,278.008392 219.575684,277.365784 
	C217.097473,277.122345 214.602005,277.054382 212.008972,276.504395 
	C211.903549,276.102386 212.059708,275.920410 212.278793,275.810822 
	C212.735809,275.474030 212.944092,275.222260 213.562454,274.982239 
	C217.691513,274.380249 222.813339,277.439728 224.270874,271.040466 
z"/>
<path fill="#509AB6" opacity="1.000000" stroke="none" 
	d="
M209.968842,261.357483 
	C211.444534,260.507568 212.998322,259.991608 214.439514,259.772919 
	C213.584122,261.265320 212.286804,262.421783 212.200272,263.662659 
	C211.916489,267.732056 212.072632,271.832123 212.059708,275.920410 
	C212.059708,275.920410 211.903549,276.102386 211.824097,276.195251 
	C211.204315,272.563232 210.632858,268.842407 210.142578,265.110962 
	C209.994797,263.986359 210.072510,262.832092 209.968842,261.357483 
z"/>
<path fill="#272D2D" opacity="1.000000" stroke="none" 
	d="
M236.823364,279.379395 
	C236.932175,279.585327 236.786224,279.771484 236.426132,279.996887 
	C236.236755,279.775085 236.355621,279.549561 236.823364,279.379395 
z"/>
<path fill="#272D2D" opacity="1.000000" stroke="none" 
	d="
M232.910583,283.397034 
	C233.002777,283.552094 232.897186,283.703186 232.643768,283.908752 
	C232.452881,283.740295 232.525177,283.550262 232.910583,283.397034 
z"/>
<path fill="#27D0BA" opacity="1.000000" stroke="none" 
	d="
M254.011246,168.002319 
	C253.026108,169.371323 252.015457,170.722809 251.060074,172.112274 
	C245.872696,179.656631 238.420914,181.062576 229.984680,180.052216 
	C228.574692,179.883347 227.085098,180.378860 224.848633,180.815399 
	C219.733139,181.062805 215.401337,181.062225 211.069519,181.061646 
	C207.668274,181.365662 204.267029,181.669678 200.459991,181.956573 
	C200.046066,179.272186 200.037918,176.604919 200.042175,173.494385 
	C203.227921,170.100784 206.460846,168.095856 211.049179,170.567520 
	C212.031189,171.096512 214.015182,169.522934 215.595245,169.239655 
	C218.127548,168.785645 220.707672,168.357269 223.268188,168.353683 
	C228.099258,168.346909 232.942078,168.895157 237.755112,168.673004 
	C239.174973,168.607468 240.511124,166.728683 242.351471,165.344055 
	C244.589935,165.322647 246.362534,165.638031 248.357239,165.958740 
	C248.579346,165.964081 249.006760,166.086594 249.244690,166.330963 
	C250.992157,167.051010 252.501709,167.526672 254.011246,168.002319 
z"/>
<path fill="#31BFB4" opacity="1.000000" stroke="none" 
	d="
M248.135147,165.953415 
	C246.362534,165.638031 244.589935,165.322647 242.432922,164.981018 
	C239.946426,162.392776 237.639709,159.967010 235.812347,157.222122 
	C234.541321,155.312943 233.928741,152.965393 232.995285,150.032715 
	C232.975174,148.498734 232.981812,147.745743 233.222427,147.003571 
	C233.456406,147.014389 233.924866,147.019073 234.059601,147.363129 
	C235.267334,156.519867 241.371735,161.488403 248.135147,165.953415 
z"/>
<path fill="#509AB6" opacity="1.000000" stroke="none" 
	d="
M233.924866,147.019073 
	C233.924866,147.019073 233.456406,147.014389 233.187653,146.673965 
	C232.632889,145.738510 232.346878,145.143494 232.060852,144.548462 
	C232.161377,144.257172 232.210617,143.957474 232.213654,143.425812 
	C233.417740,141.301712 234.616699,139.401184 236.073624,137.869873 
	C235.529358,141.165756 234.727112,144.092407 233.924866,147.019073 
z"/>
<path fill="#43EECB" opacity="1.000000" stroke="none" 
	d="
M232.047668,144.975037 
	C232.346878,145.143494 232.632889,145.738510 232.953674,146.663147 
	C232.981812,147.745743 232.975174,148.498734 232.974594,149.628204 
	C232.665268,148.470322 232.349884,146.935959 232.047668,144.975037 
z"/>
<path fill="#18A4B8" opacity="1.000000" stroke="none" 
	d="
M210.261444,250.246918 
	C211.007034,246.632233 212.009293,243.256592 213.475418,239.454224 
	C216.911301,239.015305 219.930725,239.328644 222.842743,238.904587 
	C226.134003,238.425293 227.362595,236.726334 224.169556,233.620438 
	C224.134995,230.426453 224.180191,227.684875 224.495300,224.854813 
	C225.162079,224.166733 225.558914,223.567108 226.358948,222.977509 
	C233.284882,225.422852 239.647507,224.734680 245.929535,222.457062 
	C245.980164,228.239136 246.006760,233.570206 246.033356,238.901276 
	C243.974030,241.204529 242.240372,243.978439 239.770065,245.687698 
	C236.908569,247.667648 233.506149,249.064651 230.146713,250.079971 
	C224.971878,251.643982 219.669296,252.894485 214.335114,253.730759 
	C213.258804,253.899490 211.800369,251.630844 210.261444,250.246918 
z"/>
<path fill="#61B2BB" opacity="1.000000" stroke="none" 
	d="
M246.495987,238.921234 
	C246.006760,233.570206 245.980164,228.239136 246.078888,222.218475 
	C246.473740,221.038803 246.743301,220.548721 247.474670,220.052582 
	C251.946426,220.046738 255.956406,220.046936 259.966370,220.047134 
	C260.555023,221.114365 261.143677,222.181595 261.794983,223.539398 
	C261.857574,223.829987 261.881866,223.870300 261.617676,223.879120 
	C260.985596,223.892273 260.617706,223.896606 259.964539,223.573227 
	C245.177704,222.724854 248.252319,221.933060 248.048004,234.214966 
	C248.034927,235.000336 248.146545,235.787750 248.195633,236.507538 
	C258.671204,237.917328 258.793915,237.862076 260.845520,230.998474 
	C261.043243,233.452606 261.240967,235.906754 261.218140,238.676788 
	C256.317902,238.975525 251.638260,238.958359 246.495987,238.921234 
z"/>
<path fill="#000000" opacity="1.000000" stroke="none" 
	d="
M258.010132,271.491882 
	C255.201111,272.154205 252.603806,272.506317 249.593658,272.881866 
	C249.124710,272.414398 249.016754,271.923096 249.020081,271.432556 
	C249.102905,259.195068 247.658829,261.173431 259.475464,261.022461 
	C259.357300,264.420593 258.789551,267.801117 258.010132,271.491882 
z"/>
<path fill="#A0D9DD" opacity="1.000000" stroke="none" 
	d="
M212.278793,275.810822 
	C212.072632,271.832123 211.916489,267.732056 212.200272,263.662659 
	C212.286804,262.421783 213.584122,261.265320 214.738647,259.972992 
	C218.190353,260.057281 221.230331,260.238800 224.572510,260.671814 
	C224.567795,261.058411 224.341278,261.276855 223.656738,261.772980 
	C219.767410,261.967316 216.416473,261.967316 213.122726,261.967316 
	C213.122726,266.776031 213.122726,270.860992 213.122726,274.945984 
	C212.944092,275.222260 212.735809,275.474030 212.278793,275.810822 
z"/>
<path fill="#111A1B" opacity="1.000000" stroke="none" 
	d="
M234.059601,147.363129 
	C234.727112,144.092407 235.529358,141.165756 236.409058,137.872620 
	C236.486526,137.506149 236.594925,137.479477 236.861908,137.300003 
	C237.392258,136.414261 237.655609,135.707993 237.918976,135.001724 
	C237.918961,135.001724 237.995010,134.990936 238.289276,134.827148 
	C240.851135,132.915527 243.118713,131.167679 245.386292,129.419815 
	C245.386292,129.419815 245.781876,129.331711 246.362183,129.232895 
	C252.250320,126.970978 257.504944,127.771683 262.744354,129.417877 
	C262.744354,129.417877 263.002625,129.667969 263.355225,129.960281 
	C264.768860,130.869003 265.829926,131.485413 266.890961,132.101807 
	C266.890961,132.101822 266.995117,132.003662 267.037476,132.386887 
	C269.081238,136.851288 271.082703,140.932465 273.084167,145.013641 
	C273.068024,146.081329 273.051910,147.149002 273.125183,148.608582 
	C271.415070,154.716385 268.919006,159.939926 262.761353,163.331085 
	C261.899811,164.084000 261.610321,164.485443 261.320801,164.886871 
	C261.320801,164.886871 261.427612,164.668396 260.874023,164.621628 
	C256.549194,165.078766 252.777969,165.582672 249.006760,166.086594 
	C249.006760,166.086594 248.579346,165.964081 248.357239,165.958740 
	C241.371735,161.488403 235.267334,156.519867 234.059601,147.363129 
M249.706757,139.949844 
	C246.219559,142.800735 244.987717,147.616684 246.641342,150.843552 
	C247.956879,153.410706 253.607758,154.736664 257.297485,152.524078 
	C259.323120,151.309418 261.788910,148.137726 261.455750,146.326935 
	C260.984985,143.768280 258.427887,141.219803 256.131073,139.520798 
	C254.892487,138.604584 252.338821,139.466187 249.706757,139.949844 
z"/>
<path fill="#33E0BD" opacity="1.000000" stroke="none" 
	d="
M273.621094,126.061829 
	C276.081665,127.961220 278.197723,129.926483 280.645935,131.960007 
	C281.768097,137.575912 279.473450,139.144928 272.850311,137.053345 
	C272.139435,136.398056 271.956024,135.914597 271.772583,135.431137 
	C271.556122,134.190933 271.654419,132.769180 271.063599,131.744934 
	C269.357117,128.786636 270.620087,127.240875 273.621094,126.061829 
z"/>
<path fill="#509AB6" opacity="1.000000" stroke="none" 
	d="
M271.522369,135.197632 
	C271.956024,135.914597 272.139435,136.398056 272.474243,137.102417 
	C272.916412,139.689728 273.207184,142.056152 273.291046,144.718109 
	C271.082703,140.932465 269.081238,136.851288 266.989319,132.439728 
	C268.356628,133.060959 269.814392,134.012558 271.522369,135.197632 
z"/>
<path fill="#509AB6" opacity="1.000000" stroke="none" 
	d="
M262.568298,129.078674 
	C257.504944,127.771683 252.250320,126.970978 246.528412,129.117004 
	C251.462799,125.479622 256.908508,126.251083 262.568298,129.078674 
z"/>
<path fill="#509AB6" opacity="1.000000" stroke="none" 
	d="
M245.021759,129.335022 
	C243.118713,131.167679 240.851135,132.915527 238.283447,134.789215 
	C238.284271,130.760406 241.620102,130.181290 245.021759,129.335022 
z"/>
<path fill="#509AB6" opacity="1.000000" stroke="none" 
	d="
M266.846436,131.745941 
	C265.829926,131.485413 264.768860,130.869003 263.529877,130.002792 
	C264.501923,130.298676 265.651886,130.844376 266.846436,131.745941 
z"/>
<path fill="#509AB6" opacity="1.000000" stroke="none" 
	d="
M237.614532,135.077530 
	C237.655609,135.707993 237.392258,136.414261 236.865173,137.244278 
	C236.837662,136.629791 237.073883,135.891571 237.614532,135.077530 
z"/>
<path fill="#1DB5B5" opacity="1.000000" stroke="none" 
	d="
M247.012848,220.058624 
	C246.743301,220.548721 246.473740,221.038803 246.054855,221.767487 
	C239.647507,224.734680 233.284882,225.422852 226.265182,222.606293 
	C223.261978,219.698334 213.864059,218.925095 211.444336,221.132767 
	C211.043671,221.498337 211.083694,222.346909 210.920044,222.972260 
	C207.537018,222.682159 204.154007,222.392059 200.414093,222.025269 
	C199.949203,218.661194 200.655411,216.356873 203.297989,213.485764 
	C206.750275,209.734970 211.157013,205.482559 211.498657,199.116150 
	C215.782333,198.951157 219.399628,199.110199 223.000107,198.931061 
	C226.038040,198.779892 226.976517,197.561157 224.108521,194.883774 
	C224.094421,193.619904 224.165634,192.777695 224.550873,191.792908 
	C225.509216,189.100586 226.153534,186.550827 226.797836,184.001083 
	C232.588364,185.337433 238.378906,186.673782 244.625549,188.465103 
	C245.737900,192.262573 246.394150,195.605087 247.034439,198.954590 
	C247.018494,198.961594 247.036453,198.949097 247.122269,199.094574 
	C247.497528,199.177567 247.786987,199.115067 248.534668,199.036133 
	C252.996628,199.063309 257.000336,199.106888 261.003052,199.554016 
	C261.620453,205.117615 258.864349,207.654221 254.202835,208.728607 
	C246.744751,210.447495 245.573700,212.300400 247.012848,220.058624 
z"/>
<path fill="#A0D9DD" opacity="1.000000" stroke="none" 
	d="
M224.193817,195.305450 
	C226.976517,197.561157 226.038040,198.779892 223.000107,198.931061 
	C219.399628,199.110199 215.782333,198.951157 211.734680,198.886383 
	C211.416672,196.498413 211.536285,194.162735 211.734650,191.035431 
	C211.625748,188.458679 211.438095,186.673584 211.250427,184.888489 
	C211.250427,184.888489 211.258209,184.410492 211.221085,183.972000 
	C211.183960,183.533508 211.148010,183.127167 211.148010,183.127167 
	C211.148010,183.127167 211.153824,183.065399 211.591095,183.060028 
	C215.071365,183.354874 218.114380,183.655090 220.851471,184.256561 
	C218.135818,184.788803 215.726044,185.019791 213.232132,185.258850 
	C213.232132,189.169800 213.232132,192.883118 213.232132,197.772247 
	C217.185822,196.882523 220.689819,196.093979 224.193817,195.305450 
z"/>
<path fill="#61B2BB" opacity="1.000000" stroke="none" 
	d="
M221.157379,183.955292 
	C218.114380,183.655090 215.071365,183.354874 211.598877,183.094299 
	C211.132523,182.673157 211.095673,182.212387 211.064178,181.406631 
	C215.401337,181.062225 219.733139,181.062805 224.528885,181.082672 
	C225.516876,181.896057 226.040955,182.690170 226.681427,183.742676 
	C226.153534,186.550827 225.509216,189.100586 224.487122,191.378540 
	C223.348877,188.630692 225.806396,184.826279 221.157379,183.955292 
z"/>
<path fill="#61B2BB" opacity="1.000000" stroke="none" 
	d="
M210.974792,185.103668 
	C211.438095,186.673584 211.625748,188.458679 211.722458,190.635223 
	C211.320709,189.124069 211.009918,187.221466 210.974792,185.103668 
z"/>
<path fill="#61B2BB" opacity="1.000000" stroke="none" 
	d="
M211.000992,183.188965 
	C211.148010,183.127167 211.183960,183.533508 211.176086,183.737244 
	C211.168198,183.940979 210.795792,183.669250 210.795792,183.669250 
	C210.795792,183.669250 210.853973,183.250778 211.000992,183.188965 
z"/>
<path fill="#61B2BB" opacity="1.000000" stroke="none" 
	d="
M210.954071,223.425720 
	C211.083694,222.346909 211.043671,221.498337 211.444336,221.132767 
	C213.864059,218.925095 223.261978,219.698334 225.862000,222.596252 
	C225.558914,223.567108 225.162079,224.166733 224.413727,224.465698 
	C220.521530,223.591324 216.980835,223.017609 213.287964,222.419235 
	C213.287964,227.881241 213.287964,232.275604 213.287964,236.633865 
	C222.182709,237.517441 222.182709,237.517441 224.249313,234.072830 
	C227.362595,236.726334 226.134003,238.425293 222.842743,238.904587 
	C219.930725,239.328644 216.911301,239.015305 213.482635,239.057678 
	C209.572205,238.350143 209.934204,235.764618 210.168945,233.222015 
	C210.456360,230.109070 210.716278,226.993576 210.954071,223.425720 
z"/>
<path fill="#272D2D" opacity="1.000000" stroke="none" 
	d="
M243.188507,275.381165 
	C243.072937,275.224579 243.483322,274.990295 243.718842,274.999451 
	C243.954376,275.008575 243.967789,275.474121 243.967224,275.706238 
	C243.719513,275.848297 243.498657,275.714752 243.188507,275.381165 
z"/>
<path fill="#000000" opacity="1.000000" stroke="none" 
	d="
M260.893738,230.764587 
	C258.793915,237.862076 258.671204,237.917328 248.195633,236.507538 
	C248.146545,235.787750 248.034927,235.000336 248.048004,234.214966 
	C248.252319,221.933060 245.177704,222.724854 259.871246,223.978714 
	C260.338898,226.493256 260.614502,228.274597 260.890076,230.055939 
	C260.890076,230.055939 260.941956,230.530716 260.893738,230.764587 
z"/>
<path fill="#179FB0" opacity="1.000000" stroke="none" 
	d="
M261.149353,229.761993 
	C260.614502,228.274597 260.338898,226.493256 260.156555,224.306427 
	C260.617706,223.896606 260.985596,223.892273 261.627655,223.900024 
	C261.737457,225.764084 261.573029,227.616074 261.149353,229.761993 
z"/>
<path fill="#000000" opacity="1.000000" stroke="none" 
	d="
M284.449829,236.095215 
	C284.044647,231.942383 284.014435,227.983841 284.009460,223.574509 
	C287.738983,222.694489 291.443237,222.265244 295.590698,221.784637 
	C295.590698,226.836121 295.590698,231.519623 295.590698,237.104858 
	C292.069519,236.838181 288.447174,236.563828 284.449829,236.095215 
z"/>
<path fill="#1AAAB2" opacity="1.000000" stroke="none" 
	d="
M247.474655,220.052582 
	C245.573700,212.300400 246.744751,210.447495 254.202835,208.728607 
	C258.864349,207.654221 261.620453,205.117615 261.235596,199.281586 
	C261.597534,197.435165 261.725891,196.264694 261.912598,194.631042 
	C261.985504,190.453232 262.000031,186.738647 262.014587,183.024048 
	C264.676392,183.706131 267.360199,184.313904 269.993469,185.092438 
	C272.344727,185.787567 274.592865,186.902145 276.976807,187.391571 
	C278.598938,187.724579 280.376831,187.298798 282.449585,187.547638 
	C283.195953,190.995239 283.577881,194.107544 283.959808,197.219833 
	C283.959808,197.219833 284.025299,197.567047 284.051178,197.742203 
	C282.613281,206.595764 276.036835,210.219620 268.970764,213.590012 
	C265.823944,215.090958 263.074188,217.424408 260.055298,219.713562 
	C255.956406,220.046936 251.946426,220.046738 247.474655,220.052582 
z"/>
<path fill="#1593B4" opacity="1.000000" stroke="none" 
	d="
M281.490967,224.485504 
	C281.514801,224.475555 281.467102,224.495468 281.490967,224.485504 
z"/>
<path fill="#61B2BB" opacity="1.000000" stroke="none" 
	d="
M284.348816,196.991623 
	C283.577881,194.107544 283.195953,190.995239 282.755432,187.441681 
	C282.958160,185.167023 283.219513,183.333603 283.730896,181.192902 
	C286.708923,180.967804 289.436951,181.050003 292.557983,181.180634 
	C292.968201,181.592148 292.985352,181.955276 293.003296,182.592834 
	C292.350677,182.916107 291.676178,183.095215 291.047211,182.993240 
	C285.820618,182.145767 284.398438,184.658386 284.945923,189.432114 
	C285.221649,191.836304 284.828522,194.317200 284.348816,196.991623 
z"/>
<path fill="#61B2BB" opacity="1.000000" stroke="none" 
	d="
M261.962891,182.780518 
	C262.000031,186.738647 261.985504,190.453232 261.704956,194.499359 
	C261.014740,194.580078 260.590515,194.329285 260.080017,193.617584 
	C259.993713,189.874237 259.993713,186.591812 259.993713,183.382599 
	C248.836868,182.350586 248.050461,183.041885 248.045502,193.381912 
	C248.044937,194.546234 248.083206,195.710587 247.870483,197.070526 
	C247.441818,197.826614 247.246109,198.387115 247.050385,198.947601 
	C246.394150,195.605087 245.737900,192.262573 245.069214,188.467438 
	C245.179504,181.051605 245.180267,180.987122 252.335587,181.071854 
	C255.257477,181.106461 258.175232,181.488174 261.456116,181.880005 
	C261.817352,182.048019 261.911224,182.537003 261.962891,182.780518 
z"/>
<path fill="#31BFB4" opacity="1.000000" stroke="none" 
	d="
M249.244690,166.330963 
	C252.777969,165.582672 256.549194,165.078766 260.765533,164.566681 
	C259.032562,165.607574 256.854462,166.656647 254.343811,167.854019 
	C252.501709,167.526672 250.992157,167.051010 249.244690,166.330963 
z"/>
<path fill="#31BFB4" opacity="1.000000" stroke="none" 
	d="
M261.657532,164.736694 
	C261.610321,164.485443 261.899811,164.084000 262.563446,163.579224 
	C262.623138,163.846115 262.308716,164.216324 261.657532,164.736694 
z"/>
<path fill="#000000" opacity="1.000000" stroke="none" 
	d="
M213.562454,274.982239 
	C213.122726,270.860992 213.122726,266.776031 213.122726,261.967316 
	C216.416473,261.967316 219.767410,261.967316 223.586700,262.002502 
	C224.075974,264.740601 224.096924,267.443512 224.194366,270.593445 
	C222.813339,277.439728 217.691513,274.380249 213.562454,274.982239 
z"/>
<path fill="#000000" opacity="1.000000" stroke="none" 
	d="
M224.169556,233.620438 
	C222.182709,237.517441 222.182709,237.517441 213.287964,236.633865 
	C213.287964,232.275604 213.287964,227.881241 213.287964,222.419235 
	C216.980835,223.017609 220.521530,223.591324 224.143799,224.554169 
	C224.180191,227.684875 224.134995,230.426453 224.169556,233.620438 
z"/>
<path fill="#000000" opacity="1.000000" stroke="none" 
	d="
M250.042603,139.737762 
	C252.338821,139.466187 254.892487,138.604584 256.131073,139.520798 
	C258.427887,141.219803 260.984985,143.768280 261.455750,146.326935 
	C261.788910,148.137726 259.323120,151.309418 257.297485,152.524078 
	C253.607758,154.736664 247.956879,153.410706 246.641342,150.843552 
	C244.987717,147.616684 246.219559,142.800735 250.042603,139.737762 
z"/>
<path fill="#000000" opacity="1.000000" stroke="none" 
	d="
M220.851471,184.256561 
	C225.806396,184.826279 223.348877,188.630692 224.173096,191.521133 
	C224.165634,192.777695 224.094421,193.619904 224.108521,194.883774 
	C220.689819,196.093979 217.185822,196.882523 213.232132,197.772247 
	C213.232132,192.883118 213.232132,189.169800 213.232132,185.258850 
	C215.726044,185.019791 218.135818,184.788803 220.851471,184.256561 
z"/>
<path fill="#A0D9DD" opacity="1.000000" stroke="none" 
	d="
M260.166260,194.078491 
	C260.590515,194.329285 261.014740,194.580078 261.646606,194.962555 
	C261.725891,196.264694 261.597534,197.435165 261.236633,198.878052 
	C257.000336,199.106888 252.996628,199.063309 248.276947,198.983856 
	C247.386139,198.948349 247.211304,198.948715 247.036453,198.949097 
	C247.036453,198.949097 247.018494,198.961594 247.034454,198.954590 
	C247.246109,198.387115 247.441818,197.826614 248.325043,197.116486 
	C251.829437,196.965424 254.681625,197.216599 257.444702,196.830399 
	C258.460266,196.688477 259.265228,195.039841 260.166260,194.078491 
z"/>
<path fill="#61B2BB" opacity="1.000000" stroke="none" 
	d="
M247.122269,199.094574 
	C247.211304,198.948715 247.386139,198.948349 247.818710,199.000275 
	C247.786987,199.115067 247.497528,199.177567 247.122269,199.094574 
z"/>
<path fill="#000000" opacity="1.000000" stroke="none" 
	d="
M260.079987,193.617569 
	C259.265228,195.039841 258.460266,196.688477 257.444702,196.830399 
	C254.681625,197.216599 251.829437,196.965424 248.558014,196.920883 
	C248.083206,195.710587 248.044937,194.546234 248.045502,193.381912 
	C248.050461,183.041885 248.836868,182.350586 259.993713,183.382599 
	C259.993713,186.591812 259.993713,189.874237 260.079987,193.617569 
z"/>
</svg>