<svg xmlns="http://www.w3.org/2000/svg" xmlns:xlink="http://www.w3.org/1999/xlink" width="500" zoomAndPan="magnify" viewBox="0 0 375 374.999991" height="500" preserveAspectRatio="xMidYMid meet" version="1.0"><defs><g/><clipPath id="6eab74434f"><path d="M 253 125 L 280.324219 125 L 280.324219 247.503906 L 253 247.503906 Z M 253 125 " clip-rule="nonzero"/></clipPath><clipPath id="c1aca600b6"><path d="M 95.824219 46 L 252 46 L 252 247.503906 L 95.824219 247.503906 Z M 95.824219 46 " clip-rule="nonzero"/></clipPath></defs><g clip-path="url(#6eab74434f)"><path fill="#3d4043" d="M 258.441406 229.570312 L 265.933594 229.941406 L 265.933594 235.355469 L 258.441406 235.097656 Z M 268.332031 230.058594 L 275.832031 230.433594 L 275.832031 235.695312 L 268.332031 235.433594 Z M 258.441406 220.265625 L 265.933594 220.828125 L 265.933594 226.246094 L 258.441406 225.796875 Z M 268.332031 221.011719 L 275.832031 221.578125 L 275.832031 226.839844 L 268.332031 226.390625 Z M 258.441406 210.964844 L 265.933594 211.71875 L 265.933594 217.132812 L 258.441406 216.492188 Z M 268.332031 211.964844 L 275.832031 212.71875 L 275.832031 217.984375 L 268.332031 217.339844 Z M 258.441406 201.664062 L 265.933594 202.617188 L 265.933594 208.027344 L 258.441406 207.195312 Z M 268.332031 202.917969 L 275.832031 203.867188 L 275.832031 209.128906 L 268.332031 208.292969 Z M 258.441406 192.363281 L 265.933594 193.503906 L 265.933594 198.917969 L 258.441406 197.886719 Z M 268.332031 193.867188 L 275.832031 195.015625 L 275.832031 200.277344 L 268.332031 199.246094 Z M 258.441406 183.0625 L 265.933594 184.390625 L 265.933594 189.804688 L 258.441406 188.582031 Z M 268.332031 184.820312 L 275.832031 186.152344 L 275.832031 191.414062 L 268.332031 190.195312 Z M 258.441406 173.753906 L 265.933594 175.28125 L 265.933594 180.699219 L 258.441406 179.289062 Z M 268.332031 175.769531 L 275.832031 177.296875 L 275.832031 182.566406 L 268.332031 181.148438 Z M 258.441406 164.453125 L 265.933594 166.175781 L 265.933594 171.589844 L 258.441406 169.980469 Z M 268.332031 166.726562 L 275.832031 168.445312 L 275.832031 173.710938 L 268.332031 172.101562 Z M 258.441406 155.15625 L 265.933594 157.066406 L 265.933594 162.480469 L 258.441406 160.679688 Z M 268.332031 157.675781 L 275.832031 159.59375 L 275.832031 164.851562 L 268.332031 163.054688 Z M 258.441406 145.847656 L 265.933594 147.953125 L 265.933594 153.367188 L 258.441406 151.378906 Z M 268.332031 148.628906 L 275.832031 150.734375 L 275.832031 155.992188 L 268.332031 154 Z M 258.441406 136.546875 L 265.933594 138.839844 L 265.933594 144.257812 L 258.441406 142.074219 Z M 268.332031 139.578125 L 275.832031 141.878906 L 275.832031 147.144531 L 268.332031 144.957031 Z M 253.597656 247.511719 L 280.304688 247.511719 L 280.304688 134.511719 L 253.597656 125.636719 L 253.597656 247.511719 " fill-opacity="1" fill-rule="nonzero"/></g><path fill="#3d4043" d="M 248.230469 123.304688 L 248.230469 80.394531 L 221.515625 64.3125 L 221.515625 124.832031 L 248.230469 123.304688 " fill-opacity="1" fill-rule="nonzero"/><path fill="#3d4043" d="M 213.042969 62.296875 L 217.59375 61.898438 L 217.59375 61.566406 L 207.660156 55.917969 C 209.625 57.835938 211.421875 59.96875 213.042969 62.296875 " fill-opacity="1" fill-rule="nonzero"/><g clip-path="url(#c1aca600b6)"><path fill="#3d4043" d="M 122.117188 230.433594 L 113.113281 230.507812 L 113.113281 235.746094 L 122.117188 235.691406 Z M 110.230469 230.53125 L 101.226562 230.609375 L 101.226562 235.816406 L 110.230469 235.765625 Z M 122.117188 221.570312 L 113.113281 221.691406 L 113.113281 226.929688 L 122.117188 226.835938 Z M 110.230469 221.726562 L 101.226562 221.84375 L 101.226562 227.050781 L 110.230469 226.957031 Z M 122.117188 212.714844 L 113.113281 212.871094 L 113.113281 218.113281 L 122.117188 217.980469 Z M 110.230469 212.921875 L 101.226562 213.082031 L 101.226562 218.289062 L 110.230469 218.15625 Z M 122.117188 203.863281 L 113.113281 204.054688 L 113.113281 209.296875 L 122.117188 209.125 Z M 110.230469 204.117188 L 101.226562 204.316406 L 101.226562 209.527344 L 110.230469 209.351562 Z M 122.117188 195.007812 L 113.113281 195.242188 L 113.113281 200.480469 L 122.117188 200.265625 Z M 110.230469 195.316406 L 101.226562 195.554688 L 101.226562 200.761719 L 110.230469 200.550781 Z M 122.117188 186.148438 L 113.113281 186.425781 L 113.113281 191.664062 L 122.117188 191.414062 Z M 110.230469 186.511719 L 101.226562 186.789062 L 101.226562 191.992188 L 110.230469 191.742188 Z M 122.117188 177.289062 L 113.113281 177.605469 L 113.113281 182.847656 L 122.117188 182.554688 Z M 110.230469 177.707031 L 101.226562 178.023438 L 101.226562 183.230469 L 110.230469 182.9375 Z M 122.117188 168.4375 L 113.113281 168.789062 L 113.113281 174.03125 L 122.117188 173.699219 Z M 110.230469 168.90625 L 101.226562 169.261719 L 101.226562 174.472656 L 110.230469 174.140625 Z M 122.117188 159.578125 L 113.113281 159.976562 L 113.113281 165.214844 L 122.117188 164.839844 Z M 110.230469 160.097656 L 101.226562 160.5 L 101.226562 165.703125 L 110.230469 165.335938 Z M 122.117188 150.726562 L 113.113281 151.160156 L 113.113281 156.398438 L 122.117188 155.984375 Z M 110.230469 151.296875 L 101.226562 151.734375 L 101.226562 156.9375 L 110.230469 156.527344 Z M 122.117188 141.863281 L 113.113281 142.339844 L 113.113281 147.582031 L 122.117188 147.128906 Z M 110.230469 142.492188 L 101.226562 142.96875 L 101.226562 148.175781 L 110.230469 147.726562 Z M 245.269531 229.378906 L 236.265625 229.457031 L 236.265625 235.019531 L 245.269531 234.96875 Z M 233.382812 229.480469 L 224.382812 229.558594 L 224.382812 235.089844 L 233.382812 235.035156 Z M 245.269531 219.976562 L 236.265625 220.097656 L 236.265625 225.65625 L 245.269531 225.566406 Z M 233.382812 220.128906 L 224.382812 220.25 L 224.382812 225.78125 L 233.382812 225.683594 Z M 245.269531 210.578125 L 236.265625 210.730469 L 236.265625 216.296875 L 245.269531 216.164062 Z M 233.382812 210.78125 L 224.382812 210.9375 L 224.382812 216.472656 L 233.382812 216.335938 Z M 245.269531 201.175781 L 236.265625 201.371094 L 236.265625 206.9375 L 245.269531 206.765625 Z M 233.382812 201.433594 L 224.382812 201.628906 L 224.382812 207.164062 L 233.382812 206.992188 Z M 245.269531 191.777344 L 236.265625 192.015625 L 236.265625 197.570312 L 245.269531 197.363281 Z M 233.382812 192.089844 L 224.382812 192.320312 L 224.382812 197.855469 L 233.382812 197.640625 Z M 245.269531 182.375 L 236.265625 182.652344 L 236.265625 188.210938 L 245.269531 187.960938 Z M 233.382812 182.738281 L 224.382812 183.015625 L 224.382812 188.542969 L 233.382812 188.292969 Z M 245.269531 172.96875 L 236.265625 173.289062 L 236.265625 178.851562 L 245.269531 178.558594 Z M 233.382812 173.390625 L 224.382812 173.703125 L 224.382812 179.238281 L 233.382812 178.941406 Z M 245.269531 163.570312 L 236.265625 163.925781 L 236.265625 169.492188 L 245.269531 169.160156 Z M 233.382812 164.039062 L 224.382812 164.394531 L 224.382812 169.929688 L 233.382812 169.59375 Z M 245.269531 154.167969 L 236.265625 154.566406 L 236.265625 160.128906 L 245.269531 159.753906 Z M 233.382812 154.691406 L 224.382812 155.085938 L 224.382812 160.617188 L 233.382812 160.246094 Z M 245.269531 144.769531 L 236.265625 145.203125 L 236.265625 150.765625 L 245.269531 150.351562 Z M 233.382812 145.34375 L 224.382812 145.78125 L 224.382812 151.3125 L 233.382812 150.898438 Z M 245.269531 135.367188 L 236.265625 135.839844 L 236.265625 141.40625 L 245.269531 140.957031 Z M 233.382812 135.992188 L 224.382812 136.46875 L 224.382812 142.003906 L 233.382812 141.550781 Z M 213.625 229.648438 L 204.621094 229.730469 L 204.621094 235.207031 L 213.625 235.152344 Z M 201.742188 229.753906 L 192.738281 229.828125 L 192.738281 235.277344 L 201.742188 235.222656 Z M 189.855469 229.851562 L 180.855469 229.929688 L 180.855469 235.34375 L 189.855469 235.292969 Z M 177.972656 229.953125 L 168.96875 230.03125 L 168.96875 235.417969 L 177.972656 235.367188 Z M 166.089844 230.058594 L 157.082031 230.132812 L 157.082031 235.488281 L 166.089844 235.433594 Z M 154.207031 230.15625 L 145.199219 230.234375 L 145.199219 235.554688 L 154.207031 235.503906 Z M 142.320312 230.257812 L 133.316406 230.332031 L 133.316406 235.625 L 142.320312 235.570312 Z M 213.625 220.386719 L 204.621094 220.507812 L 204.621094 225.984375 L 213.625 225.890625 Z M 201.742188 220.539062 L 192.738281 220.660156 L 192.738281 226.105469 L 201.742188 226.015625 Z M 189.855469 220.695312 L 180.855469 220.8125 L 180.855469 226.226562 L 189.855469 226.136719 Z M 177.972656 220.847656 L 168.96875 220.964844 L 168.96875 226.351562 L 177.972656 226.257812 Z M 166.089844 221.003906 L 157.082031 221.117188 L 157.082031 226.472656 L 166.089844 226.382812 Z M 154.207031 221.15625 L 145.199219 221.269531 L 145.199219 226.597656 L 154.207031 226.503906 Z M 142.320312 221.3125 L 133.316406 221.429688 L 133.316406 226.71875 L 142.320312 226.628906 Z M 213.625 211.128906 L 204.621094 211.28125 L 204.621094 216.765625 L 213.625 216.628906 Z M 201.742188 211.335938 L 192.738281 211.488281 L 192.738281 216.941406 L 201.742188 216.804688 Z M 189.855469 211.539062 L 180.855469 211.695312 L 180.855469 217.117188 L 189.855469 216.976562 Z M 177.972656 211.742188 L 168.96875 211.902344 L 168.96875 217.289062 L 177.972656 217.15625 Z M 166.089844 211.949219 L 157.082031 212.105469 L 157.082031 217.464844 L 166.089844 217.332031 Z M 154.207031 212.15625 L 145.199219 212.316406 L 145.199219 217.640625 L 154.207031 217.507812 Z M 142.320312 212.363281 L 133.316406 212.519531 L 133.316406 217.816406 L 142.320312 217.683594 Z M 213.625 201.863281 L 204.621094 202.0625 L 204.621094 207.542969 L 213.625 207.371094 Z M 201.742188 202.125 L 192.738281 202.320312 L 192.738281 207.769531 L 201.742188 207.601562 Z M 189.855469 202.382812 L 180.855469 202.578125 L 180.855469 207.996094 L 189.855469 207.828125 Z M 177.972656 202.640625 L 168.96875 202.839844 L 168.96875 208.226562 L 177.972656 208.054688 Z M 166.089844 202.902344 L 157.082031 203.097656 L 157.082031 208.457031 L 166.089844 208.28125 Z M 154.207031 203.160156 L 145.199219 203.355469 L 145.199219 208.679688 L 154.207031 208.511719 Z M 142.320312 203.421875 L 133.316406 203.617188 L 133.316406 208.910156 L 142.320312 208.738281 Z M 213.625 192.605469 L 204.621094 192.84375 L 204.621094 198.320312 L 213.625 198.109375 Z M 201.742188 192.917969 L 192.738281 193.152344 L 192.738281 198.601562 L 201.742188 198.386719 Z M 189.855469 193.230469 L 180.855469 193.464844 L 180.855469 198.882812 L 189.855469 198.667969 Z M 177.972656 193.539062 L 168.96875 193.777344 L 168.96875 199.160156 L 177.972656 198.953125 Z M 166.089844 193.851562 L 157.082031 194.089844 L 157.082031 199.441406 L 166.089844 199.230469 Z M 154.207031 194.164062 L 145.199219 194.402344 L 145.199219 199.722656 L 154.207031 199.507812 Z M 142.320312 194.476562 L 133.316406 194.710938 L 133.316406 200.003906 L 142.320312 199.792969 Z M 213.625 183.34375 L 204.621094 183.617188 L 204.621094 189.101562 L 213.625 188.847656 Z M 201.742188 183.707031 L 192.738281 183.980469 L 192.738281 189.429688 L 201.742188 189.179688 Z M 189.855469 184.070312 L 180.855469 184.34375 L 180.855469 189.765625 L 189.855469 189.511719 Z M 177.972656 184.4375 L 168.96875 184.710938 L 168.96875 190.097656 L 177.972656 189.84375 Z M 166.089844 184.796875 L 157.082031 185.078125 L 157.082031 190.429688 L 166.089844 190.175781 Z M 154.207031 185.164062 L 145.199219 185.441406 L 145.199219 190.765625 L 154.207031 190.507812 Z M 142.320312 185.527344 L 133.316406 185.804688 L 133.316406 191.09375 L 142.320312 190.84375 Z M 213.625 174.082031 L 204.621094 174.398438 L 204.621094 179.878906 L 213.625 179.589844 Z M 201.742188 174.5 L 192.738281 174.8125 L 192.738281 180.261719 L 201.742188 179.96875 Z M 189.855469 174.914062 L 180.855469 175.230469 L 180.855469 180.652344 L 189.855469 180.355469 Z M 177.972656 175.328125 L 168.96875 175.648438 L 168.96875 181.039062 L 177.972656 180.742188 Z M 166.089844 175.75 L 157.082031 176.066406 L 157.082031 181.421875 L 166.089844 181.128906 Z M 154.207031 176.167969 L 145.199219 176.480469 L 145.199219 181.804688 L 154.207031 181.511719 Z M 142.320312 176.578125 L 133.316406 176.898438 L 133.316406 182.191406 L 142.320312 181.902344 Z M 213.625 164.824219 L 204.621094 165.179688 L 204.621094 170.65625 L 213.625 170.324219 Z M 201.742188 165.289062 L 192.738281 165.644531 L 192.738281 171.09375 L 201.742188 170.765625 Z M 189.855469 165.757812 L 180.855469 166.113281 L 180.855469 171.53125 L 189.855469 171.203125 Z M 177.972656 166.230469 L 168.96875 166.585938 L 168.96875 171.972656 L 177.972656 171.640625 Z M 166.089844 166.699219 L 157.082031 167.050781 L 157.082031 172.410156 L 166.089844 172.078125 Z M 154.207031 167.167969 L 145.199219 167.523438 L 145.199219 172.84375 L 154.207031 172.515625 Z M 142.320312 167.636719 L 133.316406 167.992188 L 133.316406 173.289062 L 142.320312 172.953125 Z M 213.625 155.5625 L 204.621094 155.957031 L 204.621094 161.4375 L 213.625 161.0625 Z M 201.742188 156.085938 L 192.738281 156.476562 L 192.738281 161.925781 L 201.742188 161.554688 Z M 189.855469 156.601562 L 180.855469 157 L 180.855469 162.414062 L 189.855469 162.046875 Z M 177.972656 157.125 L 168.96875 157.519531 L 168.96875 162.90625 L 177.972656 162.535156 Z M 166.089844 157.648438 L 157.082031 158.042969 L 157.082031 163.398438 L 166.089844 163.023438 Z M 154.207031 158.171875 L 145.199219 158.566406 L 145.199219 163.890625 L 154.207031 163.519531 Z M 142.320312 158.691406 L 133.316406 159.089844 L 133.316406 164.378906 L 142.320312 164.007812 Z M 213.625 146.296875 L 204.621094 146.730469 L 204.621094 152.214844 L 213.625 151.800781 Z M 201.742188 146.871094 L 192.738281 147.308594 L 192.738281 152.753906 L 201.742188 152.34375 Z M 189.855469 147.449219 L 180.855469 147.882812 L 180.855469 153.296875 L 189.855469 152.886719 Z M 177.972656 148.023438 L 168.96875 148.457031 L 168.96875 153.839844 L 177.972656 153.429688 Z M 166.089844 148.597656 L 157.082031 149.035156 L 157.082031 154.386719 L 166.089844 153.976562 Z M 154.207031 149.171875 L 145.199219 149.609375 L 145.199219 154.929688 L 154.207031 154.515625 Z M 142.320312 149.746094 L 133.316406 150.179688 L 133.316406 155.472656 L 142.320312 155.0625 Z M 213.625 137.035156 L 204.621094 137.515625 L 204.621094 142.992188 L 213.625 142.539062 Z M 201.742188 137.664062 L 192.738281 138.136719 L 192.738281 143.589844 L 201.742188 143.136719 Z M 189.855469 138.289062 L 180.855469 138.765625 L 180.855469 144.1875 L 189.855469 143.734375 Z M 177.972656 138.917969 L 168.96875 139.394531 L 168.96875 144.78125 L 177.972656 144.328125 Z M 166.089844 139.542969 L 157.082031 140.019531 L 157.082031 145.375 L 166.089844 144.925781 Z M 154.207031 140.171875 L 145.199219 140.648438 L 145.199219 145.972656 L 154.207031 145.523438 Z M 142.320312 140.800781 L 133.316406 141.277344 L 133.316406 146.566406 L 142.320312 146.117188 Z M 213.625 127.777344 L 204.621094 128.292969 L 204.621094 133.773438 L 213.625 133.277344 Z M 201.742188 128.457031 L 192.738281 128.972656 L 192.738281 134.421875 L 201.742188 133.929688 Z M 189.855469 129.136719 L 180.855469 129.648438 L 180.855469 135.070312 L 189.855469 134.578125 Z M 177.972656 129.816406 L 168.96875 130.332031 L 168.96875 135.71875 L 177.972656 135.226562 Z M 166.089844 130.492188 L 157.082031 131.011719 L 157.082031 136.367188 L 166.089844 135.875 Z M 154.207031 131.175781 L 145.199219 131.6875 L 145.199219 137.019531 L 154.207031 136.523438 Z M 142.320312 131.851562 L 133.316406 132.371094 L 133.316406 137.664062 L 142.320312 137.171875 Z M 213.625 118.515625 L 204.621094 119.070312 L 204.621094 124.550781 L 213.625 124.019531 Z M 201.742188 119.246094 L 192.738281 119.800781 L 192.738281 125.25 L 201.742188 124.722656 Z M 189.855469 119.980469 L 180.855469 120.535156 L 180.855469 125.953125 L 189.855469 125.417969 Z M 177.972656 120.710938 L 168.96875 121.269531 L 168.96875 126.652344 L 177.972656 126.121094 Z M 166.089844 121.449219 L 157.082031 122 L 157.082031 127.351562 L 166.089844 126.824219 Z M 154.207031 122.175781 L 145.199219 122.734375 L 145.199219 128.050781 L 154.207031 127.523438 Z M 142.320312 122.914062 L 133.316406 123.464844 L 133.316406 128.753906 L 142.320312 128.226562 Z M 213.625 109.253906 L 204.621094 109.847656 L 204.621094 115.328125 L 213.625 114.753906 Z M 201.742188 110.039062 L 192.738281 110.636719 L 192.738281 116.082031 L 201.742188 115.507812 Z M 189.855469 110.824219 L 180.855469 111.417969 L 180.855469 116.832031 L 189.855469 116.261719 Z M 177.972656 111.609375 L 168.96875 112.203125 L 168.96875 117.585938 L 177.972656 117.015625 Z M 166.089844 112.394531 L 157.082031 112.988281 L 157.082031 118.339844 L 166.089844 117.773438 Z M 154.207031 113.175781 L 145.199219 113.773438 L 145.199219 119.09375 L 154.207031 118.527344 Z M 142.320312 113.964844 L 133.316406 114.554688 L 133.316406 119.847656 L 142.320312 119.277344 Z M 213.625 99.992188 L 204.621094 100.628906 L 204.621094 106.109375 L 213.625 105.496094 Z M 201.742188 100.828125 L 192.738281 101.460938 L 192.738281 106.910156 L 201.742188 106.300781 Z M 189.855469 101.664062 L 180.855469 102.300781 L 180.855469 107.722656 L 189.855469 107.109375 Z M 177.972656 102.503906 L 168.96875 103.136719 L 168.96875 108.523438 L 177.972656 107.914062 Z M 166.089844 103.339844 L 157.082031 103.972656 L 157.082031 109.332031 L 166.089844 108.722656 Z M 154.207031 104.175781 L 145.199219 104.8125 L 145.199219 110.136719 L 154.207031 109.527344 Z M 142.320312 105.015625 L 133.316406 105.648438 L 133.316406 110.945312 L 142.320312 110.335938 Z M 213.625 90.730469 L 204.621094 91.40625 L 204.621094 96.886719 L 213.625 96.238281 Z M 201.742188 91.625 L 192.738281 92.296875 L 192.738281 97.746094 L 201.742188 97.097656 Z M 189.855469 92.511719 L 180.855469 93.1875 L 180.855469 98.605469 L 189.855469 97.957031 Z M 177.972656 93.398438 L 168.96875 94.074219 L 168.96875 99.460938 L 177.972656 98.8125 Z M 166.089844 94.296875 L 157.082031 94.96875 L 157.082031 100.324219 L 166.089844 99.671875 Z M 154.207031 95.179688 L 145.199219 95.855469 L 145.199219 101.183594 L 154.207031 100.53125 Z M 142.320312 96.070312 L 133.316406 96.746094 L 133.316406 102.039062 L 142.320312 101.386719 Z M 213.625 81.472656 L 204.621094 82.1875 L 204.621094 87.664062 L 213.625 86.976562 Z M 201.742188 82.414062 L 192.738281 83.125 L 192.738281 88.574219 L 201.742188 87.886719 Z M 189.855469 83.359375 L 180.855469 84.070312 L 180.855469 89.488281 L 189.855469 88.796875 Z M 177.972656 84.300781 L 168.96875 85.011719 L 168.96875 90.398438 L 177.972656 89.710938 Z M 166.089844 85.238281 L 157.082031 85.957031 L 157.082031 91.3125 L 166.089844 90.617188 Z M 154.207031 86.179688 L 145.199219 86.898438 L 145.199219 92.222656 L 154.207031 91.53125 Z M 142.320312 87.128906 L 133.316406 87.84375 L 133.316406 93.132812 L 142.320312 92.445312 Z M 251.09375 125.636719 L 251.09375 247.511719 L 95.847656 247.511719 L 95.847656 134.511719 L 127.941406 132.679688 L 127.941406 72.226562 L 135.15625 71.597656 C 143.257812 58.046875 157.390625 48.160156 173.472656 46.582031 C 189.554688 45.007812 203.6875 52.386719 211.785156 64.910156 L 219.003906 64.273438 L 219.003906 127.464844 L 251.09375 125.636719 " fill-opacity="1" fill-rule="nonzero"/></g><path fill="#3d4043" d="M 42.613281 254.160156 L 333.191406 254.160156 L 333.191406 305.523438 L 42.613281 305.523438 L 42.613281 254.160156 " fill-opacity="1" fill-rule="nonzero"/><g fill="#ffffff" fill-opacity="1"><g transform="translate(56.553699, 290.34253)"><g><path d="M 19.71875 -21.453125 C 20.125 -21.929688 20.335938 -22.476562 20.359375 -23.09375 L 21.59375 -23.09375 L 21.59375 -16.765625 L 20.3125 -16.765625 C 20.019531 -18.429688 19.222656 -19.742188 17.921875 -20.703125 C 16.617188 -21.660156 15.203125 -22.140625 13.671875 -22.140625 C 8.578125 -22.140625 6.050781 -18.582031 6.09375 -11.46875 C 6.125 -8.644531 6.6875 -6.296875 7.78125 -4.421875 C 9.050781 -2.253906 10.894531 -1.171875 13.3125 -1.171875 C 15.15625 -1.171875 16.710938 -1.492188 17.984375 -2.140625 C 19.253906 -2.796875 20.25 -3.675781 20.96875 -4.78125 L 21.765625 -4.0625 C 21.378906 -3.144531 20.582031 -2.269531 19.375 -1.4375 C 17.71875 -0.28125 15.632812 0.296875 13.125 0.296875 C 9.5625 0.296875 6.722656 -0.8125 4.609375 -3.03125 C 2.503906 -5.25 1.453125 -8.070312 1.453125 -11.5 C 1.453125 -14.925781 2.503906 -17.765625 4.609375 -20.015625 C 6.710938 -22.265625 9.644531 -23.390625 13.40625 -23.390625 C 15.4375 -23.390625 17.207031 -22.976562 18.71875 -22.15625 C 19.132812 -21.925781 19.46875 -21.691406 19.71875 -21.453125 Z M 19.71875 -21.453125 "/></g></g></g><g fill="#ffffff" fill-opacity="1"><g transform="translate(82.844012, 290.34253)"><g><path d="M 2.75 -5.71875 C 2.332031 -6.601562 2.015625 -7.539062 1.796875 -8.53125 C 1.585938 -9.519531 1.484375 -10.519531 1.484375 -11.53125 C 1.484375 -12.539062 1.585938 -13.53125 1.796875 -14.5 C 2.015625 -15.476562 2.335938 -16.40625 2.765625 -17.28125 C 3.648438 -19.125 4.953125 -20.601562 6.671875 -21.71875 C 8.398438 -22.832031 10.476562 -23.390625 12.90625 -23.390625 C 16.582031 -23.390625 19.460938 -22.160156 21.546875 -19.703125 C 23.410156 -17.492188 24.34375 -14.757812 24.34375 -11.5 C 24.34375 -8.238281 23.398438 -5.503906 21.515625 -3.296875 C 20.234375 -1.785156 18.539062 -0.738281 16.4375 -0.15625 C 15.363281 0.144531 14.191406 0.296875 12.921875 0.296875 C 11.648438 0.296875 10.484375 0.148438 9.421875 -0.140625 C 8.367188 -0.441406 7.421875 -0.859375 6.578125 -1.390625 C 5.734375 -1.921875 4.988281 -2.554688 4.34375 -3.296875 C 3.707031 -4.035156 3.175781 -4.84375 2.75 -5.71875 Z M 18.34375 -4.46875 C 18.726562 -5.164062 19.097656 -6.097656 19.453125 -7.265625 C 19.816406 -8.429688 20 -9.65625 20 -10.9375 C 20 -12.21875 19.9375 -13.285156 19.8125 -14.140625 C 19.695312 -15.003906 19.519531 -15.820312 19.28125 -16.59375 C 18.75 -18.269531 17.953125 -19.613281 16.890625 -20.625 C 15.828125 -21.632812 14.5 -22.140625 12.90625 -22.140625 C 10.40625 -22.140625 8.546875 -21.019531 7.328125 -18.78125 C 6.296875 -16.863281 5.796875 -14.476562 5.828125 -11.625 C 5.867188 -8.769531 6.390625 -6.382812 7.390625 -4.46875 C 8.640625 -2.125 10.457031 -0.953125 12.84375 -0.953125 C 15.226562 -0.953125 17.0625 -2.125 18.34375 -4.46875 Z M 18.34375 -4.46875 "/></g></g></g><g fill="#ffffff" fill-opacity="1"><g transform="translate(111.804072, 290.34253)"><g><path d="M 1.40625 -1.171875 L 4.03125 -1.171875 L 4.03125 -21.90625 L 1.40625 -21.90625 L 1.40625 -23.09375 L 8.234375 -23.09375 L 20.46875 -4.90625 L 20.46875 -21.90625 L 17.53125 -21.90625 L 17.53125 -23.09375 L 24.703125 -23.09375 L 24.703125 -21.90625 L 21.9375 -21.90625 L 21.9375 0 L 19.140625 0 L 5.515625 -20.03125 L 5.515625 -1.171875 L 8.578125 -1.171875 L 8.578125 0 L 1.40625 0 Z M 1.40625 -1.171875 "/></g></g></g><g fill="#ffffff" fill-opacity="1"><g transform="translate(140.703795, 290.34253)"><g><path d="M 1.25 -1.171875 L 4.265625 -1.171875 L 4.28125 -21.90625 L 1.25 -21.90625 L 1.25 -23.09375 L 11.421875 -23.09375 C 17.492188 -23.09375 21.414062 -21.175781 23.1875 -17.34375 C 23.925781 -15.757812 24.296875 -13.882812 24.296875 -11.71875 C 24.296875 -8.84375 23.460938 -6.332031 21.796875 -4.1875 C 20.441406 -2.46875 18.484375 -1.257812 15.921875 -0.5625 C 14.578125 -0.1875 13.007812 0 11.21875 0 L 1.25 0 Z M 11.03125 -1.171875 C 14.195312 -1.171875 16.460938 -1.960938 17.828125 -3.546875 C 19.203125 -5.128906 19.890625 -7.820312 19.890625 -11.625 L 19.890625 -12.09375 C 19.828125 -15.726562 19.09375 -18.269531 17.6875 -19.71875 C 16.289062 -21.175781 14.140625 -21.90625 11.234375 -21.90625 L 8.34375 -21.90625 L 8.34375 -1.171875 Z M 11.03125 -1.171875 "/></g></g></g><g fill="#ffffff" fill-opacity="1"><g transform="translate(169.603524, 290.34253)"><g><path d="M 2.75 -5.71875 C 2.332031 -6.601562 2.015625 -7.539062 1.796875 -8.53125 C 1.585938 -9.519531 1.484375 -10.519531 1.484375 -11.53125 C 1.484375 -12.539062 1.585938 -13.53125 1.796875 -14.5 C 2.015625 -15.476562 2.335938 -16.40625 2.765625 -17.28125 C 3.648438 -19.125 4.953125 -20.601562 6.671875 -21.71875 C 8.398438 -22.832031 10.476562 -23.390625 12.90625 -23.390625 C 16.582031 -23.390625 19.460938 -22.160156 21.546875 -19.703125 C 23.410156 -17.492188 24.34375 -14.757812 24.34375 -11.5 C 24.34375 -8.238281 23.398438 -5.503906 21.515625 -3.296875 C 20.234375 -1.785156 18.539062 -0.738281 16.4375 -0.15625 C 15.363281 0.144531 14.191406 0.296875 12.921875 0.296875 C 11.648438 0.296875 10.484375 0.148438 9.421875 -0.140625 C 8.367188 -0.441406 7.421875 -0.859375 6.578125 -1.390625 C 5.734375 -1.921875 4.988281 -2.554688 4.34375 -3.296875 C 3.707031 -4.035156 3.175781 -4.84375 2.75 -5.71875 Z M 18.34375 -4.46875 C 18.726562 -5.164062 19.097656 -6.097656 19.453125 -7.265625 C 19.816406 -8.429688 20 -9.65625 20 -10.9375 C 20 -12.21875 19.9375 -13.285156 19.8125 -14.140625 C 19.695312 -15.003906 19.519531 -15.820312 19.28125 -16.59375 C 18.75 -18.269531 17.953125 -19.613281 16.890625 -20.625 C 15.828125 -21.632812 14.5 -22.140625 12.90625 -22.140625 C 10.40625 -22.140625 8.546875 -21.019531 7.328125 -18.78125 C 6.296875 -16.863281 5.796875 -14.476562 5.828125 -11.625 C 5.867188 -8.769531 6.390625 -6.382812 7.390625 -4.46875 C 8.640625 -2.125 10.457031 -0.953125 12.84375 -0.953125 C 15.226562 -0.953125 17.0625 -2.125 18.34375 -4.46875 Z M 18.34375 -4.46875 "/></g></g></g><g fill="#ffffff" fill-opacity="1"><g transform="translate(198.563586, 290.34253)"><g><path d="M 0.9375 -1.171875 L 3.71875 -1.171875 L 3.71875 -21.90625 L 0.90625 -21.90625 L 0.90625 -23.09375 L 8.78125 -23.09375 L 15.59375 -6.296875 L 22.34375 -23.09375 L 29.96875 -23.09375 L 29.96875 -21.90625 L 27.03125 -21.90625 L 27.03125 -1.171875 L 30.25 -1.171875 L 30.25 0 L 20.203125 0 L 20.203125 -1.171875 L 22.953125 -1.171875 L 22.96875 -21.265625 L 14.578125 -0.3125 L 13.96875 -0.3125 L 5.078125 -21.375 L 5.078125 -1.171875 L 7.8125 -1.171875 L 7.8125 0 L 0.9375 0 Z M 0.9375 -1.171875 "/></g></g></g><g fill="#ffffff" fill-opacity="1"><g transform="translate(232.621808, 290.34253)"><g><path d="M 1.4375 -1.171875 L 4.40625 -1.171875 L 4.421875 -21.90625 L 1.4375 -21.90625 L 1.4375 -23.09375 L 11.453125 -23.09375 L 11.453125 -21.90625 L 8.484375 -21.90625 L 8.484375 -1.171875 L 11.453125 -1.171875 L 11.453125 0 L 1.4375 0 Z M 1.4375 -1.171875 "/></g></g></g><g fill="#ffffff" fill-opacity="1"><g transform="translate(248.655472, 290.34253)"><g><path d="M 0.3125 -1.171875 L 1.953125 -1.171875 L 10.453125 -23.09375 L 12.203125 -23.09375 L 21.3125 -1.171875 L 22.84375 -1.171875 L 22.84375 0 L 14.625 0 L 14.625 -1.171875 L 16.890625 -1.171875 L 14.71875 -6.4375 L 5.546875 -6.4375 L 3.5625 -1.171875 L 6.28125 -1.171875 L 6.28125 0 L 0.3125 0 Z M 14.234375 -7.625 L 9.9375 -18.046875 L 6 -7.625 Z M 14.234375 -7.625 "/></g></g></g><g fill="#ffffff" fill-opacity="1"><g transform="translate(274.945776, 290.34253)"><g><path d="M 0.765625 -1.171875 L 3.34375 -1.171875 L 3.359375 -21.90625 L 0.78125 -21.90625 L 0.78125 -23.09375 L 10.578125 -23.09375 C 13.691406 -23.09375 15.976562 -22.453125 17.4375 -21.171875 C 18.894531 -19.890625 19.625 -18.066406 19.625 -15.703125 C 19.625 -13.335938 18.863281 -11.414062 17.34375 -9.9375 C 15.832031 -8.46875 13.597656 -7.734375 10.640625 -7.734375 L 7.421875 -7.734375 L 7.421875 -1.171875 L 11.25 -1.171875 L 11.25 0 L 0.765625 0 Z M 10.265625 -8.78125 C 12.671875 -8.78125 14.238281 -10.085938 14.96875 -12.703125 C 15.238281 -13.640625 15.375 -14.609375 15.375 -15.609375 C 15.375 -17.597656 14.976562 -19.113281 14.1875 -20.15625 C 13.332031 -21.320312 12.035156 -21.90625 10.296875 -21.90625 L 7.421875 -21.90625 L 7.421875 -8.78125 Z M 10.265625 -8.78125 "/></g></g></g><g fill="#ffffff" fill-opacity="1"><g transform="translate(298.671917, 290.34253)"><g><path d="M 0.765625 -1.171875 L 3.34375 -1.171875 L 3.359375 -21.90625 L 0.78125 -21.90625 L 0.78125 -23.09375 L 10.578125 -23.09375 C 13.691406 -23.09375 15.976562 -22.453125 17.4375 -21.171875 C 18.894531 -19.890625 19.625 -18.066406 19.625 -15.703125 C 19.625 -13.335938 18.863281 -11.414062 17.34375 -9.9375 C 15.832031 -8.46875 13.597656 -7.734375 10.640625 -7.734375 L 7.421875 -7.734375 L 7.421875 -1.171875 L 11.25 -1.171875 L 11.25 0 L 0.765625 0 Z M 10.265625 -8.78125 C 12.671875 -8.78125 14.238281 -10.085938 14.96875 -12.703125 C 15.238281 -13.640625 15.375 -14.609375 15.375 -15.609375 C 15.375 -17.597656 14.976562 -19.113281 14.1875 -20.15625 C 13.332031 -21.320312 12.035156 -21.90625 10.296875 -21.90625 L 7.421875 -21.90625 L 7.421875 -8.78125 Z M 10.265625 -8.78125 "/></g></g></g><g fill="#3d4043" fill-opacity="1"><g transform="translate(46.905413, 325.153337)"><g><path d="M 2.859375 -1.078125 C 2.609375 -0.796875 2.484375 -0.4375 2.484375 0 L 1.65625 0 L 1.65625 -3.796875 L 2.609375 -3.796875 C 2.847656 -2.835938 3.347656 -2.0625 4.109375 -1.46875 C 4.878906 -0.882812 5.8125 -0.59375 6.90625 -0.59375 C 8.257812 -0.59375 9.164062 -0.96875 9.625 -1.71875 C 9.78125 -1.96875 9.859375 -2.253906 9.859375 -2.578125 C 9.859375 -3.253906 9.617188 -3.832031 9.140625 -4.3125 C 8.660156 -4.800781 7.84375 -5.253906 6.6875 -5.671875 C 5.53125 -6.097656 4.65625 -6.488281 4.0625 -6.84375 C 3.46875 -7.195312 3 -7.570312 2.65625 -7.96875 C 2.050781 -8.65625 1.75 -9.554688 1.75 -10.671875 C 1.75 -11.796875 2.226562 -12.703125 3.1875 -13.390625 C 4.144531 -14.085938 5.3125 -14.4375 6.6875 -14.4375 C 7.46875 -14.4375 8.128906 -14.347656 8.671875 -14.171875 C 9.210938 -13.992188 9.625 -13.78125 9.90625 -13.53125 C 10.0625 -13.75 10.144531 -13.988281 10.15625 -14.25 L 11.015625 -14.25 L 11.015625 -10.78125 L 10.125 -10.78125 C 10.03125 -11.707031 9.644531 -12.421875 8.96875 -12.921875 C 8.300781 -13.421875 7.523438 -13.671875 6.640625 -13.671875 C 5.753906 -13.671875 5.03125 -13.488281 4.46875 -13.125 C 3.914062 -12.757812 3.640625 -12.257812 3.640625 -11.625 C 3.640625 -11 3.898438 -10.453125 4.421875 -9.984375 C 4.941406 -9.515625 6.003906 -8.925781 7.609375 -8.21875 C 9.117188 -7.601562 10.171875 -6.976562 10.765625 -6.34375 C 11.359375 -5.71875 11.65625 -4.941406 11.65625 -4.015625 C 11.65625 -2.710938 11.195312 -1.6875 10.28125 -0.9375 C 9.375 -0.1875 8.269531 0.1875 6.96875 0.1875 C 5.664062 0.1875 4.53125 -0.0703125 3.5625 -0.59375 C 3.28125 -0.75 3.046875 -0.910156 2.859375 -1.078125 Z M 2.859375 -1.078125 "/></g></g></g><g fill="#3d4043" fill-opacity="1"><g transform="translate(61.786464, 325.153337)"><g><path d="M 0.671875 -4.765625 C 0.671875 -6.234375 1.132812 -7.421875 2.0625 -8.328125 C 3 -9.234375 4.171875 -9.6875 5.578125 -9.6875 C 6.992188 -9.6875 8.160156 -9.234375 9.078125 -8.328125 C 9.992188 -7.429688 10.453125 -6.25 10.453125 -4.78125 C 10.453125 -3.3125 9.992188 -2.113281 9.078125 -1.1875 C 8.171875 -0.269531 7.003906 0.1875 5.578125 0.1875 C 4.160156 0.1875 2.988281 -0.269531 2.0625 -1.1875 C 1.132812 -2.113281 0.671875 -3.304688 0.671875 -4.765625 Z M 5.5625 -0.59375 C 6.8125 -0.59375 7.546875 -1.445312 7.765625 -3.15625 C 7.828125 -3.65625 7.859375 -4.195312 7.859375 -4.78125 C 7.859375 -6.09375 7.710938 -7.078125 7.421875 -7.734375 C 7.046875 -8.515625 6.425781 -8.90625 5.5625 -8.90625 C 4.300781 -8.90625 3.566406 -8.078125 3.359375 -6.421875 C 3.296875 -5.921875 3.265625 -5.375 3.265625 -4.78125 C 3.265625 -3.46875 3.410156 -2.476562 3.703125 -1.8125 C 4.078125 -1 4.695312 -0.59375 5.5625 -0.59375 Z M 5.5625 -0.59375 "/></g></g></g><g fill="#3d4043" fill-opacity="1"><g transform="translate(75.065251, 325.153337)"><g><path d="M 0.5625 -0.734375 L 2.015625 -0.734375 L 2.015625 -14.953125 L 0.5 -14.953125 L 0.5 -15.6875 L 4.484375 -15.6875 L 4.484375 -0.734375 L 6.046875 -0.734375 L 6.046875 0 L 0.5625 0 Z M 0.5625 -0.734375 "/></g></g></g><g fill="#3d4043" fill-opacity="1"><g transform="translate(83.583823, 325.153337)"><g><path d="M 8.265625 -0.90625 C 7.441406 -0.175781 6.550781 0.1875 5.59375 0.1875 C 4.632812 0.1875 3.820312 -0.00390625 3.15625 -0.390625 C 2.238281 -0.929688 1.78125 -1.835938 1.78125 -3.109375 L 1.78125 -8.796875 L 0.453125 -8.796875 L 0.453125 -9.53125 L 4.203125 -9.53125 L 4.203125 -2.671875 C 4.203125 -1.359375 4.804688 -0.703125 6.015625 -0.703125 C 6.859375 -0.703125 7.609375 -1.085938 8.265625 -1.859375 L 8.265625 -8.796875 L 6.65625 -8.796875 L 6.65625 -9.53125 L 10.671875 -9.53125 L 10.671875 -0.734375 L 11.875 -0.734375 L 11.875 0 L 8.265625 0 Z M 8.265625 -0.90625 "/></g></g></g><g fill="#3d4043" fill-opacity="1"><g transform="translate(98.464872, 325.153337)"><g><path d="M 9.296875 -1.34375 C 8.503906 -0.320312 7.28125 0.1875 5.625 0.1875 C 5.039062 0.1875 4.425781 0.078125 3.78125 -0.140625 C 3.144531 -0.367188 2.59375 -0.695312 2.125 -1.125 C 1.125 -2.039062 0.625 -3.257812 0.625 -4.78125 C 0.625 -6.300781 1.113281 -7.5 2.09375 -8.375 C 3.070312 -9.25 4.3125 -9.6875 5.8125 -9.6875 C 6.664062 -9.6875 7.457031 -9.492188 8.1875 -9.109375 C 8.914062 -8.734375 9.28125 -8.195312 9.28125 -7.5 C 9.28125 -7.125 9.160156 -6.816406 8.921875 -6.578125 C 8.691406 -6.347656 8.441406 -6.234375 8.171875 -6.234375 C 7.734375 -6.234375 7.394531 -6.332031 7.15625 -6.53125 C 6.914062 -6.738281 6.796875 -7.019531 6.796875 -7.375 C 6.796875 -7.9375 7.019531 -8.328125 7.46875 -8.546875 C 7.007812 -8.828125 6.476562 -8.96875 5.875 -8.96875 C 4.082031 -8.96875 3.1875 -7.570312 3.1875 -4.78125 C 3.1875 -2.820312 3.726562 -1.554688 4.8125 -0.984375 C 5.175781 -0.796875 5.597656 -0.703125 6.078125 -0.703125 C 7.203125 -0.703125 8.113281 -1.0625 8.8125 -1.78125 Z M 9.296875 -1.34375 "/></g></g></g><g fill="#3d4043" fill-opacity="1"><g transform="translate(110.178654, 325.153337)"><g><path d="M 4.21875 -11.796875 C 3.96875 -11.554688 3.664062 -11.4375 3.3125 -11.4375 C 2.957031 -11.4375 2.648438 -11.554688 2.390625 -11.796875 C 2.140625 -12.046875 2.015625 -12.304688 2.015625 -12.578125 C 2.015625 -13.035156 2.140625 -13.390625 2.390625 -13.640625 C 2.640625 -13.890625 2.945312 -14.015625 3.3125 -14.015625 C 3.875 -14.015625 4.265625 -13.753906 4.484375 -13.234375 C 4.554688 -13.078125 4.59375 -12.90625 4.59375 -12.71875 C 4.59375 -12.351562 4.46875 -12.046875 4.21875 -11.796875 Z M 0.5625 -0.734375 L 2.078125 -0.734375 L 2.078125 -8.796875 L 0.703125 -8.796875 L 0.703125 -9.53125 L 4.546875 -9.53125 L 4.546875 -0.734375 L 6.0625 -0.734375 L 6.0625 0 L 0.5625 0 Z M 0.5625 -0.734375 "/></g></g></g><g fill="#3d4043" fill-opacity="1"><g transform="translate(118.697224, 325.153337)"><g><path d="M 0.671875 -4.765625 C 0.671875 -6.234375 1.132812 -7.421875 2.0625 -8.328125 C 3 -9.234375 4.171875 -9.6875 5.578125 -9.6875 C 6.992188 -9.6875 8.160156 -9.234375 9.078125 -8.328125 C 9.992188 -7.429688 10.453125 -6.25 10.453125 -4.78125 C 10.453125 -3.3125 9.992188 -2.113281 9.078125 -1.1875 C 8.171875 -0.269531 7.003906 0.1875 5.578125 0.1875 C 4.160156 0.1875 2.988281 -0.269531 2.0625 -1.1875 C 1.132812 -2.113281 0.671875 -3.304688 0.671875 -4.765625 Z M 5.5625 -0.59375 C 6.8125 -0.59375 7.546875 -1.445312 7.765625 -3.15625 C 7.828125 -3.65625 7.859375 -4.195312 7.859375 -4.78125 C 7.859375 -6.09375 7.710938 -7.078125 7.421875 -7.734375 C 7.046875 -8.515625 6.425781 -8.90625 5.5625 -8.90625 C 4.300781 -8.90625 3.566406 -8.078125 3.359375 -6.421875 C 3.296875 -5.921875 3.265625 -5.375 3.265625 -4.78125 C 3.265625 -3.46875 3.410156 -2.476562 3.703125 -1.8125 C 4.078125 -1 4.695312 -0.59375 5.5625 -0.59375 Z M 5.5625 -0.59375 "/></g></g></g><g fill="#3d4043" fill-opacity="1"><g transform="translate(131.976009, 325.153337)"><g><path d="M 7.203125 -8.796875 C 6.191406 -8.796875 5.28125 -8.328125 4.46875 -7.390625 L 4.46875 -0.734375 L 6.15625 -0.734375 L 6.15625 0 L 0.53125 0 L 0.53125 -0.734375 L 2.046875 -0.734375 L 2.046875 -8.796875 L 0.515625 -8.796875 L 0.515625 -9.53125 L 4.46875 -9.53125 L 4.46875 -8.34375 C 5.394531 -9.238281 6.457031 -9.6875 7.65625 -9.6875 C 8.476562 -9.6875 9.210938 -9.472656 9.859375 -9.046875 C 10.679688 -8.503906 11.09375 -7.640625 11.09375 -6.453125 L 11.09375 -0.734375 L 12.609375 -0.734375 L 12.609375 0 L 6.984375 0 L 6.984375 -0.734375 L 8.671875 -0.734375 L 8.671875 -6.625 C 8.671875 -7.351562 8.59375 -7.847656 8.4375 -8.109375 C 8.289062 -8.367188 8.117188 -8.546875 7.921875 -8.640625 C 7.734375 -8.742188 7.492188 -8.796875 7.203125 -8.796875 Z M 7.203125 -8.796875 "/></g></g></g><g fill="#3d4043" fill-opacity="1"><g transform="translate(146.847748, 325.153337)"><g><path d="M 9.984375 -1.625 C 9.015625 -0.414062 7.628906 0.1875 5.828125 0.1875 C 5.222656 0.1875 4.597656 0.0625 3.953125 -0.1875 C 3.304688 -0.4375 2.757812 -0.785156 2.3125 -1.234375 C 1.375 -2.160156 0.90625 -3.34375 0.90625 -4.78125 C 0.90625 -6.226562 1.375 -7.40625 2.3125 -8.3125 C 3.257812 -9.21875 4.460938 -9.671875 5.921875 -9.671875 C 8.054688 -9.671875 9.398438 -8.78125 9.953125 -7 C 10.128906 -6.425781 10.21875 -5.78125 10.21875 -5.0625 L 3.46875 -5.0625 L 3.46875 -4.78125 C 3.46875 -2.863281 4.015625 -1.601562 5.109375 -1 C 5.472656 -0.800781 5.910156 -0.703125 6.421875 -0.703125 C 7.546875 -0.703125 8.570312 -1.160156 9.5 -2.078125 Z M 7.71875 -5.828125 C 7.695312 -6.828125 7.539062 -7.585938 7.25 -8.109375 C 6.957031 -8.628906 6.484375 -8.890625 5.828125 -8.890625 C 4.472656 -8.890625 3.703125 -7.867188 3.515625 -5.828125 Z M 7.71875 -5.828125 "/></g></g></g><g fill="#3d4043" fill-opacity="1"><g transform="translate(160.126533, 325.153337)"><g><path d="M 2.484375 -0.6875 C 2.285156 -0.539062 2.175781 -0.3125 2.15625 0 L 1.25 0 L 1.296875 -2.796875 L 2.15625 -2.796875 C 2.15625 -2.328125 2.453125 -1.835938 3.046875 -1.328125 C 3.648438 -0.828125 4.410156 -0.578125 5.328125 -0.578125 C 6.242188 -0.578125 6.828125 -0.84375 7.078125 -1.375 C 7.148438 -1.53125 7.1875 -1.691406 7.1875 -1.859375 C 7.1875 -2.171875 6.972656 -2.457031 6.546875 -2.71875 C 6.117188 -2.976562 5.414062 -3.28125 4.4375 -3.625 C 3.46875 -3.976562 2.703125 -4.425781 2.140625 -4.96875 C 1.585938 -5.519531 1.3125 -6.191406 1.3125 -6.984375 C 1.3125 -7.773438 1.664062 -8.421875 2.375 -8.921875 C 3.082031 -9.429688 3.898438 -9.6875 4.828125 -9.6875 C 5.753906 -9.6875 6.503906 -9.457031 7.078125 -9 C 7.242188 -9.050781 7.378906 -9.1875 7.484375 -9.40625 C 7.515625 -9.476562 7.53125 -9.566406 7.53125 -9.671875 L 8.25 -9.671875 L 8.25 -7.078125 L 7.421875 -7.078125 C 7.316406 -7.660156 7.035156 -8.113281 6.578125 -8.4375 C 6.117188 -8.769531 5.582031 -8.9375 4.96875 -8.9375 C 4.351562 -8.9375 3.878906 -8.816406 3.546875 -8.578125 C 3.222656 -8.335938 3.0625 -8.046875 3.0625 -7.703125 C 3.0625 -7.359375 3.25 -7.046875 3.625 -6.765625 C 4.007812 -6.484375 4.550781 -6.21875 5.25 -5.96875 C 5.945312 -5.726562 6.492188 -5.515625 6.890625 -5.328125 C 8.160156 -4.710938 8.796875 -3.820312 8.796875 -2.65625 C 8.796875 -1.488281 8.144531 -0.644531 6.84375 -0.125 C 6.332031 0.0820312 5.816406 0.1875 5.296875 0.1875 C 4.191406 0.1875 3.253906 -0.101562 2.484375 -0.6875 Z M 2.484375 -0.6875 "/></g></g></g><g fill="#3d4043" fill-opacity="1"><g transform="translate(171.821685, 325.153337)"><g/></g></g><g fill="#3d4043" fill-opacity="1"><g transform="translate(180.330939, 325.153337)"><g><path d="M 4.03125 -0.734375 L 5.890625 -0.734375 L 5.890625 -13.53125 L 4.15625 -13.53125 C 3.132812 -13.46875 2.421875 -13.09375 2.015625 -12.40625 C 1.710938 -11.875 1.53125 -10.992188 1.46875 -9.765625 L 0.75 -9.765625 L 0.75 -14.25 L 13.546875 -14.25 L 13.546875 -9.765625 L 12.8125 -9.765625 C 12.757812 -10.984375 12.578125 -11.863281 12.265625 -12.40625 C 11.859375 -13.09375 11.144531 -13.46875 10.125 -13.53125 L 8.40625 -13.53125 L 8.40625 -0.734375 L 10.265625 -0.734375 L 10.265625 0 L 4.03125 0 Z M 4.03125 -0.734375 "/></g></g></g><g fill="#3d4043" fill-opacity="1"><g transform="translate(196.786306, 325.153337)"><g><path d="M 9.984375 -1.625 C 9.015625 -0.414062 7.628906 0.1875 5.828125 0.1875 C 5.222656 0.1875 4.597656 0.0625 3.953125 -0.1875 C 3.304688 -0.4375 2.757812 -0.785156 2.3125 -1.234375 C 1.375 -2.160156 0.90625 -3.34375 0.90625 -4.78125 C 0.90625 -6.226562 1.375 -7.40625 2.3125 -8.3125 C 3.257812 -9.21875 4.460938 -9.671875 5.921875 -9.671875 C 8.054688 -9.671875 9.398438 -8.78125 9.953125 -7 C 10.128906 -6.425781 10.21875 -5.78125 10.21875 -5.0625 L 3.46875 -5.0625 L 3.46875 -4.78125 C 3.46875 -2.863281 4.015625 -1.601562 5.109375 -1 C 5.472656 -0.800781 5.910156 -0.703125 6.421875 -0.703125 C 7.546875 -0.703125 8.570312 -1.160156 9.5 -2.078125 Z M 7.71875 -5.828125 C 7.695312 -6.828125 7.539062 -7.585938 7.25 -8.109375 C 6.957031 -8.628906 6.484375 -8.890625 5.828125 -8.890625 C 4.472656 -8.890625 3.703125 -7.867188 3.515625 -5.828125 Z M 7.71875 -5.828125 "/></g></g></g><g fill="#3d4043" fill-opacity="1"><g transform="translate(210.065091, 325.153337)"><g><path d="M 9.296875 -1.34375 C 8.503906 -0.320312 7.28125 0.1875 5.625 0.1875 C 5.039062 0.1875 4.425781 0.078125 3.78125 -0.140625 C 3.144531 -0.367188 2.59375 -0.695312 2.125 -1.125 C 1.125 -2.039062 0.625 -3.257812 0.625 -4.78125 C 0.625 -6.300781 1.113281 -7.5 2.09375 -8.375 C 3.070312 -9.25 4.3125 -9.6875 5.8125 -9.6875 C 6.664062 -9.6875 7.457031 -9.492188 8.1875 -9.109375 C 8.914062 -8.734375 9.28125 -8.195312 9.28125 -7.5 C 9.28125 -7.125 9.160156 -6.816406 8.921875 -6.578125 C 8.691406 -6.347656 8.441406 -6.234375 8.171875 -6.234375 C 7.734375 -6.234375 7.394531 -6.332031 7.15625 -6.53125 C 6.914062 -6.738281 6.796875 -7.019531 6.796875 -7.375 C 6.796875 -7.9375 7.019531 -8.328125 7.46875 -8.546875 C 7.007812 -8.828125 6.476562 -8.96875 5.875 -8.96875 C 4.082031 -8.96875 3.1875 -7.570312 3.1875 -4.78125 C 3.1875 -2.820312 3.726562 -1.554688 4.8125 -0.984375 C 5.175781 -0.796875 5.597656 -0.703125 6.078125 -0.703125 C 7.203125 -0.703125 8.113281 -1.0625 8.8125 -1.78125 Z M 9.296875 -1.34375 "/></g></g></g><g fill="#3d4043" fill-opacity="1"><g transform="translate(221.778874, 325.153337)"><g><path d="M 7.203125 -8.796875 C 6.191406 -8.796875 5.28125 -8.328125 4.46875 -7.390625 L 4.46875 -0.734375 L 6.15625 -0.734375 L 6.15625 0 L 0.53125 0 L 0.53125 -0.734375 L 2.046875 -0.734375 L 2.046875 -8.796875 L 0.515625 -8.796875 L 0.515625 -9.53125 L 4.46875 -9.53125 L 4.46875 -8.34375 C 5.394531 -9.238281 6.457031 -9.6875 7.65625 -9.6875 C 8.476562 -9.6875 9.210938 -9.472656 9.859375 -9.046875 C 10.679688 -8.503906 11.09375 -7.640625 11.09375 -6.453125 L 11.09375 -0.734375 L 12.609375 -0.734375 L 12.609375 0 L 6.984375 0 L 6.984375 -0.734375 L 8.671875 -0.734375 L 8.671875 -6.625 C 8.671875 -7.351562 8.59375 -7.847656 8.4375 -8.109375 C 8.289062 -8.367188 8.117188 -8.546875 7.921875 -8.640625 C 7.734375 -8.742188 7.492188 -8.796875 7.203125 -8.796875 Z M 7.203125 -8.796875 "/></g></g></g><g fill="#3d4043" fill-opacity="1"><g transform="translate(236.650607, 325.153337)"><g><path d="M 0.671875 -4.765625 C 0.671875 -6.234375 1.132812 -7.421875 2.0625 -8.328125 C 3 -9.234375 4.171875 -9.6875 5.578125 -9.6875 C 6.992188 -9.6875 8.160156 -9.234375 9.078125 -8.328125 C 9.992188 -7.429688 10.453125 -6.25 10.453125 -4.78125 C 10.453125 -3.3125 9.992188 -2.113281 9.078125 -1.1875 C 8.171875 -0.269531 7.003906 0.1875 5.578125 0.1875 C 4.160156 0.1875 2.988281 -0.269531 2.0625 -1.1875 C 1.132812 -2.113281 0.671875 -3.304688 0.671875 -4.765625 Z M 5.5625 -0.59375 C 6.8125 -0.59375 7.546875 -1.445312 7.765625 -3.15625 C 7.828125 -3.65625 7.859375 -4.195312 7.859375 -4.78125 C 7.859375 -6.09375 7.710938 -7.078125 7.421875 -7.734375 C 7.046875 -8.515625 6.425781 -8.90625 5.5625 -8.90625 C 4.300781 -8.90625 3.566406 -8.078125 3.359375 -6.421875 C 3.296875 -5.921875 3.265625 -5.375 3.265625 -4.78125 C 3.265625 -3.46875 3.410156 -2.476562 3.703125 -1.8125 C 4.078125 -1 4.695312 -0.59375 5.5625 -0.59375 Z M 5.5625 -0.59375 "/></g></g></g><g fill="#3d4043" fill-opacity="1"><g transform="translate(249.929403, 325.153337)"><g><path d="M 0.5625 -0.734375 L 2.015625 -0.734375 L 2.015625 -14.953125 L 0.5 -14.953125 L 0.5 -15.6875 L 4.484375 -15.6875 L 4.484375 -0.734375 L 6.046875 -0.734375 L 6.046875 0 L 0.5625 0 Z M 0.5625 -0.734375 "/></g></g></g><g fill="#3d4043" fill-opacity="1"><g transform="translate(258.447973, 325.153337)"><g><path d="M 0.671875 -4.765625 C 0.671875 -6.234375 1.132812 -7.421875 2.0625 -8.328125 C 3 -9.234375 4.171875 -9.6875 5.578125 -9.6875 C 6.992188 -9.6875 8.160156 -9.234375 9.078125 -8.328125 C 9.992188 -7.429688 10.453125 -6.25 10.453125 -4.78125 C 10.453125 -3.3125 9.992188 -2.113281 9.078125 -1.1875 C 8.171875 -0.269531 7.003906 0.1875 5.578125 0.1875 C 4.160156 0.1875 2.988281 -0.269531 2.0625 -1.1875 C 1.132812 -2.113281 0.671875 -3.304688 0.671875 -4.765625 Z M 5.5625 -0.59375 C 6.8125 -0.59375 7.546875 -1.445312 7.765625 -3.15625 C 7.828125 -3.65625 7.859375 -4.195312 7.859375 -4.78125 C 7.859375 -6.09375 7.710938 -7.078125 7.421875 -7.734375 C 7.046875 -8.515625 6.425781 -8.90625 5.5625 -8.90625 C 4.300781 -8.90625 3.566406 -8.078125 3.359375 -6.421875 C 3.296875 -5.921875 3.265625 -5.375 3.265625 -4.78125 C 3.265625 -3.46875 3.410156 -2.476562 3.703125 -1.8125 C 4.078125 -1 4.695312 -0.59375 5.5625 -0.59375 Z M 4.625 -11.34375 L 6.671875 -14.453125 C 6.921875 -14.816406 7.160156 -15.015625 7.390625 -15.046875 C 7.796875 -15.097656 8.113281 -15.035156 8.34375 -14.859375 C 8.570312 -14.679688 8.691406 -14.46875 8.703125 -14.21875 C 8.742188 -13.695312 8.582031 -13.320312 8.21875 -13.09375 L 4.921875 -11.03125 Z M 4.625 -11.34375 "/></g></g></g><g fill="#3d4043" fill-opacity="1"><g transform="translate(271.726758, 325.153337)"><g><path d="M 6.40625 -1.21875 C 9.34375 -1.21875 10.8125 -0.25 10.8125 1.6875 C 10.8125 2.84375 10.316406 3.71875 9.328125 4.3125 C 8.347656 4.914062 7.140625 5.21875 5.703125 5.21875 C 3.523438 5.21875 2.066406 4.785156 1.328125 3.921875 C 1.046875 3.609375 0.90625 3.273438 0.90625 2.921875 C 0.90625 2.335938 1.09375 1.847656 1.46875 1.453125 C 1.84375 1.054688 2.316406 0.773438 2.890625 0.609375 C 2.390625 0.515625 1.972656 0.300781 1.640625 -0.03125 C 1.304688 -0.363281 1.140625 -0.703125 1.140625 -1.046875 C 1.140625 -1.597656 1.296875 -2.070312 1.609375 -2.46875 C 1.921875 -2.863281 2.3125 -3.179688 2.78125 -3.421875 C 1.820312 -4.078125 1.34375 -4.941406 1.34375 -6.015625 C 1.34375 -7.097656 1.75 -7.976562 2.5625 -8.65625 C 3.382812 -9.332031 4.328125 -9.671875 5.390625 -9.671875 C 6.460938 -9.671875 7.367188 -9.441406 8.109375 -8.984375 C 8.460938 -9.046875 8.742188 -9.160156 8.953125 -9.328125 C 8.554688 -9.554688 8.359375 -9.851562 8.359375 -10.21875 C 8.359375 -10.582031 8.4375 -10.847656 8.59375 -11.015625 C 8.882812 -11.328125 9.191406 -11.484375 9.515625 -11.484375 C 9.835938 -11.484375 10.113281 -11.375 10.34375 -11.15625 C 10.570312 -10.9375 10.6875 -10.628906 10.6875 -10.234375 C 10.6875 -9.847656 10.472656 -9.476562 10.046875 -9.125 C 9.617188 -8.769531 9.191406 -8.550781 8.765625 -8.46875 C 9.453125 -7.789062 9.796875 -6.972656 9.796875 -6.015625 C 9.796875 -5.054688 9.382812 -4.253906 8.5625 -3.609375 C 7.738281 -2.972656 6.726562 -2.65625 5.53125 -2.65625 C 4.726562 -2.65625 4.007812 -2.800781 3.375 -3.09375 C 2.71875 -2.8125 2.390625 -2.445312 2.390625 -2 C 2.390625 -1.476562 2.851562 -1.21875 3.78125 -1.21875 Z M 5.515625 -3.421875 C 6.859375 -3.421875 7.53125 -4.332031 7.53125 -6.15625 C 7.53125 -7.988281 6.875 -8.90625 5.5625 -8.90625 C 4.519531 -8.90625 3.898438 -8.332031 3.703125 -7.1875 C 3.640625 -6.84375 3.609375 -6.484375 3.609375 -6.109375 C 3.609375 -4.796875 3.925781 -3.972656 4.5625 -3.640625 C 4.8125 -3.492188 5.128906 -3.421875 5.515625 -3.421875 Z M 2.734375 2.640625 C 2.734375 3.835938 3.753906 4.4375 5.796875 4.4375 C 6.835938 4.4375 7.644531 4.25 8.21875 3.875 C 8.789062 3.507812 9.078125 3.046875 9.078125 2.484375 C 9.078125 1.710938 8.707031 1.179688 7.96875 0.890625 C 7.707031 0.785156 7.382812 0.734375 7 0.734375 L 4.15625 0.734375 C 3.726562 0.835938 3.382812 1.0625 3.125 1.40625 C 2.863281 1.757812 2.734375 2.171875 2.734375 2.640625 Z M 2.734375 2.640625 "/></g></g></g><g fill="#3d4043" fill-opacity="1"><g transform="translate(285.005543, 325.153337)"><g><path d="M 4.21875 -11.796875 C 3.96875 -11.554688 3.664062 -11.4375 3.3125 -11.4375 C 2.957031 -11.4375 2.648438 -11.554688 2.390625 -11.796875 C 2.140625 -12.046875 2.015625 -12.304688 2.015625 -12.578125 C 2.015625 -13.035156 2.140625 -13.390625 2.390625 -13.640625 C 2.640625 -13.890625 2.945312 -14.015625 3.3125 -14.015625 C 3.875 -14.015625 4.265625 -13.753906 4.484375 -13.234375 C 4.554688 -13.078125 4.59375 -12.90625 4.59375 -12.71875 C 4.59375 -12.351562 4.46875 -12.046875 4.21875 -11.796875 Z M 0.5625 -0.734375 L 2.078125 -0.734375 L 2.078125 -8.796875 L 0.703125 -8.796875 L 0.703125 -9.53125 L 4.546875 -9.53125 L 4.546875 -0.734375 L 6.0625 -0.734375 L 6.0625 0 L 0.5625 0 Z M 0.5625 -0.734375 "/></g></g></g><g fill="#3d4043" fill-opacity="1"><g transform="translate(293.524112, 325.153337)"><g><path d="M 9.296875 -1.34375 C 8.503906 -0.320312 7.28125 0.1875 5.625 0.1875 C 5.039062 0.1875 4.425781 0.078125 3.78125 -0.140625 C 3.144531 -0.367188 2.59375 -0.695312 2.125 -1.125 C 1.125 -2.039062 0.625 -3.257812 0.625 -4.78125 C 0.625 -6.300781 1.113281 -7.5 2.09375 -8.375 C 3.070312 -9.25 4.3125 -9.6875 5.8125 -9.6875 C 6.664062 -9.6875 7.457031 -9.492188 8.1875 -9.109375 C 8.914062 -8.734375 9.28125 -8.195312 9.28125 -7.5 C 9.28125 -7.125 9.160156 -6.816406 8.921875 -6.578125 C 8.691406 -6.347656 8.441406 -6.234375 8.171875 -6.234375 C 7.734375 -6.234375 7.394531 -6.332031 7.15625 -6.53125 C 6.914062 -6.738281 6.796875 -7.019531 6.796875 -7.375 C 6.796875 -7.9375 7.019531 -8.328125 7.46875 -8.546875 C 7.007812 -8.828125 6.476562 -8.96875 5.875 -8.96875 C 4.082031 -8.96875 3.1875 -7.570312 3.1875 -4.78125 C 3.1875 -2.820312 3.726562 -1.554688 4.8125 -0.984375 C 5.175781 -0.796875 5.597656 -0.703125 6.078125 -0.703125 C 7.203125 -0.703125 8.113281 -1.0625 8.8125 -1.78125 Z M 9.296875 -1.34375 "/></g></g></g><g fill="#3d4043" fill-opacity="1"><g transform="translate(305.237895, 325.153337)"><g><path d="M 7.125 -1.046875 C 6.40625 -0.222656 5.441406 0.1875 4.234375 0.1875 C 3.304688 0.1875 2.507812 -0.0664062 1.84375 -0.578125 C 1.1875 -1.085938 0.859375 -1.757812 0.859375 -2.59375 C 0.859375 -3.425781 1.179688 -4.078125 1.828125 -4.546875 C 2.484375 -5.023438 3.320312 -5.265625 4.34375 -5.265625 C 5.375 -5.265625 6.238281 -5.003906 6.9375 -4.484375 L 6.9375 -6.703125 C 6.9375 -7.453125 6.84375 -7.960938 6.65625 -8.234375 C 6.46875 -8.503906 6.25 -8.691406 6 -8.796875 C 5.75 -8.898438 5.46875 -8.953125 5.15625 -8.953125 C 4.675781 -8.953125 4.269531 -8.894531 3.9375 -8.78125 C 3.613281 -8.675781 3.394531 -8.566406 3.28125 -8.453125 C 3.570312 -8.367188 3.796875 -8.15625 3.953125 -7.8125 C 4.003906 -7.6875 4.03125 -7.535156 4.03125 -7.359375 C 4.03125 -7.015625 3.90625 -6.726562 3.65625 -6.5 C 3.40625 -6.28125 3.15625 -6.171875 2.90625 -6.171875 C 2.46875 -6.171875 2.128906 -6.285156 1.890625 -6.515625 C 1.648438 -6.742188 1.53125 -7.019531 1.53125 -7.34375 C 1.53125 -7.664062 1.585938 -7.929688 1.703125 -8.140625 C 1.816406 -8.347656 1.976562 -8.535156 2.1875 -8.703125 C 2.5625 -9.015625 3.035156 -9.253906 3.609375 -9.421875 C 4.179688 -9.585938 4.71875 -9.671875 5.21875 -9.671875 C 6.625 -9.671875 7.660156 -9.390625 8.328125 -8.828125 C 8.992188 -8.265625 9.328125 -7.476562 9.328125 -6.46875 L 9.328125 -1.5 C 9.328125 -0.988281 9.453125 -0.734375 9.703125 -0.734375 C 9.960938 -0.734375 10.210938 -0.882812 10.453125 -1.1875 L 10.9375 -0.796875 C 10.507812 -0.148438 9.820312 0.171875 8.875 0.171875 C 8.53125 0.171875 8.1875 0.0664062 7.84375 -0.140625 C 7.5 -0.359375 7.257812 -0.660156 7.125 -1.046875 Z M 6.953125 -3.65625 C 6.429688 -4.175781 5.851562 -4.4375 5.21875 -4.4375 C 4.59375 -4.4375 4.117188 -4.285156 3.796875 -3.984375 C 3.484375 -3.691406 3.328125 -3.222656 3.328125 -2.578125 C 3.328125 -1.609375 3.664062 -1.019531 4.34375 -0.8125 C 4.539062 -0.757812 4.738281 -0.734375 4.9375 -0.734375 C 5.5 -0.734375 6.039062 -0.945312 6.5625 -1.375 C 6.707031 -1.507812 6.835938 -1.648438 6.953125 -1.796875 Z M 6.953125 -3.65625 "/></g></g></g><g fill="#3d4043" fill-opacity="1"><g transform="translate(318.525995, 325.153337)"><g><path d="M 2.484375 -0.6875 C 2.285156 -0.539062 2.175781 -0.3125 2.15625 0 L 1.25 0 L 1.296875 -2.796875 L 2.15625 -2.796875 C 2.15625 -2.328125 2.453125 -1.835938 3.046875 -1.328125 C 3.648438 -0.828125 4.410156 -0.578125 5.328125 -0.578125 C 6.242188 -0.578125 6.828125 -0.84375 7.078125 -1.375 C 7.148438 -1.53125 7.1875 -1.691406 7.1875 -1.859375 C 7.1875 -2.171875 6.972656 -2.457031 6.546875 -2.71875 C 6.117188 -2.976562 5.414062 -3.28125 4.4375 -3.625 C 3.46875 -3.976562 2.703125 -4.425781 2.140625 -4.96875 C 1.585938 -5.519531 1.3125 -6.191406 1.3125 -6.984375 C 1.3125 -7.773438 1.664062 -8.421875 2.375 -8.921875 C 3.082031 -9.429688 3.898438 -9.6875 4.828125 -9.6875 C 5.753906 -9.6875 6.503906 -9.457031 7.078125 -9 C 7.242188 -9.050781 7.378906 -9.1875 7.484375 -9.40625 C 7.515625 -9.476562 7.53125 -9.566406 7.53125 -9.671875 L 8.25 -9.671875 L 8.25 -7.078125 L 7.421875 -7.078125 C 7.316406 -7.660156 7.035156 -8.113281 6.578125 -8.4375 C 6.117188 -8.769531 5.582031 -8.9375 4.96875 -8.9375 C 4.351562 -8.9375 3.878906 -8.816406 3.546875 -8.578125 C 3.222656 -8.335938 3.0625 -8.046875 3.0625 -7.703125 C 3.0625 -7.359375 3.25 -7.046875 3.625 -6.765625 C 4.007812 -6.484375 4.550781 -6.21875 5.25 -5.96875 C 5.945312 -5.726562 6.492188 -5.515625 6.890625 -5.328125 C 8.160156 -4.710938 8.796875 -3.820312 8.796875 -2.65625 C 8.796875 -1.488281 8.144531 -0.644531 6.84375 -0.125 C 6.332031 0.0820312 5.816406 0.1875 5.296875 0.1875 C 4.191406 0.1875 3.253906 -0.101562 2.484375 -0.6875 Z M 2.484375 -0.6875 "/></g></g></g></svg>