<svg xmlns="http://www.w3.org/2000/svg" xmlns:xlink="http://www.w3.org/1999/xlink" width="500" zoomAndPan="magnify" viewBox="0 0 375 374.999991" height="500" preserveAspectRatio="xMidYMid meet" version="1.0"><defs><g/><clipPath id="c5840259ca"><path d="M 228 118 L 272 118 L 272 156.898438 L 228 156.898438 Z M 228 118 " clip-rule="nonzero"/></clipPath><clipPath id="97bdd0c5cc"><path d="M 198 106 L 256 106 L 256 156.898438 L 198 156.898438 Z M 198 106 " clip-rule="nonzero"/></clipPath><clipPath id="242ec2ea6a"><path d="M 103 118 L 147 118 L 147 156.898438 L 103 156.898438 Z M 103 118 " clip-rule="nonzero"/></clipPath><clipPath id="258b337f1d"><path d="M 119 106 L 177 106 L 177 156.898438 L 119 156.898438 Z M 119 106 " clip-rule="nonzero"/></clipPath><clipPath id="91b6e4b596"><path d="M 149 90.898438 L 225 90.898438 L 225 156.898438 L 149 156.898438 Z M 149 90.898438 " clip-rule="nonzero"/></clipPath></defs><g clip-path="url(#c5840259ca)"><path fill="#ffffff" d="M 270.160156 156.292969 C 269.582031 156.292969 269.019531 155.996094 268.710938 155.457031 L 250.128906 123.273438 L 231.550781 155.457031 C 231.085938 156.257812 230.0625 156.53125 229.265625 156.070312 C 228.464844 155.609375 228.191406 154.585938 228.652344 153.785156 L 248.683594 119.089844 C 248.980469 118.574219 249.53125 118.253906 250.128906 118.253906 C 250.730469 118.253906 251.28125 118.574219 251.578125 119.089844 L 271.609375 153.785156 C 272.070312 154.585938 271.796875 155.609375 270.996094 156.070312 C 270.734375 156.222656 270.445312 156.292969 270.160156 156.292969 " fill-opacity="1" fill-rule="nonzero"/></g><g clip-path="url(#97bdd0c5cc)"><path fill="#ffffff" d="M 253.414062 156.292969 L 230.101562 156.292969 C 229.175781 156.292969 228.425781 155.546875 228.425781 154.621094 C 228.425781 153.699219 229.175781 152.949219 230.101562 152.949219 L 250.515625 152.949219 L 226.707031 111.710938 L 202.898438 152.949219 L 223.316406 152.949219 C 224.242188 152.949219 224.992188 153.699219 224.992188 154.621094 C 224.992188 155.546875 224.242188 156.292969 223.316406 156.292969 L 200 156.292969 C 199.402344 156.292969 198.851562 155.976562 198.550781 155.457031 C 198.253906 154.941406 198.253906 154.300781 198.550781 153.785156 L 225.257812 107.527344 C 225.558594 107.007812 226.109375 106.691406 226.707031 106.691406 C 227.304688 106.691406 227.859375 107.007812 228.15625 107.527344 L 254.863281 153.785156 C 255.164062 154.300781 255.164062 154.941406 254.863281 155.457031 C 254.566406 155.976562 254.011719 156.292969 253.414062 156.292969 " fill-opacity="1" fill-rule="nonzero"/></g><g clip-path="url(#242ec2ea6a)"><path fill="#ffffff" d="M 144.875 156.292969 C 144.296875 156.292969 143.734375 155.996094 143.421875 155.457031 L 124.84375 123.273438 L 106.261719 155.457031 C 105.796875 156.257812 104.773438 156.53125 103.976562 156.070312 C 103.175781 155.609375 102.902344 154.585938 103.363281 153.785156 L 123.394531 119.089844 C 123.691406 118.574219 124.242188 118.253906 124.84375 118.253906 C 125.441406 118.253906 125.992188 118.574219 126.289062 119.089844 L 146.320312 153.785156 C 146.78125 154.585938 146.507812 155.609375 145.707031 156.070312 C 145.445312 156.222656 145.15625 156.292969 144.875 156.292969 " fill-opacity="1" fill-rule="nonzero"/></g><g clip-path="url(#258b337f1d)"><path fill="#ffffff" d="M 174.972656 156.292969 L 151.65625 156.292969 C 150.730469 156.292969 149.984375 155.546875 149.984375 154.621094 C 149.984375 153.699219 150.730469 152.949219 151.65625 152.949219 L 172.074219 152.949219 L 148.265625 111.710938 L 124.457031 152.949219 L 144.871094 152.949219 C 145.796875 152.949219 146.542969 153.699219 146.542969 154.621094 C 146.542969 155.546875 145.796875 156.292969 144.871094 156.292969 L 121.558594 156.292969 C 120.960938 156.292969 120.40625 155.976562 120.109375 155.457031 C 119.808594 154.941406 119.808594 154.300781 120.109375 153.785156 L 146.816406 107.527344 C 147.113281 107.007812 147.667969 106.691406 148.265625 106.691406 C 148.863281 106.691406 149.414062 107.007812 149.714844 107.527344 L 176.421875 153.785156 C 176.71875 154.300781 176.71875 154.941406 176.421875 155.457031 C 176.121094 155.976562 175.570312 156.292969 174.972656 156.292969 " fill-opacity="1" fill-rule="nonzero"/></g><g clip-path="url(#91b6e4b596)"><path fill="#ffffff" d="M 223.316406 156.292969 L 200 156.292969 C 199.078125 156.292969 198.328125 155.546875 198.328125 154.621094 C 198.328125 153.699219 199.078125 152.949219 200 152.949219 L 220.417969 152.949219 L 187.484375 95.90625 L 154.554688 152.949219 L 174.972656 152.949219 C 175.894531 152.949219 176.644531 153.699219 176.644531 154.621094 C 176.644531 155.546875 175.894531 156.292969 174.972656 156.292969 L 151.65625 156.292969 C 151.058594 156.292969 150.503906 155.976562 150.207031 155.457031 C 149.910156 154.941406 149.910156 154.300781 150.207031 153.785156 L 186.035156 91.722656 C 186.335938 91.207031 186.886719 90.886719 187.484375 90.886719 C 188.082031 90.886719 188.636719 91.207031 188.933594 91.722656 L 224.765625 153.785156 C 225.066406 154.300781 225.066406 154.941406 224.765625 155.457031 C 224.464844 155.976562 223.914062 156.292969 223.316406 156.292969 " fill-opacity="1" fill-rule="nonzero"/></g><g fill="#ffffff" fill-opacity="1"><g transform="translate(49.331258, 227.746221)"><g><path d="M 3.140625 -21.125 C 3.140625 -29.007812 5.171875 -34.738281 9.234375 -38.3125 C 11.117188 -39.96875 13.359375 -41.132812 15.953125 -41.8125 C 18.554688 -42.5 21.445312 -42.84375 24.625 -42.84375 C 27.5625 -42.84375 30.0625 -42.410156 32.125 -41.546875 C 34.195312 -40.679688 35.785156 -39.515625 36.890625 -38.046875 C 38.003906 -36.578125 38.5625 -34.9375 38.5625 -33.125 C 38.5625 -32.039062 38.21875 -31.15625 37.53125 -30.46875 C 36.851562 -29.789062 35.96875 -29.453125 34.875 -29.453125 C 33.789062 -29.453125 32.894531 -29.789062 32.1875 -30.46875 C 31.488281 -31.15625 31.140625 -32.039062 31.140625 -33.125 C 31.140625 -34.21875 31.488281 -35.101562 32.1875 -35.78125 C 32.894531 -36.46875 33.789062 -36.8125 34.875 -36.8125 C 36.039062 -36.8125 36.925781 -36.347656 37.53125 -35.421875 C 36.882812 -37.390625 35.460938 -39.015625 33.265625 -40.296875 C 31.078125 -41.585938 28.195312 -42.234375 24.625 -42.234375 C 21.519531 -42.234375 18.769531 -41.53125 16.375 -40.125 C 13.988281 -38.71875 12.128906 -36.503906 10.796875 -33.484375 C 9.472656 -30.472656 8.8125 -26.53125 8.8125 -21.65625 C 8.8125 -16.707031 9.515625 -12.710938 10.921875 -9.671875 C 12.328125 -6.640625 14.273438 -4.421875 16.765625 -3.015625 C 19.265625 -1.609375 22.125 -0.90625 25.34375 -0.90625 C 27.351562 -0.90625 29.050781 -1.015625 30.4375 -1.234375 C 31.832031 -1.453125 33.117188 -1.8125 34.296875 -2.3125 C 35.484375 -2.820312 36.765625 -3.5 38.140625 -4.34375 L 38.140625 -3.625 C 36.648438 -2.53125 34.75 -1.550781 32.4375 -0.6875 C 30.125 0.175781 26.992188 0.609375 23.046875 0.609375 C 16.859375 0.609375 11.992188 -1.160156 8.453125 -4.703125 C 4.910156 -8.242188 3.140625 -13.71875 3.140625 -21.125 Z M 3.140625 -21.125 "/></g></g></g><g fill="#ffffff" fill-opacity="1"><g transform="translate(99.904993, 227.746221)"><g><path d="M 23.046875 -42.234375 C 20.035156 -42.234375 17.484375 -41.539062 15.390625 -40.15625 C 13.296875 -38.769531 11.695312 -36.535156 10.59375 -33.453125 C 9.488281 -30.378906 8.9375 -26.269531 8.9375 -21.125 C 8.9375 -16.007812 9.488281 -11.898438 10.59375 -8.796875 C 11.695312 -5.703125 13.296875 -3.460938 15.390625 -2.078125 C 17.484375 -0.691406 20.035156 0 23.046875 0 C 26.066406 0 28.625 -0.691406 30.71875 -2.078125 C 32.8125 -3.460938 34.398438 -5.703125 35.484375 -8.796875 C 36.566406 -11.898438 37.109375 -16.007812 37.109375 -21.125 C 37.109375 -26.269531 36.566406 -30.378906 35.484375 -33.453125 C 34.398438 -36.535156 32.8125 -38.769531 30.71875 -40.15625 C 28.625 -41.539062 26.066406 -42.234375 23.046875 -42.234375 Z M 23.046875 -42.84375 C 29.441406 -42.84375 34.335938 -41.070312 37.734375 -37.53125 C 41.140625 -33.988281 42.84375 -28.519531 42.84375 -21.125 C 42.84375 -13.71875 41.140625 -8.242188 37.734375 -4.703125 C 34.335938 -1.160156 29.441406 0.609375 23.046875 0.609375 C 16.648438 0.609375 11.742188 -1.160156 8.328125 -4.703125 C 4.910156 -8.242188 3.203125 -13.71875 3.203125 -21.125 C 3.203125 -28.519531 4.910156 -33.988281 8.328125 -37.53125 C 11.742188 -41.070312 16.648438 -42.84375 23.046875 -42.84375 Z M 23.046875 -42.84375 "/></g></g></g><g fill="#ffffff" fill-opacity="1"><g transform="translate(154.703162, 227.746221)"><g><path d="M 1.515625 -42.234375 L 12.3125 -42.234375 L 36.078125 -4.59375 L 36.078125 -37.40625 C 36.078125 -38.65625 35.988281 -39.582031 35.8125 -40.1875 C 35.632812 -40.789062 35.242188 -41.179688 34.640625 -41.359375 C 34.035156 -41.546875 33.109375 -41.640625 31.859375 -41.640625 L 31.859375 -42.234375 L 40.90625 -42.234375 L 40.90625 -41.640625 C 39.664062 -41.640625 38.742188 -41.546875 38.140625 -41.359375 C 37.535156 -41.179688 37.140625 -40.789062 36.953125 -40.1875 C 36.773438 -39.582031 36.6875 -38.65625 36.6875 -37.40625 L 36.6875 0 L 32.15625 0 L 8.328125 -37.828125 C 8.003906 -38.316406 7.679688 -38.75 7.359375 -39.125 C 7.035156 -39.507812 6.710938 -39.84375 6.390625 -40.125 L 6.390625 -4.703125 C 6.390625 -3.492188 6.476562 -2.597656 6.65625 -2.015625 C 6.84375 -1.429688 7.238281 -1.050781 7.84375 -0.875 C 8.445312 -0.695312 9.375 -0.609375 10.625 -0.609375 L 10.625 0 L 1.5625 0 L 1.5625 -0.609375 C 2.8125 -0.609375 3.738281 -0.695312 4.34375 -0.875 C 4.945312 -1.050781 5.335938 -1.429688 5.515625 -2.015625 C 5.703125 -2.597656 5.796875 -3.492188 5.796875 -4.703125 L 5.796875 -40.609375 C 4.785156 -41.296875 3.359375 -41.640625 1.515625 -41.640625 Z M 1.515625 -42.234375 "/></g></g></g><g fill="#ffffff" fill-opacity="1"><g transform="translate(206.121781, 227.746221)"><g><path d="M 42.234375 -21.125 C 42.234375 -14.363281 40.675781 -9.148438 37.5625 -5.484375 C 34.445312 -1.828125 29.628906 0 23.109375 0 L 1.515625 0 L 1.515625 -0.609375 C 2.679688 -0.609375 3.546875 -0.695312 4.109375 -0.875 C 4.671875 -1.050781 5.039062 -1.421875 5.21875 -1.984375 C 5.394531 -2.554688 5.484375 -3.425781 5.484375 -4.59375 L 5.484375 -37.65625 C 5.484375 -38.820312 5.394531 -39.6875 5.21875 -40.25 C 5.039062 -40.8125 4.671875 -41.179688 4.109375 -41.359375 C 3.546875 -41.546875 2.679688 -41.640625 1.515625 -41.640625 L 1.515625 -42.234375 L 23.109375 -42.234375 C 29.628906 -42.234375 34.445312 -40.40625 37.5625 -36.75 C 40.675781 -33.09375 42.234375 -27.882812 42.234375 -21.125 Z M 11.21875 -41.640625 L 11.21875 -0.609375 L 21.296875 -0.609375 C 26.566406 -0.609375 30.410156 -2.296875 32.828125 -5.671875 C 35.242188 -9.046875 36.453125 -14.195312 36.453125 -21.125 C 36.453125 -28.039062 35.242188 -33.1875 32.828125 -36.5625 C 30.410156 -39.945312 26.566406 -41.640625 21.296875 -41.640625 Z M 11.21875 -41.640625 "/></g></g></g><g fill="#ffffff" fill-opacity="1"><g transform="translate(260.316464, 227.746221)"><g><path d="M 23.046875 -42.234375 C 20.035156 -42.234375 17.484375 -41.539062 15.390625 -40.15625 C 13.296875 -38.769531 11.695312 -36.535156 10.59375 -33.453125 C 9.488281 -30.378906 8.9375 -26.269531 8.9375 -21.125 C 8.9375 -16.007812 9.488281 -11.898438 10.59375 -8.796875 C 11.695312 -5.703125 13.296875 -3.460938 15.390625 -2.078125 C 17.484375 -0.691406 20.035156 0 23.046875 0 C 26.066406 0 28.625 -0.691406 30.71875 -2.078125 C 32.8125 -3.460938 34.398438 -5.703125 35.484375 -8.796875 C 36.566406 -11.898438 37.109375 -16.007812 37.109375 -21.125 C 37.109375 -26.269531 36.566406 -30.378906 35.484375 -33.453125 C 34.398438 -36.535156 32.8125 -38.769531 30.71875 -40.15625 C 28.625 -41.539062 26.066406 -42.234375 23.046875 -42.234375 Z M 23.046875 -42.84375 C 29.441406 -42.84375 34.335938 -41.070312 37.734375 -37.53125 C 41.140625 -33.988281 42.84375 -28.519531 42.84375 -21.125 C 42.84375 -13.71875 41.140625 -8.242188 37.734375 -4.703125 C 34.335938 -1.160156 29.441406 0.609375 23.046875 0.609375 C 16.648438 0.609375 11.742188 -1.160156 8.328125 -4.703125 C 4.910156 -8.242188 3.203125 -13.71875 3.203125 -21.125 C 3.203125 -28.519531 4.910156 -33.988281 8.328125 -37.53125 C 11.742188 -41.070312 16.648438 -42.84375 23.046875 -42.84375 Z M 23.046875 -42.84375 "/></g></g></g><g fill="#ffffff" fill-opacity="1"><g transform="translate(26.233275, 270.760401)"><g><path d="M 5.609375 -10.296875 C 6.210938 -10.296875 6.800781 -10.179688 7.375 -9.953125 C 7.945312 -9.722656 8.453125 -9.382812 8.890625 -8.9375 C 9.847656 -7.945312 10.328125 -6.6875 10.328125 -5.15625 C 10.328125 -3.613281 9.847656 -2.351562 8.890625 -1.375 C 8.453125 -0.925781 7.945312 -0.582031 7.375 -0.34375 C 6.800781 -0.113281 6.210938 0 5.609375 0 L 1.265625 0 L 1.265625 -10.296875 Z M 5.5625 -1.109375 C 6.632812 -1.109375 7.507812 -1.503906 8.1875 -2.296875 C 8.84375 -3.066406 9.171875 -4.019531 9.171875 -5.15625 C 9.171875 -6.28125 8.84375 -7.226562 8.1875 -8 C 7.507812 -8.800781 6.632812 -9.203125 5.5625 -9.203125 L 2.421875 -9.203125 L 2.421875 -1.109375 Z M 5.5625 -1.109375 "/></g></g></g><g fill="#ffffff" fill-opacity="1"><g transform="translate(41.085813, 270.760401)"><g><path d="M 2.421875 -9.1875 L 2.421875 -5.734375 L 8.15625 -5.734375 L 8.15625 -4.59375 L 2.421875 -4.59375 L 2.421875 -1.125 L 8.84375 -1.125 L 8.84375 0 L 1.265625 0 L 1.265625 -10.296875 L 8.84375 -10.296875 L 8.84375 -9.1875 Z M 2.421875 -9.1875 "/></g></g></g><g fill="#ffffff" fill-opacity="1"><g transform="translate(54.443763, 270.760401)"><g><path d="M 2.4375 -8.71875 C 2.238281 -8.550781 2.109375 -8.363281 2.046875 -8.15625 C 1.984375 -7.945312 1.953125 -7.722656 1.953125 -7.484375 C 1.953125 -7.253906 2.050781 -7.039062 2.25 -6.84375 C 2.445312 -6.644531 2.710938 -6.476562 3.046875 -6.34375 C 3.378906 -6.207031 3.757812 -6.085938 4.1875 -5.984375 C 4.613281 -5.890625 5.046875 -5.785156 5.484375 -5.671875 C 5.921875 -5.566406 6.351562 -5.441406 6.78125 -5.296875 C 7.207031 -5.160156 7.585938 -4.984375 7.921875 -4.765625 C 8.660156 -4.296875 9.03125 -3.65625 9.03125 -2.84375 C 9.03125 -1.882812 8.664062 -1.148438 7.9375 -0.640625 C 7.21875 -0.128906 6.222656 0.125 4.953125 0.125 C 3.503906 0.125 2.40625 -0.175781 1.65625 -0.78125 C 0.976562 -1.320312 0.59375 -2.085938 0.5 -3.078125 L 1.71875 -3.078125 C 1.757812 -2.367188 2.097656 -1.832031 2.734375 -1.46875 C 3.296875 -1.144531 4.039062 -0.984375 4.96875 -0.984375 C 6.894531 -0.984375 7.859375 -1.585938 7.859375 -2.796875 C 7.859375 -3.210938 7.679688 -3.539062 7.328125 -3.78125 C 6.984375 -4.019531 6.550781 -4.21875 6.03125 -4.375 C 5.507812 -4.53125 4.941406 -4.675781 4.328125 -4.8125 C 3.722656 -4.945312 3.160156 -5.117188 2.640625 -5.328125 C 2.117188 -5.546875 1.679688 -5.828125 1.328125 -6.171875 C 0.984375 -6.515625 0.8125 -6.984375 0.8125 -7.578125 C 0.8125 -8.421875 1.128906 -9.101562 1.765625 -9.625 C 2.410156 -10.15625 3.382812 -10.421875 4.6875 -10.421875 C 5.988281 -10.421875 7 -10.125 7.71875 -9.53125 C 8.375 -9 8.722656 -8.316406 8.765625 -7.484375 L 7.5625 -7.484375 C 7.457031 -8.335938 6.90625 -8.90625 5.90625 -9.1875 C 5.5625 -9.289062 5.125 -9.34375 4.59375 -9.34375 C 4.070312 -9.34375 3.628906 -9.28125 3.265625 -9.15625 C 2.910156 -9.039062 2.632812 -8.894531 2.4375 -8.71875 Z M 2.4375 -8.71875 "/></g></g></g><g fill="#ffffff" fill-opacity="1"><g transform="translate(67.910693, 270.760401)"><g><path d="M 10.25 0 L 8.96875 0 L 7.703125 -2.984375 L 2.59375 -2.984375 L 1.34375 0 L 0.046875 0 L 4.421875 -10.296875 L 5.875 -10.296875 Z M 7.25 -4.0625 L 5.15625 -9.09375 L 3.046875 -4.0625 Z M 7.25 -4.0625 "/></g></g></g><g fill="#ffffff" fill-opacity="1"><g transform="translate(82.109349, 270.760401)"><g><path d="M 2.421875 0 L 1.265625 0 L 1.265625 -10.296875 L 6.1875 -10.296875 C 7.238281 -10.296875 8.082031 -10.007812 8.71875 -9.4375 C 9.351562 -8.863281 9.671875 -8.078125 9.671875 -7.078125 C 9.671875 -5.796875 9.132812 -4.921875 8.0625 -4.453125 C 7.757812 -4.316406 7.460938 -4.21875 7.171875 -4.15625 L 9.875 0 L 8.5 0 L 6 -3.953125 L 2.421875 -3.953125 Z M 2.421875 -5.0625 L 5.984375 -5.0625 C 7.085938 -5.0625 7.847656 -5.398438 8.265625 -6.078125 C 8.421875 -6.335938 8.5 -6.671875 8.5 -7.078125 C 8.5 -7.734375 8.273438 -8.25 7.828125 -8.625 C 7.378906 -9.007812 6.785156 -9.203125 6.046875 -9.203125 L 2.421875 -9.203125 Z M 2.421875 -5.0625 "/></g></g></g><g fill="#ffffff" fill-opacity="1"><g transform="translate(96.416986, 270.760401)"><g><path d="M 2.421875 0 L 1.265625 0 L 1.265625 -10.296875 L 6.1875 -10.296875 C 7.238281 -10.296875 8.082031 -10.007812 8.71875 -9.4375 C 9.351562 -8.863281 9.671875 -8.078125 9.671875 -7.078125 C 9.671875 -5.796875 9.132812 -4.921875 8.0625 -4.453125 C 7.757812 -4.316406 7.460938 -4.21875 7.171875 -4.15625 L 9.875 0 L 8.5 0 L 6 -3.953125 L 2.421875 -3.953125 Z M 2.421875 -5.0625 L 5.984375 -5.0625 C 7.085938 -5.0625 7.847656 -5.398438 8.265625 -6.078125 C 8.421875 -6.335938 8.5 -6.671875 8.5 -7.078125 C 8.5 -7.734375 8.273438 -8.25 7.828125 -8.625 C 7.378906 -9.007812 6.785156 -9.203125 6.046875 -9.203125 L 2.421875 -9.203125 Z M 2.421875 -5.0625 "/></g></g></g><g fill="#ffffff" fill-opacity="1"><g transform="translate(110.724623, 270.760401)"><g><path d="M 5.84375 -10.421875 C 7.375 -10.421875 8.632812 -9.910156 9.625 -8.890625 C 10.582031 -7.890625 11.0625 -6.640625 11.0625 -5.140625 C 11.0625 -3.648438 10.582031 -2.410156 9.625 -1.421875 C 8.632812 -0.390625 7.375 0.125 5.84375 0.125 C 4.300781 0.125 3.035156 -0.390625 2.046875 -1.421875 C 1.085938 -2.410156 0.609375 -3.648438 0.609375 -5.140625 C 0.609375 -6.640625 1.085938 -7.890625 2.046875 -8.890625 C 3.035156 -9.910156 4.300781 -10.421875 5.84375 -10.421875 Z M 5.84375 -1.015625 C 7.0625 -1.015625 8.050781 -1.410156 8.8125 -2.203125 C 9.53125 -2.972656 9.890625 -3.957031 9.890625 -5.15625 C 9.890625 -6.34375 9.53125 -7.320312 8.8125 -8.09375 C 8.050781 -8.894531 7.0625 -9.296875 5.84375 -9.296875 C 4.613281 -9.296875 3.617188 -8.894531 2.859375 -8.09375 C 2.140625 -7.320312 1.78125 -6.34375 1.78125 -5.15625 C 1.78125 -3.957031 2.140625 -2.972656 2.859375 -2.203125 C 3.617188 -1.410156 4.613281 -1.015625 5.84375 -1.015625 Z M 5.84375 -1.015625 "/></g></g></g><g fill="#ffffff" fill-opacity="1"><g transform="translate(126.293328, 270.760401)"><g><path d="M 2.421875 -10.296875 L 2.421875 -1.125 L 8.046875 -1.125 L 8.046875 0 L 1.265625 0 L 1.265625 -10.296875 Z M 2.421875 -10.296875 "/></g></g></g><g fill="#ffffff" fill-opacity="1"><g transform="translate(138.483615, 270.760401)"><g><path d="M 2.421875 -10.296875 L 2.421875 -1.125 L 8.046875 -1.125 L 8.046875 0 L 1.265625 0 L 1.265625 -10.296875 Z M 2.421875 -10.296875 "/></g></g></g><g fill="#ffffff" fill-opacity="1"><g transform="translate(150.673902, 270.760401)"><g><path d="M 5.84375 -10.421875 C 7.375 -10.421875 8.632812 -9.910156 9.625 -8.890625 C 10.582031 -7.890625 11.0625 -6.640625 11.0625 -5.140625 C 11.0625 -3.648438 10.582031 -2.410156 9.625 -1.421875 C 8.632812 -0.390625 7.375 0.125 5.84375 0.125 C 4.300781 0.125 3.035156 -0.390625 2.046875 -1.421875 C 1.085938 -2.410156 0.609375 -3.648438 0.609375 -5.140625 C 0.609375 -6.640625 1.085938 -7.890625 2.046875 -8.890625 C 3.035156 -9.910156 4.300781 -10.421875 5.84375 -10.421875 Z M 5.84375 -1.015625 C 7.0625 -1.015625 8.050781 -1.410156 8.8125 -2.203125 C 9.53125 -2.972656 9.890625 -3.957031 9.890625 -5.15625 C 9.890625 -6.34375 9.53125 -7.320312 8.8125 -8.09375 C 8.050781 -8.894531 7.0625 -9.296875 5.84375 -9.296875 C 4.613281 -9.296875 3.617188 -8.894531 2.859375 -8.09375 C 2.140625 -7.320312 1.78125 -6.34375 1.78125 -5.15625 C 1.78125 -3.957031 2.140625 -2.972656 2.859375 -2.203125 C 3.617188 -1.410156 4.613281 -1.015625 5.84375 -1.015625 Z M 5.84375 -1.015625 "/></g></g></g><g fill="#ffffff" fill-opacity="1"><g transform="translate(166.242607, 270.760401)"><g><path d="M 2.4375 -8.71875 C 2.238281 -8.550781 2.109375 -8.363281 2.046875 -8.15625 C 1.984375 -7.945312 1.953125 -7.722656 1.953125 -7.484375 C 1.953125 -7.253906 2.050781 -7.039062 2.25 -6.84375 C 2.445312 -6.644531 2.710938 -6.476562 3.046875 -6.34375 C 3.378906 -6.207031 3.757812 -6.085938 4.1875 -5.984375 C 4.613281 -5.890625 5.046875 -5.785156 5.484375 -5.671875 C 5.921875 -5.566406 6.351562 -5.441406 6.78125 -5.296875 C 7.207031 -5.160156 7.585938 -4.984375 7.921875 -4.765625 C 8.660156 -4.296875 9.03125 -3.65625 9.03125 -2.84375 C 9.03125 -1.882812 8.664062 -1.148438 7.9375 -0.640625 C 7.21875 -0.128906 6.222656 0.125 4.953125 0.125 C 3.503906 0.125 2.40625 -0.175781 1.65625 -0.78125 C 0.976562 -1.320312 0.59375 -2.085938 0.5 -3.078125 L 1.71875 -3.078125 C 1.757812 -2.367188 2.097656 -1.832031 2.734375 -1.46875 C 3.296875 -1.144531 4.039062 -0.984375 4.96875 -0.984375 C 6.894531 -0.984375 7.859375 -1.585938 7.859375 -2.796875 C 7.859375 -3.210938 7.679688 -3.539062 7.328125 -3.78125 C 6.984375 -4.019531 6.550781 -4.21875 6.03125 -4.375 C 5.507812 -4.53125 4.941406 -4.675781 4.328125 -4.8125 C 3.722656 -4.945312 3.160156 -5.117188 2.640625 -5.328125 C 2.117188 -5.546875 1.679688 -5.828125 1.328125 -6.171875 C 0.984375 -6.515625 0.8125 -6.984375 0.8125 -7.578125 C 0.8125 -8.421875 1.128906 -9.101562 1.765625 -9.625 C 2.410156 -10.15625 3.382812 -10.421875 4.6875 -10.421875 C 5.988281 -10.421875 7 -10.125 7.71875 -9.53125 C 8.375 -9 8.722656 -8.316406 8.765625 -7.484375 L 7.5625 -7.484375 C 7.457031 -8.335938 6.90625 -8.90625 5.90625 -9.1875 C 5.5625 -9.289062 5.125 -9.34375 4.59375 -9.34375 C 4.070312 -9.34375 3.628906 -9.28125 3.265625 -9.15625 C 2.910156 -9.039062 2.632812 -8.894531 2.4375 -8.71875 Z M 2.4375 -8.71875 "/></g></g></g><g fill="#ffffff" fill-opacity="1"><g transform="translate(179.709537, 270.760401)"><g/></g></g><g fill="#ffffff" fill-opacity="1"><g transform="translate(186.917838, 270.760401)"><g><path d="M 8.578125 -9.1875 L 4.984375 -9.1875 L 4.984375 0 L 3.8125 0 L 3.8125 -9.1875 L 0.21875 -9.1875 L 0.21875 -10.296875 L 8.578125 -10.296875 Z M 8.578125 -9.1875 "/></g></g></g><g fill="#ffffff" fill-opacity="1"><g transform="translate(199.606331, 270.760401)"><g><path d="M 2.421875 -9.1875 L 2.421875 -5.734375 L 8.15625 -5.734375 L 8.15625 -4.59375 L 2.421875 -4.59375 L 2.421875 -1.125 L 8.84375 -1.125 L 8.84375 0 L 1.265625 0 L 1.265625 -10.296875 L 8.84375 -10.296875 L 8.84375 -9.1875 Z M 2.421875 -9.1875 "/></g></g></g><g fill="#ffffff" fill-opacity="1"><g transform="translate(212.964281, 270.760401)"><g><path d="M 5.84375 -1.015625 C 6.582031 -1.015625 7.226562 -1.195312 7.78125 -1.5625 C 8.34375 -1.9375 8.757812 -2.441406 9.03125 -3.078125 L 10.25 -3.078125 C 9.90625 -2.109375 9.34375 -1.34375 8.5625 -0.78125 C 7.71875 -0.175781 6.726562 0.125 5.59375 0.125 C 4.082031 0.125 2.863281 -0.390625 1.9375 -1.421875 C 1.050781 -2.398438 0.609375 -3.640625 0.609375 -5.140625 C 0.609375 -6.648438 1.050781 -7.898438 1.9375 -8.890625 C 2.863281 -9.910156 4.082031 -10.421875 5.59375 -10.421875 C 6.726562 -10.421875 7.71875 -10.125 8.5625 -9.53125 C 9.34375 -8.96875 9.90625 -8.195312 10.25 -7.21875 L 9.03125 -7.21875 C 8.757812 -7.851562 8.34375 -8.359375 7.78125 -8.734375 C 7.226562 -9.109375 6.582031 -9.296875 5.84375 -9.296875 C 5.113281 -9.296875 4.503906 -9.1875 4.015625 -8.96875 C 3.523438 -8.757812 3.113281 -8.46875 2.78125 -8.09375 C 2.113281 -7.332031 1.78125 -6.351562 1.78125 -5.15625 C 1.78125 -3.945312 2.113281 -2.960938 2.78125 -2.203125 C 3.488281 -1.410156 4.507812 -1.015625 5.84375 -1.015625 Z M 5.84375 -1.015625 "/></g></g></g><g fill="#ffffff" fill-opacity="1"><g transform="translate(227.598858, 270.760401)"><g><path d="M 10.140625 -10.296875 L 10.140625 0 L 8.796875 0 L 2.421875 -8.703125 L 2.421875 0 L 1.265625 0 L 1.265625 -10.296875 L 2.609375 -10.296875 L 8.984375 -1.640625 L 8.984375 -10.296875 Z M 10.140625 -10.296875 "/></g></g></g><g fill="#ffffff" fill-opacity="1"><g transform="translate(242.902892, 270.760401)"><g><path d="M 5.84375 -10.421875 C 7.375 -10.421875 8.632812 -9.910156 9.625 -8.890625 C 10.582031 -7.890625 11.0625 -6.640625 11.0625 -5.140625 C 11.0625 -3.648438 10.582031 -2.410156 9.625 -1.421875 C 8.632812 -0.390625 7.375 0.125 5.84375 0.125 C 4.300781 0.125 3.035156 -0.390625 2.046875 -1.421875 C 1.085938 -2.410156 0.609375 -3.648438 0.609375 -5.140625 C 0.609375 -6.640625 1.085938 -7.890625 2.046875 -8.890625 C 3.035156 -9.910156 4.300781 -10.421875 5.84375 -10.421875 Z M 5.84375 -1.015625 C 7.0625 -1.015625 8.050781 -1.410156 8.8125 -2.203125 C 9.53125 -2.972656 9.890625 -3.957031 9.890625 -5.15625 C 9.890625 -6.34375 9.53125 -7.320312 8.8125 -8.09375 C 8.050781 -8.894531 7.0625 -9.296875 5.84375 -9.296875 C 4.613281 -9.296875 3.617188 -8.894531 2.859375 -8.09375 C 2.140625 -7.320312 1.78125 -6.34375 1.78125 -5.15625 C 1.78125 -3.957031 2.140625 -2.972656 2.859375 -2.203125 C 3.617188 -1.410156 4.613281 -1.015625 5.84375 -1.015625 Z M 5.84375 -1.015625 "/></g></g></g><g fill="#ffffff" fill-opacity="1"><g transform="translate(258.471597, 270.760401)"><g><path d="M 2.421875 -10.296875 L 2.421875 -1.125 L 8.046875 -1.125 L 8.046875 0 L 1.265625 0 L 1.265625 -10.296875 Z M 2.421875 -10.296875 "/></g></g></g><g fill="#ffffff" fill-opacity="1"><g transform="translate(270.661884, 270.760401)"><g><path d="M 5.84375 -10.421875 C 7.375 -10.421875 8.632812 -9.910156 9.625 -8.890625 C 10.582031 -7.890625 11.0625 -6.640625 11.0625 -5.140625 C 11.0625 -3.648438 10.582031 -2.410156 9.625 -1.421875 C 8.632812 -0.390625 7.375 0.125 5.84375 0.125 C 4.300781 0.125 3.035156 -0.390625 2.046875 -1.421875 C 1.085938 -2.410156 0.609375 -3.648438 0.609375 -5.140625 C 0.609375 -6.640625 1.085938 -7.890625 2.046875 -8.890625 C 3.035156 -9.910156 4.300781 -10.421875 5.84375 -10.421875 Z M 5.84375 -1.015625 C 7.0625 -1.015625 8.050781 -1.410156 8.8125 -2.203125 C 9.53125 -2.972656 9.890625 -3.957031 9.890625 -5.15625 C 9.890625 -6.34375 9.53125 -7.320312 8.8125 -8.09375 C 8.050781 -8.894531 7.0625 -9.296875 5.84375 -9.296875 C 4.613281 -9.296875 3.617188 -8.894531 2.859375 -8.09375 C 2.140625 -7.320312 1.78125 -6.34375 1.78125 -5.15625 C 1.78125 -3.957031 2.140625 -2.972656 2.859375 -2.203125 C 3.617188 -1.410156 4.613281 -1.015625 5.84375 -1.015625 Z M 5.84375 -1.015625 "/></g></g></g><g fill="#ffffff" fill-opacity="1"><g transform="translate(286.230574, 270.760401)"><g><path d="M 1.984375 -8.890625 C 2.421875 -9.367188 2.953125 -9.742188 3.578125 -10.015625 C 4.203125 -10.285156 4.84375 -10.421875 5.5 -10.421875 C 6.164062 -10.421875 6.742188 -10.347656 7.234375 -10.203125 C 7.722656 -10.054688 8.164062 -9.863281 8.5625 -9.625 C 9.375 -9.09375 9.972656 -8.382812 10.359375 -7.5 L 9.09375 -7.5 C 8.78125 -8.0625 8.34375 -8.5 7.78125 -8.8125 C 7.226562 -9.132812 6.597656 -9.296875 5.890625 -9.296875 C 5.191406 -9.296875 4.59375 -9.1875 4.09375 -8.96875 C 3.59375 -8.757812 3.171875 -8.46875 2.828125 -8.09375 C 2.128906 -7.320312 1.78125 -6.34375 1.78125 -5.15625 C 1.78125 -3.945312 2.125 -2.960938 2.8125 -2.203125 C 3.550781 -1.410156 4.53125 -1.015625 5.75 -1.015625 C 6.71875 -1.015625 7.554688 -1.316406 8.265625 -1.921875 C 9.015625 -2.546875 9.390625 -3.378906 9.390625 -4.421875 L 5.625 -4.421875 L 5.625 -5.484375 L 10.453125 -5.484375 L 10.453125 0 L 9.390625 0 L 9.390625 -1.828125 C 8.796875 -0.929688 7.972656 -0.332031 6.921875 -0.03125 C 6.535156 0.0703125 6.03125 0.125 5.40625 0.125 C 4.78125 0.125 4.15625 -0.0078125 3.53125 -0.28125 C 2.90625 -0.5625 2.378906 -0.941406 1.953125 -1.421875 C 1.054688 -2.390625 0.609375 -3.632812 0.609375 -5.15625 C 0.609375 -6.644531 1.066406 -7.890625 1.984375 -8.890625 Z M 1.984375 -8.890625 "/></g></g></g><g fill="#ffffff" fill-opacity="1"><g transform="translate(301.378918, 270.760401)"><g><path d="M 2.421875 0 L 1.265625 0 L 1.265625 -10.296875 L 2.421875 -10.296875 Z M 2.421875 0 "/></g></g></g><g fill="#ffffff" fill-opacity="1"><g transform="translate(308.960885, 270.760401)"><g><path d="M 5.84375 -1.015625 C 6.582031 -1.015625 7.226562 -1.195312 7.78125 -1.5625 C 8.34375 -1.9375 8.757812 -2.441406 9.03125 -3.078125 L 10.25 -3.078125 C 9.90625 -2.109375 9.34375 -1.34375 8.5625 -0.78125 C 7.71875 -0.175781 6.726562 0.125 5.59375 0.125 C 4.082031 0.125 2.863281 -0.390625 1.9375 -1.421875 C 1.050781 -2.398438 0.609375 -3.640625 0.609375 -5.140625 C 0.609375 -6.648438 1.050781 -7.898438 1.9375 -8.890625 C 2.863281 -9.910156 4.082031 -10.421875 5.59375 -10.421875 C 6.726562 -10.421875 7.71875 -10.125 8.5625 -9.53125 C 9.34375 -8.96875 9.90625 -8.195312 10.25 -7.21875 L 9.03125 -7.21875 C 8.757812 -7.851562 8.34375 -8.359375 7.78125 -8.734375 C 7.226562 -9.109375 6.582031 -9.296875 5.84375 -9.296875 C 5.113281 -9.296875 4.503906 -9.1875 4.015625 -8.96875 C 3.523438 -8.757812 3.113281 -8.46875 2.78125 -8.09375 C 2.113281 -7.332031 1.78125 -6.351562 1.78125 -5.15625 C 1.78125 -3.945312 2.113281 -2.960938 2.78125 -2.203125 C 3.488281 -1.410156 4.507812 -1.015625 5.84375 -1.015625 Z M 5.84375 -1.015625 "/></g></g></g><g fill="#ffffff" fill-opacity="1"><g transform="translate(323.595477, 270.760401)"><g><path d="M 5.84375 -10.421875 C 7.375 -10.421875 8.632812 -9.910156 9.625 -8.890625 C 10.582031 -7.890625 11.0625 -6.640625 11.0625 -5.140625 C 11.0625 -3.648438 10.582031 -2.410156 9.625 -1.421875 C 8.632812 -0.390625 7.375 0.125 5.84375 0.125 C 4.300781 0.125 3.035156 -0.390625 2.046875 -1.421875 C 1.085938 -2.410156 0.609375 -3.648438 0.609375 -5.140625 C 0.609375 -6.640625 1.085938 -7.890625 2.046875 -8.890625 C 3.035156 -9.910156 4.300781 -10.421875 5.84375 -10.421875 Z M 5.84375 -1.015625 C 7.0625 -1.015625 8.050781 -1.410156 8.8125 -2.203125 C 9.53125 -2.972656 9.890625 -3.957031 9.890625 -5.15625 C 9.890625 -6.34375 9.53125 -7.320312 8.8125 -8.09375 C 8.050781 -8.894531 7.0625 -9.296875 5.84375 -9.296875 C 4.613281 -9.296875 3.617188 -8.894531 2.859375 -8.09375 C 2.140625 -7.320312 1.78125 -6.34375 1.78125 -5.15625 C 1.78125 -3.957031 2.140625 -2.972656 2.859375 -2.203125 C 3.617188 -1.410156 4.613281 -1.015625 5.84375 -1.015625 Z M 5.84375 -1.015625 "/></g></g></g><g fill="#ffffff" fill-opacity="1"><g transform="translate(339.164182, 270.760401)"><g><path d="M 2.4375 -8.71875 C 2.238281 -8.550781 2.109375 -8.363281 2.046875 -8.15625 C 1.984375 -7.945312 1.953125 -7.722656 1.953125 -7.484375 C 1.953125 -7.253906 2.050781 -7.039062 2.25 -6.84375 C 2.445312 -6.644531 2.710938 -6.476562 3.046875 -6.34375 C 3.378906 -6.207031 3.757812 -6.085938 4.1875 -5.984375 C 4.613281 -5.890625 5.046875 -5.785156 5.484375 -5.671875 C 5.921875 -5.566406 6.351562 -5.441406 6.78125 -5.296875 C 7.207031 -5.160156 7.585938 -4.984375 7.921875 -4.765625 C 8.660156 -4.296875 9.03125 -3.65625 9.03125 -2.84375 C 9.03125 -1.882812 8.664062 -1.148438 7.9375 -0.640625 C 7.21875 -0.128906 6.222656 0.125 4.953125 0.125 C 3.503906 0.125 2.40625 -0.175781 1.65625 -0.78125 C 0.976562 -1.320312 0.59375 -2.085938 0.5 -3.078125 L 1.71875 -3.078125 C 1.757812 -2.367188 2.097656 -1.832031 2.734375 -1.46875 C 3.296875 -1.144531 4.039062 -0.984375 4.96875 -0.984375 C 6.894531 -0.984375 7.859375 -1.585938 7.859375 -2.796875 C 7.859375 -3.210938 7.679688 -3.539062 7.328125 -3.78125 C 6.984375 -4.019531 6.550781 -4.21875 6.03125 -4.375 C 5.507812 -4.53125 4.941406 -4.675781 4.328125 -4.8125 C 3.722656 -4.945312 3.160156 -5.117188 2.640625 -5.328125 C 2.117188 -5.546875 1.679688 -5.828125 1.328125 -6.171875 C 0.984375 -6.515625 0.8125 -6.984375 0.8125 -7.578125 C 0.8125 -8.421875 1.128906 -9.101562 1.765625 -9.625 C 2.410156 -10.15625 3.382812 -10.421875 4.6875 -10.421875 C 5.988281 -10.421875 7 -10.125 7.71875 -9.53125 C 8.375 -9 8.722656 -8.316406 8.765625 -7.484375 L 7.5625 -7.484375 C 7.457031 -8.335938 6.90625 -8.90625 5.90625 -9.1875 C 5.5625 -9.289062 5.125 -9.34375 4.59375 -9.34375 C 4.070312 -9.34375 3.628906 -9.28125 3.265625 -9.15625 C 2.910156 -9.039062 2.632812 -8.894531 2.4375 -8.71875 Z M 2.4375 -8.71875 "/></g></g></g></svg>